<?xml version="1.0" encoding="UTF-8" standalone="no"?>
<svg width="90px" height="90px" viewBox="0 0 90 90" version="1.1" xmlns="http://www.w3.org/2000/svg" xmlns:xlink="http://www.w3.org/1999/xlink">
    <!-- Generator: Sketch 3.8.1 (29687) - http://www.bohemiancoding.com/sketch -->
    <title>Slice 1</title>
    <desc>Created with Sketch.</desc>
    <defs></defs>
    <g id="Page-1" stroke="none" stroke-width="1" fill="none" fill-rule="evenodd">
        <g id="noun_375182_cc" fill="#000000">
            <g id="Group">
                <path d="M45,0 C20.14719,0 0,20.147187 0,45 C0,69.852813 20.14719,90 45,90 C69.85281,90 90,69.852813 90,45 C90,20.147187 69.85281,0 45,0 L45,0 Z M45,3 C68.19596,3 87,21.804041 87,45 C87,68.195959 68.19596,87 45,87 C21.80404,87 3,68.195959 3,45 C3,21.804041 21.80404,3 45,3 L45,3 Z" id="Shape"></path>
                <path d="M19.544156,57.81631 C19.272708,58.087758 19.102214,58.46276 19.102214,58.876971 L19.102214,69.395184 C19.102214,69.779068 19.251262,70.162951 19.544156,70.455844 C19.837049,70.748737 20.220932,70.897786 20.604816,70.897786 L31.123029,70.897786 C31.53724,70.897786 31.912242,70.727292 32.18369,70.455844 C32.455137,70.184399 32.603534,69.831495 32.603534,69.417281 C32.603534,69.003068 32.455137,68.605969 32.18369,68.334524 C31.912242,68.063076 31.51514,67.916011 31.100932,67.914679 L24.228738,67.892579 L67.892582,24.228735 L67.914682,31.100929 C67.915982,31.515137 68.063079,31.912239 68.334527,32.183687 C68.605972,32.455134 69.003071,32.603531 69.417284,32.603531 C69.831498,32.603531 70.184402,32.455134 70.455847,32.183687 C70.727295,31.912239 70.897789,31.537237 70.897789,31.123026 L70.897789,20.604813 C70.897789,20.220929 70.74874,19.837046 70.455847,19.544153 C70.162954,19.251259 69.779071,19.102211 69.395187,19.102211 L58.876974,19.102211 C58.462763,19.102211 58.087761,19.272705 57.816313,19.544153 C57.544866,19.815598 57.396469,20.168502 57.396469,20.582716 C57.396469,20.996929 57.544866,21.394028 57.816313,21.665473 C58.087761,21.936921 58.484863,22.083986 58.899071,22.085318 L65.771265,22.107418 L22.107421,65.771262 L22.085321,58.899068 C22.084021,58.48486 21.936924,58.087758 21.665476,57.81631 C21.394031,57.544863 20.996932,57.396466 20.582719,57.396466 C20.168505,57.396466 19.815601,57.544863 19.544156,57.81631 L19.544156,57.81631 Z" id="Shape"></path>
            </g>
        </g>
    </g>
</svg>