<?xml version="1.0" encoding="UTF-8" standalone="no"?>
<svg width="64px" height="94px" viewBox="0 0 64 94" version="1.1" xmlns="http://www.w3.org/2000/svg" xmlns:xlink="http://www.w3.org/1999/xlink">
    <!-- Generator: Sketch 3.8.1 (29687) - http://www.bohemiancoding.com/sketch -->
    <title>Slice 1</title>
    <desc>Created with Sketch.</desc>
    <defs></defs>
    <g id="Page-1" stroke="none" stroke-width="1" fill="none" fill-rule="evenodd">
        <g id="noun_74448_cc" fill="#000000">
            <g id="Group">
                <path d="M62.575,61.107 C61.184,66.819 58.767,67.843 58.767,67.843 C58.329,64.476 60.231,59.935 60.231,59.935 C64.919,46.169 56.716,35.332 56.716,35.332 C55.603,44.587 52.909,44.998 52.909,44.998 C50.448,20.805 42.365,18.345 42.365,18.345 C43.594,26.956 40.9,29.182 40.9,29.182 C40.9,29.182 43.008,25.374 35.628,16.295 C28.247,7.215 28.598,0.186 28.598,0.186 C28.598,0.186 25.025,-0.166 25.669,11.316 C26.314,22.797 23.912,23.617 23.912,23.617 C20.28,14.361 16.297,14.83 16.297,14.83 C20.632,29.357 14.247,42.362 14.247,42.362 C11.142,34.102 7.218,32.696 7.218,32.696 C8.975,45.935 5.461,56.713 5.461,56.713 C3.469,53.55 0.482,52.027 0.482,52.027 C1.888,54.604 1.595,59.759 1.068,62.863 C0.541,65.968 0.775,70.772 0.775,70.772 C3.411,97.572 23.914,92.154 23.914,92.154 C11.466,87.466 9.562,69.015 9.562,69.015 C10.075,69.015 14.249,71.651 14.249,71.651 C12.857,67.257 16.592,57.591 16.592,57.591 C19.888,78.387 24.501,78.094 24.501,78.094 C20.107,67.55 24.208,57.591 24.208,57.591 C26.991,66.451 30.358,69.307 30.358,69.307 C30.432,68.576 32.409,65.206 32.409,65.206 C35.338,58.763 33.581,44.118 33.581,44.118 C44.49,59.568 38.268,67.257 38.268,67.257 C42.294,67.111 45.59,57.884 45.59,57.884 C48.738,63.448 45.297,70.772 45.297,70.772 C47.568,70.698 49.69,68.136 49.69,68.136 C49.984,83.22 32.117,91.275 32.117,91.275 C40.025,95.522 49.69,90.689 49.69,90.689 C69.898,79.853 62.575,61.107 62.575,61.107 L62.575,61.107 Z M29.186,30.061 C28.391,25.584 31.236,24.203 31.236,24.203 C31.779,30.605 29.186,30.061 29.186,30.061 L29.186,30.061 Z" id="Shape"></path>
            </g>
        </g>
    </g>
</svg>