<?xml version="1.0" encoding="UTF-8" standalone="no"?>
<svg width="50px" height="66px" viewBox="0 0 50 66" version="1.1" xmlns="http://www.w3.org/2000/svg" xmlns:xlink="http://www.w3.org/1999/xlink">
    <!-- Generator: Sketch 3.8.1 (29687) - http://www.bohemiancoding.com/sketch -->
    <title>Slice 1</title>
    <desc>Created with Sketch.</desc>
    <defs></defs>
    <g id="Page-1" stroke="none" stroke-width="1" fill="none" fill-rule="evenodd">
        <g id="noun_214788_cc" fill="#000000">
            <g id="Group">
                <g id="Shape">
                    <path d="M26.5,8.057 L26.5,1.891 C26.5,1.062 25.828,0.391 25,0.391 C24.172,0.391 23.5,1.062 23.5,1.891 L23.5,8.057 C10.43,8.836 0.034,19.711 0.034,32.973 C0.034,46.234 10.43,57.109 23.5,57.888 L23.5,64.109 C23.5,64.938 24.172,65.609 25,65.609 C25.828,65.609 26.5,64.938 26.5,64.109 L26.5,57.888 C39.57,57.109 49.967,46.234 49.967,32.973 C49.966,19.711 39.57,8.836 26.5,8.057 L26.5,8.057 Z M25,54.937 C12.888,54.937 3.034,45.084 3.034,32.973 C3.034,20.862 12.888,11.008 25,11.008 C37.112,11.008 46.967,20.862 46.967,32.973 C46.966,45.084 37.112,54.937 25,54.937 L25,54.937 Z"></path>
                    <path d="M28.739,43.76 L28.738,43.76 L25,43.76 L21.262,43.76 L21.261,43.76 C20.859,43.76 20.486,43.964 20.268,44.3 C20.051,44.638 20.021,45.062 20.181,45.427 L23.036,51.647 C23.373,52.321 23.921,53.6 25,53.6 C26.079,53.6 26.626,52.321 26.963,51.647 L29.818,45.427 C29.979,45.062 29.948,44.639 29.731,44.3 C29.513,43.964 29.141,43.76 28.739,43.76 L28.739,43.76 Z M25.157,50.788 L25.094,50.915 C25.068,50.968 25.036,51.034 24.999,51.106 C24.963,51.034 24.93,50.968 24.904,50.915 L24.841,50.788 L22.533,45.76 L25,45.76 L27.465,45.76 L25.157,50.788 L25.157,50.788 Z"></path>
                    <path d="M26.963,14.211 C26.626,13.537 26.079,12.259 25,12.259 C23.921,12.259 23.374,13.538 23.037,14.211 L20.182,20.431 C20.021,20.796 20.052,21.219 20.269,21.558 C20.487,21.894 20.86,22.098 21.262,22.098 L21.263,22.098 L25,22.098 L28.738,22.098 L28.739,22.098 C29.141,22.098 29.514,21.894 29.732,21.558 C29.949,21.22 29.979,20.796 29.819,20.431 L26.963,14.211 L26.963,14.211 Z M25,20.098 L22.535,20.098 L24.842,15.07 L24.905,14.943 C24.931,14.89 24.963,14.824 25,14.752 C25.036,14.824 25.069,14.89 25.095,14.943 L25.158,15.07 L27.466,20.098 L25,20.098 L25,20.098 Z"></path>
                </g>
            </g>
        </g>
    </g>
</svg>