<?xml version="1.0" encoding="UTF-8" standalone="no"?>
<svg width="90px" height="82px" viewBox="0 0 90 82" version="1.1" xmlns="http://www.w3.org/2000/svg" xmlns:xlink="http://www.w3.org/1999/xlink">
    <!-- Generator: Sketch 3.8.2 (29753) - http://www.bohemiancoding.com/sketch -->
    <title>Shape</title>
    <desc>Created with Sketch.</desc>
    <defs></defs>
    <g id="Page-1" stroke="none" stroke-width="1" fill="none" fill-rule="evenodd">
        <g id="noun_42513" transform="translate(-5.000000, -9.000000)" fill="#FFFFFF">
            <path d="M63.449,58.067 L63.445,58.067 L60.42,58.067 C60.272,56.389 59.954,54.737 59.473,53.126 L62.286,52.009 C63.433,51.556 63.994,50.258 63.541,49.116 C62.01,45.242 59.741,41.788 56.794,38.838 C56.374,38.422 55.808,38.187 55.216,38.187 C55.216,38.187 55.216,38.187 55.214,38.187 C54.622,38.187 54.054,38.422 53.634,38.842 L51.498,40.981 C50.207,39.905 48.814,38.958 47.331,38.158 L48.53,35.376 C49.018,34.247 48.497,32.937 47.366,32.446 C43.549,30.794 39.502,29.953 35.34,29.953 C34.106,29.953 33.108,30.954 33.108,32.187 L33.108,35.22 C31.434,35.364 29.781,35.685 28.166,36.168 L27.051,33.353 C26.596,32.207 25.305,31.643 24.154,32.1 C20.284,33.629 16.83,35.896 13.888,38.838 C13.015,39.712 13.015,41.125 13.885,41.999 L16.027,44.138 C14.944,45.427 14,46.82 13.199,48.3 L10.422,47.105 C9.291,46.615 7.977,47.138 7.487,48.267 C5.838,52.083 5,56.13 5,60.297 C5,61.528 5.998,62.53 7.23,62.53 L10.254,62.53 C10.403,64.212 10.722,65.864 11.205,67.471 L8.392,68.587 C7.246,69.041 6.687,70.339 7.14,71.484 C8.668,75.345 10.938,78.803 13.886,81.746 C14.758,82.616 16.171,82.616 17.044,81.746 L19.18,79.607 C20.472,80.687 21.864,81.634 23.344,82.438 L22.147,85.211 C21.66,86.345 22.178,87.655 23.31,88.146 C27.123,89.798 31.164,90.635 35.325,90.635 L35.34,90.635 C36.574,90.631 37.573,89.634 37.573,88.402 L37.573,85.381 C39.253,85.229 40.908,84.911 42.513,84.43 L43.63,87.244 C44.082,88.39 45.375,88.954 46.524,88.497 C50.385,86.968 53.841,84.697 56.794,81.746 C57.668,80.873 57.668,79.459 56.794,78.585 L54.657,76.45 C55.735,75.165 56.678,73.767 57.478,72.288 L60.253,73.491 C61.383,73.973 62.699,73.459 63.19,72.329 C64.84,68.514 65.679,64.471 65.679,60.296 C65.679,59.702 65.444,59.138 65.026,58.717 C64.607,58.302 64.038,58.067 63.449,58.067 L63.449,58.067 Z M59.893,68.469 L57.292,67.344 C56.748,67.109 56.132,67.101 55.58,67.32 C55.031,67.534 54.589,67.966 54.355,68.51 C53.311,70.925 51.84,73.093 49.988,74.948 C49.117,75.818 49.117,77.231 49.99,78.1 L51.989,80.103 C50.43,81.414 48.736,82.531 46.921,83.433 L46.125,81.426 C46.108,81.199 46.056,80.969 45.966,80.746 C45.51,79.612 44.213,79.064 43.073,79.506 C43.067,79.51 43.06,79.514 43.052,79.514 C40.577,80.511 37.983,81.014 35.34,81.014 C34.106,81.014 33.108,82.016 33.108,83.247 L33.108,86.074 C31.084,85.905 29.097,85.493 27.17,84.846 L28.293,82.245 C28.529,81.701 28.538,81.087 28.319,80.539 C28.1,79.986 27.671,79.55 27.129,79.31 C24.715,78.268 22.55,76.8 20.693,74.942 C19.821,74.072 18.409,74.072 17.537,74.942 L15.533,76.945 C14.223,75.387 13.108,73.697 12.204,71.876 L14.217,71.076 C14.442,71.06 14.667,71.011 14.884,70.92 C16.029,70.463 16.578,69.148 16.119,68.006 C15.125,65.529 14.623,62.933 14.623,60.296 C14.623,59.067 13.624,58.067 12.391,58.067 L9.56,58.067 C9.734,56.039 10.144,54.052 10.787,52.124 L13.39,53.245 C13.934,53.48 14.548,53.488 15.1,53.274 C15.649,53.055 16.089,52.627 16.325,52.083 C17.365,49.672 18.835,47.508 20.692,45.645 C21.565,44.775 21.565,43.362 20.692,42.488 L18.69,40.49 C20.244,39.179 21.939,38.067 23.756,37.16 L24.522,39.089 C24.528,39.344 24.583,39.608 24.686,39.86 C25.148,41.002 26.445,41.554 27.591,41.096 C30.076,40.091 32.684,39.579 35.341,39.579 C36.572,39.579 37.574,38.582 37.574,37.35 L37.574,34.515 C39.597,34.692 41.584,35.1 43.511,35.743 L42.388,38.344 C41.9,39.477 42.419,40.792 43.55,41.279 C45.97,42.325 48.139,43.797 49.992,45.652 C50.41,46.068 50.977,46.303 51.57,46.303 L51.57,46.303 C52.163,46.303 52.731,46.068 53.15,45.648 L55.149,43.649 C56.46,45.203 57.574,46.9 58.478,48.718 L56.473,49.51 C56.246,49.531 56.018,49.584 55.795,49.671 C54.653,50.132 54.109,51.464 54.567,52.606 C55.555,55.079 56.056,57.667 56.056,60.3 C56.056,60.893 56.291,61.462 56.711,61.878 C57.129,62.298 57.696,62.533 58.289,62.533 L58.289,62.533 L61.119,62.533 C60.947,64.558 60.535,66.544 59.893,68.469 L59.893,68.469 Z M57.249,37.152 L59.532,35.355 C62.027,38.038 65.485,39.555 69.181,39.555 C69.486,39.555 69.801,39.542 70.146,39.513 L70.603,42.377 C70.69,42.925 71.164,43.317 71.704,43.317 C71.762,43.317 71.821,43.313 71.881,43.3 C74.775,42.842 77.515,41.647 79.807,39.838 C80.037,39.657 80.19,39.389 80.223,39.092 C80.26,38.8 80.175,38.503 79.992,38.272 L78.196,35.993 C80.879,33.492 82.397,30.034 82.397,26.337 C82.397,26.028 82.386,25.707 82.358,25.377 L85.218,24.919 C85.51,24.874 85.772,24.717 85.947,24.478 C86.12,24.235 86.194,23.934 86.144,23.645 C85.682,20.744 84.488,17.999 82.682,15.716 C82.303,15.23 81.603,15.148 81.117,15.527 L78.834,17.328 C76.336,14.641 72.879,13.12 69.182,13.12 C68.869,13.12 68.547,13.137 68.216,13.165 L67.762,10.305 C67.665,9.695 67.093,9.275 66.487,9.378 C63.586,9.836 60.841,11.035 58.553,12.84 C58.072,13.223 57.989,13.924 58.368,14.406 L60.165,16.689 C57.481,19.187 55.965,22.648 55.965,26.337 C55.965,26.65 55.978,26.972 56.006,27.305 L53.142,27.759 C52.535,27.858 52.121,28.426 52.217,29.036 C52.674,31.933 53.874,34.678 55.681,36.97 C56.062,37.453 56.765,37.535 57.249,37.152 L57.249,37.152 Z M57.279,29.367 C57.356,29.363 57.434,29.355 57.512,29.33 C58.076,29.194 58.437,28.645 58.346,28.069 C58.247,27.434 58.199,26.87 58.199,26.338 C58.199,22.963 59.725,19.818 62.394,17.713 C62.433,17.684 62.47,17.655 62.502,17.618 C62.919,17.202 62.933,16.535 62.542,16.094 C62.529,16.081 62.517,16.065 62.502,16.052 L60.838,13.938 C62.323,12.937 63.984,12.211 65.737,11.799 L66.16,14.474 C66.164,14.527 66.172,14.585 66.184,14.639 C66.308,15.22 66.86,15.599 67.454,15.509 C68.085,15.406 68.653,15.357 69.181,15.357 C72.563,15.357 75.705,16.886 77.803,19.556 C78.184,20.042 78.884,20.125 79.37,19.742 L81.587,18 C82.584,19.484 83.312,21.145 83.726,22.9 L80.944,23.333 C80.652,23.382 80.39,23.543 80.215,23.786 C80.042,24.025 79.97,24.318 80.016,24.61 C80.117,25.249 80.166,25.814 80.166,26.337 C80.166,29.642 78.7,32.725 76.024,34.925 C75.995,34.946 75.965,34.962 75.941,34.983 L75.945,34.991 C75.91,35.02 75.876,35.045 75.841,35.074 C75.422,35.491 75.418,36.15 75.81,36.595 C75.841,36.628 75.876,36.665 75.911,36.694 L77.525,38.742 C76.037,39.743 74.374,40.469 72.629,40.881 L72.184,38.104 L72.122,38.112 C72.031,37.572 71.479,37.172 70.925,37.172 C70.355,37.258 69.778,37.325 69.184,37.325 C65.78,37.325 62.621,35.771 60.519,33.072 C60.509,33.06 60.5,33.048 60.489,33.035 C60.487,33.031 60.484,33.031 60.487,33.031 L60.484,33.031 C60.097,32.577 59.421,32.508 58.952,32.874 C58.841,32.965 58.748,33.068 58.68,33.183 L56.781,34.683 C55.781,33.2 55.053,31.535 54.639,29.783 L57.279,29.367 L57.279,29.367 Z M94.012,53.386 L90.19,52.941 C90.18,50.518 89.224,48.21 87.485,46.491 C87.402,46.408 87.324,46.33 87.242,46.256 L89.485,43.141 C89.846,42.638 89.735,41.942 89.232,41.583 C87.283,40.174 84.996,39.288 82.622,39.016 C82.008,38.938 81.46,39.383 81.386,39.993 L80.941,43.822 C78.493,43.839 76.202,44.799 74.479,46.53 C74.405,46.608 74.327,46.686 74.256,46.769 L71.139,44.523 C70.898,44.35 70.597,44.276 70.308,44.325 C70.016,44.374 69.754,44.535 69.579,44.774 C68.17,46.732 67.284,49.019 67.016,51.389 C66.947,52.003 67.387,52.555 67.997,52.625 L71.823,53.065 C71.834,55.489 72.79,57.796 74.533,59.523 C74.609,59.601 74.689,59.675 74.772,59.75 L72.526,62.87 C72.165,63.369 72.278,64.065 72.777,64.428 C74.73,65.837 77.018,66.728 79.391,66.995 C79.437,67.004 79.478,67.004 79.519,67.004 C80.08,67.004 80.562,66.583 80.627,66.015 L81.068,62.186 C83.516,62.174 85.807,61.213 87.526,59.479 C87.604,59.401 87.678,59.322 87.753,59.244 L90.875,61.486 C91.375,61.848 92.072,61.733 92.431,61.235 C93.84,59.281 94.726,56.994 94.994,54.62 C95.063,54.008 94.624,53.455 94.012,53.386 L94.012,53.386 Z M91.23,58.99 L88.201,56.809 C87.698,56.447 87.004,56.562 86.643,57.061 C86.433,57.353 86.205,57.638 85.938,57.906 C84.438,59.423 82.316,60.165 80.185,59.905 C79.632,59.847 79.194,60.222 79.056,60.761 C79.045,60.807 79.037,60.848 79.033,60.898 L78.97,60.89 L78.541,64.595 C77.305,64.331 76.113,63.869 75.018,63.227 L77.054,60.4 C77.429,60.062 77.533,59.518 77.309,59.069 C77.229,58.908 77.095,58.756 76.951,58.649 C76.661,58.438 76.372,58.204 76.106,57.944 C74.573,56.423 73.843,54.317 74.107,52.162 C74.181,51.557 73.761,50.951 73.155,50.872 C72.978,50.848 72.803,50.864 72.644,50.914 L69.413,50.539 C69.673,49.307 70.137,48.112 70.782,47.019 L73.736,49.145 C73.856,49.244 73.998,49.322 74.157,49.368 C74.608,49.495 75.08,49.326 75.356,48.951 C75.57,48.659 75.801,48.37 76.065,48.098 C77.565,46.594 79.691,45.852 81.805,46.099 L81.81,46.099 L81.814,46.099 C81.917,46.111 82.016,46.107 82.115,46.091 C82.659,46.005 83.054,45.534 83.053,44.982 L83.469,41.413 C84.703,41.677 85.895,42.139 86.99,42.781 L84.814,45.806 L84.88,45.856 C84.567,46.297 84.667,46.964 85.057,47.36 L85.061,47.36 C85.354,47.574 85.638,47.797 85.906,48.069 C87.427,49.577 88.157,51.663 87.909,53.802 C87.84,54.416 88.278,54.972 88.89,55.038 L92.597,55.471 C92.335,56.707 91.873,57.894 91.23,58.99 L91.23,58.99 Z" id="Shape"></path>
        </g>
    </g>
</svg>