<?xml version="1.0" encoding="UTF-8" standalone="no"?>
<svg width="64px" height="55px" viewBox="0 0 64 55" version="1.1" xmlns="http://www.w3.org/2000/svg" xmlns:xlink="http://www.w3.org/1999/xlink">
    <!-- Generator: Sketch 3.8.1 (29687) - http://www.bohemiancoding.com/sketch -->
    <title>noun_212406_cc</title>
    <desc>Created with Sketch.</desc>
    <defs></defs>
    <g id="Page-1" stroke="none" stroke-width="1" fill="none" fill-rule="evenodd">
        <g id="noun_212406_cc" transform="translate(0.000000, -1.000000)" fill="#ffffff">
            <g id="Group">
                <path d="M51.4375,17.3438 L51.8125,20.9688 C56.9145,24.343 60.0312,28.9659 60.0312,33.9375 C60.0312,43.8077 47.8444,52.3438 31.9375,52.3438 C16.0306,52.3438 3.8438,43.8077 3.8438,33.9375 C3.8438,29.0836 6.8311,24.5708 11.7188,21.2188 L11.5,17.875 C4.9943,21.8022 0.8438,27.5133 0.8438,33.9375 C0.8438,45.7398 14.5552,55.3438 31.9375,55.3438 C49.3198,55.3438 63.0312,45.7398 63.0312,33.9375 C63.0312,27.2128 58.483,21.2712 51.4375,17.3438 L51.4375,17.3438 Z" id="Shape"></path>
                <path d="M31.5072,1.0312 L11.476,7.8438 C10.9104,8.0347 10.5489,8.5013 10.476,9.0938 L8.7572,22.875 C8.7522,22.9159 8.8217,22.9283 8.8197,22.9688 C8.8142,23.039 8.7532,23.1153 8.7572,23.1875 C8.7572,23.1875 9.6277,37.9135 9.6635,38.0312 C10.4784,36.989 12.0072,25.25 12.0072,25.25 L30.351,31.375 L32.2367,46.6664 L33.476,31.4062 L51.9447,25.1562 C51.9447,25.1562 53.1146,37.8637 53.6322,39.0312 L53.6947,39 C54.3114,38.7918 55.101,23.125 55.101,23.125 C55.1029,23.054 55.077,23.0063 55.0697,22.9375 C55.0685,22.897 55.1053,22.8848 55.101,22.8438 L53.6635,9.0625 C53.5995,8.4571 53.2098,7.9424 52.6322,7.75 C50.1228,6.914 35.0479,1.8672 32.5385,1.0312 C32.2179,0.9244 31.8274,0.9232 31.5072,1.0312 L31.5072,1.0312 Z M32.0697,4.1562 C34.9502,5.1158 47.3411,9.289 50.6947,10.4062 L51.6947,19.9375 L51.9135,21.9062 L31.9447,28.6562 L11.976,22 L13.4135,10.4688 L32.0697,4.1562 L32.0697,4.1562 Z" id="Shape"></path>
                <path d="M31.9397,7.5423 C23.663,7.5423 16.4066,11.0102 16.4066,16.3338 C16.4066,21.6574 23.663,25.1253 31.9397,25.1253 C40.2117,25.1253 47.4516,21.6582 47.4516,16.3338 C47.4516,11.0094 40.2117,7.5423 31.9397,7.5423 L31.9397,7.5423 Z M31.9397,9.9092 C39.0656,9.9092 45.0847,12.7924 45.0847,16.3338 C45.0847,16.4285 45.0298,16.5148 45.0213,16.6085 C43.0157,13.5781 37.8257,11.6633 32.0031,11.6633 C26.0609,11.6633 20.797,13.6623 18.8793,16.7987 C18.855,16.6416 18.7736,16.4938 18.7736,16.3338 C18.7736,12.7945 24.8095,9.9092 31.9397,9.9092 L31.9397,9.9092 Z M32.0031,13.0158 C38.0972,13.0158 43.3443,15.248 44.3662,18.2992 C44.1176,18.6666 43.8109,19.0207 43.4363,19.3559 C42.3126,16.1965 37.4239,14.1782 31.8974,14.1782 C26.4049,14.1782 21.5285,16.17 20.3586,19.2925 C20.0595,19.0187 19.7929,18.7423 19.5767,18.4471 C20.478,15.3218 25.8077,13.0158 32.0031,13.0158 L32.0031,13.0158 Z M31.8974,15.5307 C37.2196,15.5307 41.723,17.5776 42.2317,20.2646 C41.8723,20.488 41.5053,20.7001 41.0905,20.8986 C40.1844,18.3503 36.2785,16.7353 31.8974,16.7353 C27.5238,16.7353 23.6213,18.3393 22.7044,20.8775 C22.2793,20.6721 21.9081,20.4539 21.5421,20.2223 C22.0912,17.5568 26.5993,15.5307 31.8974,15.5307 L31.8974,15.5307 Z M31.8974,18.0879 C35.786,18.0879 38.9839,19.5256 39.6534,21.3847 C37.4454,22.1969 34.8539,22.7584 31.9397,22.7584 C28.9967,22.7584 26.3641,22.1897 24.1415,21.3635 C24.8259,19.5142 28.0193,18.0879 31.8974,18.0879 L31.8974,18.0879 Z" id="Shape"></path>
                <path d="M11.325,38.9837 C11.325,38.9837 14.5875,41.513 19.1173,43.1558 C23.647,44.7985 29.444,45.5547 29.444,45.5547 C29.444,45.5547 23.2732,45.7081 18.7434,44.0654 C14.2137,42.4226 11.325,38.9837 11.325,38.9837 L11.325,38.9837 Z" id="Shape"></path>
                <path d="M52.661,39.4058 C52.661,39.4058 49.3984,41.9351 44.8687,43.5779 C40.3389,45.2207 34.542,45.9769 34.542,45.9769 C34.542,45.9769 40.7128,46.1303 45.2425,44.4875 C49.7723,42.8447 52.661,39.4058 52.661,39.4058 L52.661,39.4058 Z" id="Shape"></path>
            </g>
        </g>
    </g>
</svg>