<?xml version="1.0" encoding="UTF-8" standalone="no"?>
<svg width="95px" height="95px" viewBox="0 0 95 95" version="1.1" xmlns="http://www.w3.org/2000/svg" xmlns:xlink="http://www.w3.org/1999/xlink">
    <!-- Generator: Sketch 3.8.1 (29687) - http://www.bohemiancoding.com/sketch -->
    <title>Slice 1</title>
    <desc>Created with Sketch.</desc>
    <defs></defs>
    <g id="Page-1" stroke="none" stroke-width="1" fill="none" fill-rule="evenodd">
        <g id="noun_89484_cc" fill="#000000">
            <g id="Group">
                <path d="M42.68,70.317 C41.829,70.107 41.492,69.315 41.931,68.556 L43.155,66.435 C43.593,65.679 44.309,64.437 44.747,63.679 L46.58,60.504 C47.018,59.745 47.734,59.745 48.172,60.504 L50.005,63.679 C50.443,64.437 51.158,65.679 51.596,66.435 L52.821,68.556 C53.259,69.315 52.922,70.107 52.072,70.317 C52.072,70.317 49.557,70.935 47.377,70.935 C45.197,70.935 42.68,70.317 42.68,70.317 L42.68,70.317 Z M47.375,23.843 C45.194,23.843 42.68,24.463 42.68,24.463 C41.829,24.672 41.492,25.464 41.931,26.222 L43.155,28.342 C43.593,29.101 44.309,30.342 44.747,31.1 L46.58,34.274 C47.018,35.033 47.734,35.033 48.172,34.274 L50.005,31.1 C50.443,30.341 51.158,29.1 51.596,28.342 L52.821,26.222 C53.259,25.464 52.922,24.672 52.072,24.463 C52.07,24.463 49.556,23.843 47.375,23.843 L47.375,23.843 Z M23.83,47.39 C23.83,49.569 24.449,52.084 24.449,52.084 C24.658,52.936 25.45,53.272 26.208,52.835 L28.329,51.611 C29.088,51.173 30.328,50.456 31.087,50.018 L34.261,48.186 C35.02,47.747 35.02,47.031 34.261,46.594 L31.087,44.761 C30.328,44.323 29.088,43.607 28.329,43.169 L26.208,41.944 C25.45,41.506 24.658,41.844 24.449,42.694 C24.449,42.695 23.83,45.209 23.83,47.39 L23.83,47.39 Z M70.921,47.39 C70.921,45.209 70.302,42.695 70.302,42.695 C70.093,41.845 69.302,41.507 68.543,41.945 L66.422,43.17 C65.663,43.608 64.423,44.324 63.665,44.762 L60.49,46.595 C59.732,47.033 59.732,47.748 60.49,48.187 L63.665,50.019 C64.423,50.457 65.663,51.173 66.422,51.612 L68.543,52.836 C69.302,53.274 70.093,52.937 70.302,52.085 C70.302,52.084 70.921,49.569 70.921,47.39 L70.921,47.39 Z M30.726,64.039 C32.268,65.58 34.484,66.921 34.484,66.921 C35.234,67.374 36.032,67.053 36.258,66.207 L36.892,63.842 C37.119,62.995 37.49,61.613 37.716,60.767 L38.664,57.228 C38.891,56.381 38.384,55.875 37.539,56.101 L33.998,57.05 C33.152,57.276 31.769,57.647 30.923,57.874 L28.558,58.507 C27.713,58.734 27.391,59.533 27.845,60.281 C27.844,60.281 29.184,62.497 30.726,64.039 L30.726,64.039 Z M64.024,30.74 C62.483,29.199 60.267,27.858 60.267,27.858 C59.517,27.405 58.718,27.726 58.492,28.572 L57.858,30.937 C57.631,31.783 57.261,33.167 57.035,34.013 L56.087,37.553 C55.859,38.4 56.366,38.906 57.211,38.679 L60.752,37.73 C61.598,37.503 62.982,37.132 63.827,36.906 L66.191,36.272 C67.038,36.046 67.359,35.248 66.906,34.499 C66.906,34.499 65.566,32.282 64.024,30.74 L64.024,30.74 Z M30.726,30.74 C29.184,32.282 27.844,34.499 27.844,34.499 C27.39,35.249 27.712,36.046 28.557,36.272 L30.922,36.906 C31.768,37.132 33.151,37.503 33.997,37.73 L37.538,38.679 C38.383,38.906 38.89,38.399 38.663,37.553 L37.715,34.013 C37.489,33.167 37.117,31.783 36.891,30.937 L36.257,28.572 C36.031,27.726 35.233,27.405 34.483,27.858 C34.483,27.858 32.267,29.199 30.726,30.74 L30.726,30.74 Z M64.024,64.039 C65.566,62.497 66.906,60.281 66.906,60.281 C67.359,59.533 67.038,58.733 66.191,58.507 L63.827,57.874 C62.982,57.646 61.598,57.275 60.752,57.05 L57.211,56.101 C56.366,55.875 55.859,56.381 56.087,57.227 L57.035,60.767 C57.262,61.613 57.632,62.996 57.858,63.842 L58.492,66.207 C58.719,67.053 59.517,67.374 60.267,66.921 C60.268,66.921 62.483,65.58 64.024,64.039 L64.024,64.039 Z M47.375,39.868 C43.221,39.868 39.853,43.236 39.853,47.39 C39.853,51.545 43.221,54.911 47.375,54.911 C51.529,54.911 54.897,51.545 54.897,47.39 C54.897,43.236 51.529,39.868 47.375,39.868 L47.375,39.868 Z M94.418,49.872 C94.564,50.39 94.618,50.938 94.57,51.504 C94.52,52.07 94.369,52.603 94.137,53.085 L93.407,53.021 C93.374,53.293 93.337,53.565 93.3,53.836 L94.022,53.962 C94.121,54.49 94.129,55.043 94.031,55.603 C93.933,56.162 93.737,56.679 93.463,57.139 L92.747,57.012 C92.69,57.282 92.634,57.55 92.571,57.816 L93.27,58.004 C93.323,58.538 93.284,59.089 93.137,59.638 C92.989,60.187 92.75,60.684 92.435,61.118 L91.738,60.93 C91.658,61.194 91.574,61.454 91.491,61.716 L92.169,61.962 C92.176,62.499 92.089,63.045 91.896,63.577 C91.7,64.113 91.417,64.587 91.068,64.992 L90.388,64.745 C90.286,65.001 90.183,65.255 90.076,65.508 L90.727,65.812 C90.686,66.346 90.552,66.883 90.312,67.397 C90.073,67.913 89.749,68.36 89.365,68.734 L88.711,68.428 C88.586,68.673 88.458,68.915 88.33,69.157 L88.955,69.52 C88.869,70.048 88.687,70.571 88.404,71.062 C88.121,71.555 87.758,71.972 87.344,72.312 L86.714,71.949 C86.568,72.18 86.422,72.413 86.272,72.642 L86.868,73.059 C86.736,73.579 86.51,74.082 86.183,74.547 C85.857,75.014 85.46,75.398 85.017,75.7 L84.422,75.281 C84.257,75.502 84.09,75.719 83.921,75.935 L84.478,76.402 C84.301,76.909 84.033,77.391 83.667,77.826 C83.302,78.262 82.872,78.61 82.405,78.872 L81.846,78.404 C81.663,78.607 81.478,78.808 81.29,79.008 L81.806,79.524 C81.585,80.013 81.275,80.471 80.873,80.874 C80.472,81.275 80.014,81.585 79.525,81.805 L79.01,81.29 C78.809,81.478 78.608,81.664 78.405,81.847 L78.872,82.404 C78.61,82.872 78.262,83.3 77.827,83.667 C77.391,84.032 76.909,84.302 76.402,84.477 L75.937,83.923 C75.721,84.092 75.502,84.259 75.283,84.424 L75.7,85.017 C75.398,85.461 75.012,85.858 74.547,86.183 C74.082,86.51 73.578,86.736 73.059,86.868 L72.644,86.276 C72.415,86.425 72.183,86.572 71.952,86.718 L72.311,87.343 C71.973,87.757 71.554,88.12 71.062,88.404 C70.571,88.687 70.047,88.869 69.52,88.956 L69.161,88.335 C68.918,88.464 68.677,88.593 68.432,88.716 L68.734,89.365 C68.361,89.748 67.912,90.072 67.398,90.312 C66.883,90.552 66.346,90.686 65.812,90.726 L65.51,90.081 C65.258,90.187 65.004,90.291 64.748,90.394 L64.992,91.066 C64.587,91.415 64.113,91.698 63.577,91.893 C63.045,92.087 62.499,92.175 61.963,92.168 L61.719,91.497 C61.457,91.582 61.197,91.665 60.933,91.745 L61.118,92.433 C60.683,92.747 60.185,92.988 59.638,93.135 C59.089,93.281 58.537,93.321 58.004,93.269 L57.82,92.58 C57.551,92.642 57.284,92.698 57.015,92.756 L57.139,93.461 C56.678,93.734 56.16,93.932 55.603,94.029 C55.043,94.129 54.49,94.119 53.962,94.02 L53.838,93.311 C53.565,93.348 53.296,93.384 53.022,93.417 L53.085,94.135 C52.602,94.366 52.069,94.518 51.503,94.569 C50.939,94.618 50.389,94.563 49.872,94.417 L49.809,93.698 C49.537,93.712 49.262,93.721 48.987,93.73 L48.987,94.456 C48.487,94.644 47.944,94.75 47.376,94.75 C46.808,94.75 46.265,94.645 45.764,94.456 L45.764,93.73 C45.49,93.721 45.215,93.711 44.942,93.698 L44.88,94.417 C44.363,94.563 43.813,94.618 43.248,94.569 C42.682,94.518 42.15,94.367 41.666,94.136 L41.729,93.417 C41.457,93.384 41.185,93.348 40.914,93.311 L40.789,94.02 C40.263,94.119 39.709,94.128 39.151,94.029 C38.592,93.931 38.075,93.734 37.614,93.461 L37.738,92.756 C37.469,92.698 37.2,92.642 36.933,92.58 L36.749,93.269 C36.216,93.321 35.664,93.282 35.115,93.134 C34.567,92.988 34.07,92.747 33.634,92.433 L33.819,91.745 C33.556,91.665 33.294,91.582 33.034,91.497 L32.79,92.168 C32.253,92.175 31.707,92.087 31.173,91.893 C30.641,91.698 30.166,91.414 29.758,91.067 L30.003,90.394 C29.748,90.29 29.494,90.187 29.242,90.081 L28.941,90.726 C28.406,90.686 27.87,90.552 27.355,90.312 C26.84,90.072 26.392,89.748 26.017,89.365 L26.319,88.716 C26.075,88.593 25.833,88.464 25.59,88.335 L25.232,88.956 C24.703,88.869 24.18,88.687 23.688,88.404 C23.196,88.121 22.778,87.758 22.438,87.343 L22.8,86.718 C22.567,86.572 22.336,86.425 22.106,86.276 L21.692,86.868 C21.173,86.736 20.669,86.511 20.202,86.183 C19.738,85.858 19.353,85.461 19.05,85.017 L19.466,84.424 C19.248,84.259 19.029,84.093 18.814,83.923 L18.348,84.478 C17.842,84.302 17.359,84.033 16.923,83.666 C16.489,83.301 16.14,82.872 15.877,82.405 L16.345,81.847 C16.141,81.664 15.94,81.478 15.74,81.29 L15.224,81.805 C14.736,81.585 14.278,81.276 13.876,80.874 C13.475,80.472 13.164,80.014 12.943,79.525 L13.46,79.008 C13.272,78.809 13.087,78.607 12.903,78.404 L12.345,78.872 C11.877,78.61 11.449,78.262 11.083,77.826 C10.718,77.391 10.449,76.909 10.271,76.403 L10.829,75.935 C10.66,75.718 10.494,75.501 10.329,75.281 L9.733,75.7 C9.29,75.397 8.893,75.012 8.566,74.547 C8.241,74.082 8.015,73.578 7.882,73.059 L8.477,72.642 C8.328,72.413 8.181,72.181 8.035,71.949 L7.407,72.312 C6.992,71.972 6.63,71.555 6.346,71.062 C6.062,70.571 5.881,70.048 5.794,69.52 L6.421,69.157 C6.292,68.915 6.164,68.673 6.039,68.428 L5.385,68.733 C5.001,68.359 4.677,67.912 4.437,67.396 C4.198,66.882 4.062,66.345 4.022,65.811 L4.675,65.507 C4.568,65.254 4.465,65 4.362,64.744 L3.684,64.992 C3.334,64.586 3.05,64.111 2.855,63.576 C2.662,63.044 2.573,62.498 2.58,61.962 L3.26,61.715 C3.176,61.453 3.093,61.193 3.012,60.929 L2.313,61.117 C2.001,60.682 1.759,60.185 1.612,59.637 C1.466,59.088 1.425,58.537 1.479,58.003 L2.178,57.815 C2.116,57.549 2.06,57.281 2.003,57.012 L1.289,57.14 C1.016,56.679 0.819,56.161 0.72,55.603 C0.622,55.043 0.63,54.491 0.729,53.962 L1.451,53.835 C1.413,53.564 1.377,53.294 1.344,53.021 L0.615,53.085 C0.38,52.603 0.229,52.07 0.18,51.504 C0.131,50.939 0.187,50.39 0.332,49.872 L1.065,49.808 C1.051,49.536 1.042,49.262 1.033,48.988 L0.294,48.988 C0.104,48.486 0,47.943 0,47.375 C0,46.807 0.104,46.264 0.293,45.763 L1.034,45.763 C1.043,45.489 1.052,45.215 1.066,44.943 L0.332,44.879 C0.187,44.362 0.13,43.812 0.18,43.247 C0.23,42.681 0.381,42.149 0.614,41.665 L1.347,41.729 C1.38,41.457 1.417,41.186 1.455,40.916 L0.729,40.787 C0.629,40.261 0.621,39.707 0.719,39.149 C0.818,38.589 1.015,38.072 1.288,37.611 L2.01,37.738 C2.068,37.469 2.124,37.201 2.186,36.935 L1.48,36.747 C1.427,36.213 1.467,35.662 1.613,35.114 C1.76,34.566 2.002,34.068 2.314,33.632 L3.021,33.822 C3.101,33.559 3.185,33.298 3.269,33.037 L2.581,32.787 C2.574,32.25 2.662,31.704 2.856,31.171 C3.05,30.638 3.335,30.163 3.684,29.756 L4.372,30.007 C4.475,29.753 4.579,29.5 4.685,29.247 L4.022,28.938 C4.062,28.402 4.197,27.867 4.437,27.353 C4.678,26.837 5.001,26.39 5.385,26.015 L6.051,26.326 C6.176,26.081 6.304,25.841 6.433,25.599 L5.794,25.231 C5.88,24.701 6.061,24.179 6.345,23.687 C6.629,23.195 6.991,22.777 7.406,22.438 L8.048,22.809 C8.194,22.576 8.341,22.346 8.49,22.117 L7.883,21.692 C8.015,21.173 8.24,20.668 8.566,20.202 C8.892,19.738 9.289,19.353 9.732,19.05 L10.343,19.477 C10.507,19.26 10.673,19.042 10.842,18.826 L10.272,18.347 C10.449,17.841 10.718,17.358 11.084,16.923 C11.449,16.488 11.878,16.14 12.346,15.877 L12.919,16.357 C13.102,16.155 13.288,15.954 13.474,15.754 L12.945,15.223 C13.165,14.735 13.475,14.277 13.877,13.875 C14.278,13.473 14.737,13.163 15.225,12.942 L15.756,13.472 C15.956,13.286 16.156,13.1 16.36,12.917 L15.879,12.344 C16.141,11.876 16.49,11.447 16.924,11.082 C17.36,10.717 17.842,10.447 18.349,10.27 L18.828,10.842 C19.044,10.675 19.261,10.509 19.479,10.343 L19.05,9.73 C19.353,9.287 19.737,8.89 20.202,8.564 C20.668,8.238 21.173,8.013 21.692,7.88 L22.12,8.492 C22.349,8.342 22.58,8.196 22.812,8.051 L22.439,7.405 C22.779,6.99 23.196,6.628 23.689,6.344 C24.181,6.06 24.703,5.879 25.232,5.793 L25.604,6.437 C25.845,6.308 26.087,6.18 26.331,6.055 L26.018,5.384 C26.393,5 26.84,4.676 27.355,4.436 C27.869,4.197 28.406,4.062 28.94,4.021 L29.253,4.691 C29.504,4.585 29.758,4.482 30.012,4.379 L29.759,3.683 C30.165,3.333 30.64,3.048 31.174,2.855 C31.707,2.661 32.253,2.573 32.79,2.579 L33.043,3.277 C33.303,3.192 33.564,3.11 33.826,3.029 L33.635,2.313 C34.07,2 34.568,1.759 35.116,1.612 C35.665,1.466 36.217,1.425 36.75,1.479 L36.942,2.194 C37.208,2.132 37.476,2.077 37.744,2.02 L37.615,1.287 C38.075,1.014 38.592,0.816 39.152,0.717 C39.711,0.619 40.264,0.627 40.79,0.727 L40.92,1.465 C41.191,1.428 41.461,1.391 41.733,1.358 L41.668,0.612 C42.152,0.379 42.684,0.227 43.25,0.178 C43.814,0.128 44.365,0.185 44.881,0.33 L44.947,1.078 C45.218,1.064 45.493,1.054 45.766,1.046 L45.766,0.293 C46.264,0.104 46.807,0 47.375,0 C47.943,0 48.486,0.104 48.986,0.293 L48.986,1.048 C49.26,1.056 49.535,1.066 49.807,1.08 L49.871,0.332 C50.388,0.186 50.937,0.13 51.502,0.18 C52.069,0.229 52.602,0.38 53.084,0.614 L53.02,1.359 C53.292,1.392 53.563,1.429 53.833,1.466 L53.963,0.728 C54.491,0.629 55.044,0.621 55.604,0.719 C56.163,0.818 56.68,1.014 57.14,1.288 L57.01,2.022 C57.277,2.079 57.546,2.135 57.812,2.196 L58.003,1.481 C58.536,1.427 59.088,1.468 59.637,1.614 C60.186,1.761 60.684,2.002 61.117,2.315 L60.927,3.031 C61.19,3.112 61.449,3.194 61.708,3.279 L61.962,2.582 C62.499,2.575 63.046,2.663 63.577,2.857 C64.113,3.051 64.588,3.335 64.992,3.685 L64.739,4.381 C64.993,4.483 65.248,4.586 65.498,4.693 L65.811,4.023 C66.346,4.064 66.882,4.199 67.397,4.439 C67.912,4.68 68.36,5.002 68.733,5.386 L68.42,6.058 C68.665,6.183 68.905,6.311 69.147,6.44 L69.519,5.796 C70.048,5.882 70.571,6.064 71.062,6.347 C71.555,6.632 71.973,6.993 72.311,7.408 L71.938,8.054 C72.17,8.199 72.401,8.346 72.63,8.495 L73.059,7.884 C73.579,8.016 74.082,8.242 74.547,8.567 C75.013,8.893 75.399,9.289 75.7,9.733 L75.27,10.346 C75.489,10.511 75.707,10.676 75.921,10.845 L76.401,10.273 C76.908,10.45 77.39,10.719 77.826,11.085 C78.261,11.45 78.61,11.878 78.871,12.346 L78.39,12.92 C78.594,13.103 78.794,13.289 78.994,13.475 L79.524,12.945 C80.012,13.165 80.47,13.477 80.872,13.878 C81.274,14.279 81.584,14.736 81.805,15.225 L81.275,15.757 C81.462,15.956 81.646,16.157 81.831,16.36 L82.403,15.88 C82.871,16.143 83.3,16.492 83.666,16.926 C84.031,17.362 84.301,17.843 84.477,18.35 L83.907,18.829 C84.075,19.045 84.241,19.263 84.407,19.48 L85.016,19.053 C85.459,19.356 85.856,19.741 86.182,20.205 C86.509,20.671 86.735,21.174 86.867,21.695 L86.258,22.12 C86.408,22.349 86.555,22.579 86.7,22.812 L87.343,22.441 C87.757,22.781 88.119,23.198 88.404,23.69 C88.687,24.183 88.87,24.704 88.956,25.233 L88.316,25.602 C88.447,25.844 88.575,26.084 88.7,26.329 L89.364,26.018 C89.748,26.393 90.071,26.841 90.312,27.356 C90.552,27.871 90.688,28.406 90.727,28.94 L90.064,29.25 C90.172,29.502 90.274,29.756 90.377,30.01 L91.067,29.759 C91.416,30.166 91.698,30.641 91.895,31.174 C92.088,31.707 92.176,32.254 92.169,32.789 L91.481,33.04 C91.566,33.301 91.649,33.561 91.729,33.824 L92.435,33.635 C92.749,34.071 92.989,34.569 93.137,35.117 C93.283,35.665 93.324,36.216 93.271,36.75 L92.565,36.939 C92.627,37.205 92.683,37.474 92.739,37.742 L93.463,37.615 C93.736,38.076 93.933,38.593 94.031,39.153 C94.132,39.712 94.121,40.264 94.022,40.791 L93.295,40.92 C93.333,41.19 93.369,41.462 93.403,41.733 L94.137,41.669 C94.368,42.153 94.519,42.685 94.57,43.251 C94.619,43.816 94.564,44.366 94.419,44.882 L93.684,44.946 C93.698,45.218 93.707,45.493 93.716,45.767 L94.457,45.767 C94.645,46.268 94.75,46.811 94.75,47.38 C94.751,47.947 94.646,48.49 94.457,48.99 L93.718,48.99 C93.708,49.265 93.7,49.539 93.686,49.811 L94.418,49.872 L94.418,49.872 Z M19.198,47.39 C19.198,62.951 31.813,75.566 47.375,75.566 C62.937,75.566 75.553,62.951 75.553,47.39 C75.553,31.827 62.937,19.212 47.375,19.212 C31.813,19.212 19.198,31.828 19.198,47.39 L19.198,47.39 Z" id="Shape"></path>
            </g>
        </g>
    </g>
</svg>