<?xml version="1.0" encoding="UTF-8" standalone="no"?>
<svg width="81px" height="80px" viewBox="0 0 81 80" version="1.1" xmlns="http://www.w3.org/2000/svg" xmlns:xlink="http://www.w3.org/1999/xlink">
    <!-- Generator: Sketch 3.8.1 (29687) - http://www.bohemiancoding.com/sketch -->
    <title>Slice 1</title>
    <desc>Created with Sketch.</desc>
    <defs></defs>
    <g id="Page-1" stroke="none" stroke-width="1" fill="none" fill-rule="evenodd">
        <g id="noun_94222_cc" fill="#000000">
            <g id="Group">
                <path d="M40.563,79.661 C18.717,79.661 0.949,61.874 0.949,40.047 C0.949,18.191 18.718,0.418 40.563,0.418 C62.404,0.418 80.188,18.191 80.188,40.047 C80.188,61.874 62.404,79.661 40.563,79.661 M40.563,7.272 C22.514,7.272 7.813,21.983 7.813,40.047 C7.813,58.095 22.514,72.782 40.563,72.782 C58.623,72.782 73.309,58.095 73.309,40.047 C73.31,21.984 58.623,7.272 40.563,7.272" id="Shape"></path>
                <path id="Shape"></path>
                <path id="Shape"></path>
                <path d="M63.53,36.369 C63.541,36.351 63.555,36.079 63.555,36.079 C63.555,31.727 59.992,28.135 55.608,28.135 C51.266,28.135 47.685,31.637 47.621,35.949 L47.6,36.427 L47.6,36.642 L47.6,36.89 L47.6,36.962 L47.546,43.192 L47.546,43.844 C47.546,44.941 46.664,45.823 45.567,45.823 C44.875,45.823 44.244,45.471 43.879,44.854 C43.692,44.532 43.592,44.188 43.592,43.844 L43.592,43.192 L43.521,36.962 L43.521,36.89 L43.521,36.675 L43.521,36.489 L43.521,36.08 C43.521,31.728 39.944,28.136 35.545,28.136 C31.139,28.136 27.566,31.728 27.566,36.166 L27.566,36.353 L27.566,36.267 L27.551,36.576 L27.566,36.644 L27.566,36.92 L27.566,36.963 L27.48,43.279 L27.48,43.845 C27.48,44.942 26.569,45.824 25.487,45.824 C24.795,45.824 24.175,45.472 23.799,44.855 C23.612,44.533 23.512,44.189 23.512,43.845 L23.512,36.618 L23.512,34.266 C23.512,33.728 23.366,33.198 23.078,32.706 C22.529,31.796 21.591,31.262 20.529,31.262 C18.891,31.262 17.572,32.606 17.572,34.266 L17.572,43.034 L17.572,43.5 L17.572,43.568 L17.572,43.973 C17.572,48.361 21.121,51.92 25.487,51.92 C29.745,51.92 33.319,48.518 33.506,44.346 C33.506,44.317 33.538,43.715 33.538,43.715 L33.527,43.435 L33.527,43.252 L33.527,43.091 L33.552,36.208 C33.552,35.144 34.448,34.233 35.545,34.233 C36.236,34.233 36.854,34.609 37.215,35.201 C37.42,35.52 37.52,35.864 37.52,36.208 L37.52,36.832 L37.592,43.063 L37.592,43.177 L37.592,43.381 L37.592,43.553 L37.592,43.915 L37.592,43.814 L37.592,43.972 C37.592,48.36 41.165,51.919 45.568,51.919 C49.988,51.919 53.562,48.359 53.562,43.972 L53.562,43.567 L53.562,43.434 L53.562,43.09 L53.633,36.831 L53.633,36.207 C53.633,35.143 54.526,34.232 55.609,34.232 C56.318,34.232 56.938,34.608 57.307,35.2 C57.501,35.519 57.602,35.863 57.602,36.207 L57.602,36.917 L57.616,43.062 L57.616,45.79 C57.616,46.352 57.774,46.887 58.047,47.35 C58.599,48.253 59.549,48.79 60.599,48.79 C62.248,48.79 63.589,47.449 63.589,45.79 L63.589,37.018 C63.588,37.018 63.541,36.488 63.53,36.369 L63.53,36.369 Z" id="Shape"></path>
            </g>
        </g>
    </g>
</svg>