<?xml version="1.0" encoding="UTF-8" standalone="no"?>
<svg width="58px" height="80px" viewBox="0 0 58 80" version="1.1" xmlns="http://www.w3.org/2000/svg" xmlns:xlink="http://www.w3.org/1999/xlink">
    <!-- Generator: Sketch 3.8.1 (29687) - http://www.bohemiancoding.com/sketch -->
    <title>Slice 1</title>
    <desc>Created with Sketch.</desc>
    <defs></defs>
    <g id="Page-1" stroke="none" stroke-width="1" fill="none" fill-rule="evenodd">
        <g id="noun_168027_cc" fill="#000000">
            <g id="Group">
                <path d="M20.773955,0.93749982 L20.573955,1.6874999 C20.210163,3.0483719 20.039427,4.5267959 20.148955,5.8374999 C15.791483,8.4524989 10.756211,12.196566 7.073954,16.2875 L7.023954,16.2875 C5.410234,18.041032 4.716346,20.094868 4.148954,22.0125 C4.145754,22.0217 4.152154,22.02835 4.148954,22.0375 C-0.886166,37.31786 -1.6964544,59.649502 6.198954,74.7875 L6.373954,75.1125 L6.773954,75.1875 C13.658275,76.4159 20.415347,78.54257 26.973955,79.0375 C27.015635,79.0405 27.057255,79.0595 27.098955,79.0625 L27.098955,79.0125 C27.555379,79.0688 28.016291,79.0105 28.348955,78.8375 C28.715443,78.64724 28.983403,78.41225 29.223955,78.2125 C29.697323,77.81944 30.059683,77.54266 30.823955,77.5125 C30.841235,77.51298 30.832155,77.51196 30.848915,77.5125 C31.628947,77.5378 31.936427,77.62382 32.248915,77.7625 C32.574883,77.90716 33.028971,78.15473 33.873915,78.3625 L33.923915,78.4125 L33.998875,78.4125 C40.832331,79.02535 47.400387,76.92665 53.048875,74.5125 L53.248875,74.4125 L53.398875,74.2125 C56.625147,69.52013 58.007203,60.17191 57.623875,49.3625 C57.240547,38.553091 55.005563,26.35745 50.473875,16.1875 L50.473875,16.1625 C49.774843,14.670515 49.164091,13.534304 48.348875,12.7125 L48.323915,12.6875 L48.273915,12.6625 C44.100675,9.2217879 39.839755,7.2075709 34.948915,5.4624999 C34.984835,4.1586169 34.884035,3.1324779 34.648915,1.8624999 L34.498955,1.1624999 L33.773955,1.2124999 C29.624163,1.7015719 25.928051,2.1803239 21.523955,1.1124998 L20.773955,0.93749982 L20.773955,0.93749982 Z M22.073955,2.7874999 C26.055019,3.5847219 29.567155,3.2798509 33.123955,2.8624999 C33.320435,3.9071519 33.511699,4.6988879 33.398955,5.9624999 L33.373955,6.5874999 L33.923955,6.8124999 C38.911227,8.5599049 43.064171,10.466206 47.173955,13.8375 C47.197555,13.85689 47.225395,13.89302 47.248915,13.9125 C47.797979,14.48534 48.348115,15.427039 48.998915,16.8125 C49.002915,16.8212 48.994915,16.82876 48.998915,16.8375 C53.350187,26.614801 55.578267,38.496794 55.998915,49.0125 L23.673915,49.0125 L23.673915,49.4125 L19.273915,49.4125 L19.273915,49.0125 L1.998914,49.0125 C1.76621,39.60876 3.16321,30.119967 5.673914,22.5125 L5.673914,22.4625 C6.234362,20.566112 6.860674,18.810261 8.223914,17.3375 C11.846315,13.308053 17.042243,9.4949979 21.373915,6.9374999 L21.848915,6.6624999 L21.748915,6.1124999 C21.614907,5.2345979 21.834015,3.9654719 22.073915,2.7874999 L22.073955,2.7874999 Z M19.273955,17.0125 L19.273955,17.8125 L23.673955,17.8125 L23.673955,17.0125 L19.273955,17.0125 L19.273955,17.0125 Z M41.173955,18.8125 C41.023827,18.8207 40.877171,18.83669 40.723955,18.8625 L40.698995,18.8625 L40.648995,18.8625 C39.495483,19.135426 38.643555,19.8927 38.073995,20.8125 C37.504435,21.7323 37.185243,22.863444 37.023995,24.0125 C36.701483,26.310612 36.966075,28.840776 37.248995,30.6625 L37.248995,30.6875 C37.578995,32.330771 38.378963,34.784279 39.573995,36.8375 C40.171507,37.864111 40.860891,38.777949 41.723995,39.4375 C42.587091,40.097051 43.637411,40.492517 44.773995,40.2625 C46.050371,40.036754 47.027955,39.295385 47.623995,38.3625 C48.220035,37.429615 48.489891,36.343892 48.598995,35.1875 C48.817163,32.874717 48.391659,30.318339 48.173955,28.6125 L48.173955,28.5875 L48.148995,28.5625 C47.828867,26.957388 47.219667,24.497207 46.098995,22.4125 C45.538667,21.370147 44.861283,20.388709 43.973995,19.7125 C43.197619,19.120817 42.224899,18.755026 41.173995,18.8125 L41.173955,18.8125 Z M41.548955,20.4375 C42.077163,20.45804 42.535931,20.659625 42.998955,21.0125 C43.616323,21.483002 44.181659,22.24671 44.673955,23.1625 C45.648019,24.97449 46.293547,27.297275 46.598955,28.8125 C46.600555,28.83 46.597355,28.84486 46.598955,28.8625 C46.822755,30.607689 47.186507,33.049643 46.998955,35.0375 C46.904255,36.041476 46.666515,36.923092 46.273955,37.5375 C45.881395,38.151908 45.377715,38.532079 44.498955,38.6875 L44.473995,38.6875 C43.836483,38.816518 43.308547,38.6533 42.698995,38.1875 C42.089443,37.721702 41.479963,36.949783 40.948995,36.0375 C39.892747,34.222716 39.121251,31.877998 38.823995,30.4125 C38.823195,30.4036 38.824795,30.37148 38.823995,30.3625 C38.556403,28.629189 38.342475,26.218567 38.623995,24.2125 C38.765483,23.204271 39.050875,22.305431 39.448995,21.6625 C39.838411,21.033607 40.295955,20.64098 40.998995,20.4625 C41.195267,20.42944 41.372923,20.43065 41.548995,20.4375 L41.548955,20.4375 Z M19.273955,33.0125 L19.273955,33.8125 L23.673955,33.8125 L23.673955,33.0125 L19.273955,33.0125 L19.273955,33.0125 Z M19.273955,64.6125 L23.673955,64.6125 L23.673955,65.4125 L19.273955,65.4125 L19.273955,64.6125 L19.273955,64.6125 Z" id="Shape"></path>
            </g>
        </g>
    </g>
</svg>