<?xml version="1.0" encoding="UTF-8" standalone="no"?>
<svg width="36px" height="48px" viewBox="0 0 36 48" version="1.1" xmlns="http://www.w3.org/2000/svg" xmlns:xlink="http://www.w3.org/1999/xlink">
    <!-- Generator: Sketch 3.8.1 (29687) - http://www.bohemiancoding.com/sketch -->
    <title>Slice 1</title>
    <desc>Created with Sketch.</desc>
    <defs></defs>
    <g id="Page-1" stroke="none" stroke-width="1" fill="none" fill-rule="evenodd">
        <g id="noun_175117_cc" fill="#ffffff">
            <g id="Group">
                <path d="M6,18.7 C2.8,18.7 0.3,21.3 0.3,24.4 C0.3,27.6 2.9,30.1 6,30.1 C9.1,30.1 11.7,27.5 11.7,24.4 C11.7,21.3 9.2,18.7 6,18.7 L6,18.7 Z M6,26.8 C4.7,26.8 3.7,25.8 3.7,24.5 C3.7,23.2 4.7,22.2 6,22.2 C7.3,22.2 8.3,23.2 8.3,24.5 C8.3,25.7 7.2,26.8 6,26.8 L6,26.8 Z" id="Shape"></path>
                <path d="M8,16.1 C11,16.8 13.4,19.1 14.2,22 C14.3,22.2 14.5,22.3 14.7,22.1 L21.2,15.6 C21.3,15.5 21.5,15.5 21.6,15.6 L22.5,16.5 C22.6,16.6 22.8,16.6 22.9,16.5 L24.9,14.5 C25,14.4 25,14.3 24.9,14.2 L24.5,13.8 C24.4,13.7 24.4,13.6 24.6,13.5 L26.7,12.6 C27,12.5 27.3,12.2 27.4,11.9 L29.5,5.9 C29.8,5.2 29.3,4.3 28.5,4.2 C27.9,4.1 27.3,4.5 27.1,5.1 L25.2,10.4 C25.2,10.5 25.1,10.5 25,10.6 L22.5,11.7 C22.4,11.7 22.3,11.7 22.2,11.6 L18.4,7.8 C18.3,7.7 18.3,7.6 18.3,7.5 L19.5,5 C19.5,4.9 19.6,4.9 19.7,4.8 L24.9,3 C25.5,2.8 25.9,2.2 25.8,1.6 C25.7,0.8 24.8,0.3 24.1,0.6 L18.1,2.7 C17.8,2.8 17.5,3.1 17.4,3.4 L16.5,5.5 C16.4,5.6 16.3,5.6 16.2,5.6 L15.8,5.2 C15.7,5.1 15.6,5.1 15.5,5.2 L13.5,7.2 C13.4,7.3 13.4,7.5 13.5,7.6 L14.5,8.6 C14.6,8.7 14.6,8.9 14.5,9 L7.8,15.7 C7.7,15.8 7.7,16.1 8,16.1 L8,16.1 Z" id="Shape"></path>
                <path d="M28.3,40.8 L14.4,27.2 C14.3,27.1 14.2,27.1 14.1,27.3 C13.1,30.3 10.4,32.6 7.2,33 C7.1,33 7,33.2 7.1,33.3 L14.5,40.6 C14.6,40.7 14.5,40.9 14.4,40.9 L11.1,40.9 C11,40.9 10.9,41 10.9,41.1 L10.9,47.4 C10.9,47.5 11,47.6 11.1,47.6 L35.6,47.6 C35.7,47.6 35.8,47.5 35.8,47.4 L35.8,41 C35.8,40.9 35.7,40.8 35.6,40.8 L28.4,40.8 L28.3,40.8 L28.3,40.8 Z" id="Shape"></path>
            </g>
        </g>
    </g>
</svg>