<?xml version="1.0" encoding="UTF-8" standalone="no"?>
<svg width="75px" height="96px" viewBox="0 0 75 96" version="1.1" xmlns="http://www.w3.org/2000/svg" xmlns:xlink="http://www.w3.org/1999/xlink">
    <!-- Generator: Sketch 3.8.1 (29687) - http://www.bohemiancoding.com/sketch -->
    <title>Slice 1</title>
    <desc>Created with Sketch.</desc>
    <defs></defs>
    <g id="Page-1" stroke="none" stroke-width="1" fill="none" fill-rule="evenodd">
        <g id="noun_294159_cc" fill="#000000">
            <g id="Group">
                <path d="M75,81 L75,84 L75,93 C75,94.657 73.657,96 72,96 L63,96 C61.343,96 60,94.657 60,93 L60,84 L44.85,84 C44.155,87.423 41.128,90 37.5,90 C33.872,90 30.845,87.423 30.15,84 L15,84 L15,93 C15,94.657 13.657,96 12,96 L3,96 C1.343,96 0,94.657 0,93 L0,84 L0,81 L0,72 C0,70.343 1.343,69 3,69 L12,69 C13.657,69 15,70.343 15,72 L15,81 L30.15,81 C30.747,78.061 33.061,75.747 36,75.15 L36,36 L33,36 C31.343,36 30,34.657 30,33 L30,21 C28.343,21 27,19.657 27,18 L27,15 L15,15 L15,24 C15,25.657 13.657,27 12,27 L3,27 C1.343,27 0,25.657 0,24 L0,15 L0,12 L0,3 C0,1.343 1.343,0 3,0 L12,0 C13.657,0 15,1.343 15,3 L15,12 L27,12 L27,9 C27,7.343 28.343,6 30,6 L45,6 C46.657,6 48,7.343 48,9 L48,12 L60,12 L60,3 C60,1.343 61.343,0 63,0 L72,0 C73.657,0 75,1.343 75,3 L75,12 L75,15 L75,24 C75,25.657 73.657,27 72,27 L63,27 C61.343,27 60,25.657 60,24 L60,15 L48,15 L48,18 C48,19.657 46.657,21 45,21 L45,33 C45,34.657 43.657,36 42,36 L39,36 L39,75.15 C41.938,75.747 44.253,78.061 44.85,81 L60,81 L60,72 C60,70.343 61.343,69 63,69 L72,69 C73.657,69 75,70.343 75,72 L75,81 L75,81 Z" id="Shape"></path>
            </g>
        </g>
    </g>
</svg>