<?xml version="1.0" encoding="UTF-8" standalone="no"?>
<svg width="60px" height="96px" viewBox="0 0 60 96" version="1.1" xmlns="http://www.w3.org/2000/svg" xmlns:xlink="http://www.w3.org/1999/xlink">
    <!-- Generator: Sketch 3.8.1 (29687) - http://www.bohemiancoding.com/sketch -->
    <title>Slice 1</title>
    <desc>Created with Sketch.</desc>
    <defs></defs>
    <g id="Page-1" stroke="none" stroke-width="1" fill="none" fill-rule="evenodd">
        <g id="noun_426376_cc" fill="#000000">
            <g id="Group">
                <g id="Shape">
                    <path d="M30,6.91 C17.387,6.91 7.165,11.753 7.165,17.726 C7.165,23.699 17.387,28.543 30,28.543 C42.613,28.543 52.835,23.7 52.835,17.727 C52.835,11.754 42.613,6.91 30,6.91 L30,6.91 Z M37.881,17.727 C37.881,19.788 34.354,21.459 30.001,21.459 C25.65,21.459 22.12,19.788 22.12,17.727 L22.12,12.424 C22.12,10.363 25.65,8.692 30.001,8.692 C34.354,8.692 37.881,10.363 37.881,12.424 L37.881,17.727 L37.881,17.727 Z"></path>
                    <path d="M30,0.5 C13.055,0.5 0.755,7.746 0.755,17.727 L0.755,78.275 C0.755,88.255 13.055,95.501 30,95.501 C46.945,95.501 59.244,88.256 59.244,78.275 L59.244,17.727 C59.244,7.746 46.945,0.5 30,0.5 L30,0.5 Z M56.041,78.274 C56.041,86.267 44.846,92.295 30,92.295 C15.155,92.295 3.96,86.267 3.96,78.274 L3.96,17.727 C3.96,9.734 15.155,3.706 30,3.706 C44.845,3.706 56.041,9.734 56.041,17.727 L56.041,78.274 L56.041,78.274 Z"></path>
                    <path d="M7.166,24.661 L7.166,78.275 C7.166,84.246 17.388,89.091 30.001,89.091 C42.614,89.091 52.836,84.245 52.836,78.275 L52.836,24.661 C48.488,28.958 40.094,31.748 30,31.748 C19.907,31.748 11.512,28.958 7.166,24.661 L7.166,24.661 Z M38.576,53.468 L29.118,81.839 L31.823,60.222 L22.365,61.571 L31.823,37.256 L31.823,54.82 L38.576,53.468 L38.576,53.468 Z"></path>
                </g>
            </g>
        </g>
    </g>
</svg>