<?xml version="1.0" encoding="UTF-8" standalone="no"?>
<svg width="100px" height="78px" viewBox="0 0 100 78" version="1.1" xmlns="http://www.w3.org/2000/svg" xmlns:xlink="http://www.w3.org/1999/xlink">
    <!-- Generator: Sketch 3.8.1 (29687) - http://www.bohemiancoding.com/sketch -->
    <title>Slice 1</title>
    <desc>Created with Sketch.</desc>
    <defs></defs>
    <g id="Page-1" stroke="none" stroke-width="1" fill="none" fill-rule="evenodd">
        <g id="noun_24191_cc" fill="#000000">
            <g id="Group">
                <g id="Shape">
                    <path d="M60.696,8.774 C61.844,8.774 62.776,7.843 62.776,6.695 L62.776,2.601 C62.776,1.452 61.844,0.521 60.696,0.521 L38.812,0.521 C37.665,0.521 36.733,1.452 36.733,2.601 L36.733,6.695 C36.733,7.843 37.664,8.774 38.812,8.774 L47.818,8.774 L47.818,11.891 L40.709,11.891 C38.413,11.891 36.55,13.753 36.55,16.05 L36.55,73.573 C36.55,75.87 38.413,77.731 40.709,77.731 L58.617,77.731 C60.915,77.731 62.777,75.87 62.777,73.573 L62.777,16.05 C62.777,13.753 60.915,11.891 58.617,11.891 L51.304,11.891 L51.304,8.774 L60.696,8.774 L60.696,8.774 Z M55.254,17.333 C56.747,17.333 57.956,18.542 57.956,20.035 L57.956,69.295 C57.956,70.787 56.747,71.997 55.254,71.997 L43.62,71.997 C42.127,71.997 40.918,70.787 40.918,69.295 L40.918,20.035 C40.918,18.542 42.127,17.333 43.62,17.333 L47.817,17.333 L47.817,21.044 L46.453,21.044 C45.329,21.044 44.417,21.954 44.417,23.079 L44.417,43.069 C44.417,44.193 45.329,45.103 46.453,45.103 L52.61,45.103 C53.734,45.103 54.644,44.193 54.644,43.069 L54.644,23.08 C54.644,21.955 53.734,21.045 52.61,21.045 L51.302,21.045 L51.302,17.334 L55.254,17.334 L55.254,17.333 Z"></path>
                    <path d="M22.896,56.741 C18.157,56.923 12.962,60.589 8.329,60.81 C5.583,60.852 2.99,59.665 0.481,58.672 L0.481,68.386 C2.99,69.379 5.583,70.566 8.329,70.523 C12.962,70.301 18.157,66.636 22.896,66.454 C25.72,66.364 28.359,67.577 31.047,68.553 L31.047,58.839 C28.359,57.863 25.719,56.65 22.896,56.741 L22.896,56.741 Z"></path>
                    <path d="M22.896,41.278 C18.157,41.462 12.962,45.127 8.329,45.347 C5.583,45.391 2.99,44.204 0.481,43.212 L0.481,52.926 C2.99,53.918 5.583,55.104 8.329,55.06 C12.962,54.877 18.157,51.121 22.896,50.992 C25.72,50.88 28.359,52.112 31.047,53.102 L31.047,43.376 C28.359,42.402 25.719,41.189 22.896,41.278 L22.896,41.278 Z"></path>
                    <path d="M22.896,25.812 C18.157,25.997 12.962,29.662 8.329,29.881 C5.583,29.924 2.99,28.739 0.481,27.746 L0.481,37.46 C2.99,38.452 5.583,39.639 8.329,39.594 C12.962,39.412 18.157,35.655 22.896,35.526 C25.72,35.415 28.359,36.646 31.047,37.636 L31.047,27.912 C28.359,26.935 25.719,25.723 22.896,25.812 L22.896,25.812 Z"></path>
                    <path d="M91.12,39.59 C86.383,39.407 81.187,35.742 76.553,35.521 C73.809,35.478 71.215,36.665 68.705,37.657 L68.705,27.944 C71.215,26.952 73.809,25.766 76.553,25.808 C81.188,26.029 86.383,29.694 91.12,29.876 C93.944,29.967 96.584,28.755 99.272,27.778 L99.272,37.491 C96.584,38.467 93.944,39.68 91.12,39.59 L91.12,39.59 Z"></path>
                    <path d="M91.12,55.052 C86.383,54.868 81.187,51.203 76.553,50.984 C73.809,50.941 71.215,52.128 68.705,53.12 L68.705,43.406 C71.215,42.413 73.809,41.227 76.553,41.27 C81.188,41.453 86.383,45.21 91.12,45.339 C93.944,45.451 96.584,44.219 99.272,43.229 L99.272,52.954 C96.584,53.929 93.944,55.143 91.12,55.052 L91.12,55.052 Z"></path>
                    <path d="M91.12,70.52 C86.383,70.336 81.187,66.671 76.553,66.451 C73.809,66.407 71.215,67.594 68.705,68.586 L68.705,58.873 C71.215,57.881 73.809,56.694 76.553,56.738 C81.188,56.921 86.383,60.677 91.12,60.806 C93.944,60.917 96.584,59.687 99.272,58.696 L99.272,68.421 C96.584,69.396 93.944,70.609 91.12,70.52 L91.12,70.52 Z"></path>
                </g>
            </g>
        </g>
    </g>
</svg>