<?xml version="1.0" encoding="UTF-8" standalone="no"?>
<svg width="68px" height="81px" viewBox="0 0 68 81" version="1.1" xmlns="http://www.w3.org/2000/svg" xmlns:xlink="http://www.w3.org/1999/xlink">
    <!-- Generator: Sketch 3.8.1 (29687) - http://www.bohemiancoding.com/sketch -->
    <title>Slice 1</title>
    <desc>Created with Sketch.</desc>
    <defs></defs>
    <g id="Page-1" stroke="none" stroke-width="1" fill="none" fill-rule="evenodd">
        <g id="noun_301851_cc" transform="translate(0.000000, 1.000000)" fill="#000000">
            <g id="Group">
                <g id="Shape">
                    <path d="M47.001,16 C45.335,15 43.333,16 42.665,17.667 C41.666,19.334 42.665,21.334 44.332,22.001 C54.332,26 60.667,35.667 60.667,46.667 C60.667,61.335 48.668,73.333 34,73.333 C19.333,73.333 7.333,61.335 7.333,46.667 C7.333,35.667 13.667,26 24,22 C25.667,21.333 26.334,19.332 25.667,17.666 C25,16 23,15.333 21.334,16 C8.667,21 0.667,33 0.667,46.667 C0.667,65 15.667,80 34,80 C52.333,80 67.333,65 67.333,46.667 C67.333,33 59.332,21 47.001,16 L47.001,16 Z"></path>
                    <path d="M34,46.667 C35.999,46.667 37.333,45.332 37.333,43.333 L37.333,3.333 C37.333,1.333 35.999,-1.77635684e-15 34,-1.77635684e-15 C32,-1.77635684e-15 30.667,1.333 30.667,3.333 L30.667,43.333 C30.667,45.332 32,46.667 34,46.667 L34,46.667 Z"></path>
                </g>
            </g>
        </g>
    </g>
</svg>