<?xml version="1.0" encoding="UTF-8" standalone="no"?>
<svg width="39px" height="60px" viewBox="0 0 39 60" version="1.1" xmlns="http://www.w3.org/2000/svg" xmlns:xlink="http://www.w3.org/1999/xlink">
    <!-- Generator: Sketch 3.8.1 (29687) - http://www.bohemiancoding.com/sketch -->
    <title>Slice 1</title>
    <desc>Created with Sketch.</desc>
    <defs></defs>
    <g id="Page-1" stroke="none" stroke-width="1" fill="none" fill-rule="evenodd">
        <g id="noun_172360_cc" fill="#000000">
            <g id="Group">
                <path d="M13.5,1.25 C15.706,1.25 17.5,3.044 17.5,5.25 L17.5,34.621 C17.5,35.032 17.752,35.401 18.135,35.552 C22.761,37.368 25.75,41.74 25.751,46.688 C25.751,53.452 20.535,58.75 13.876,58.75 C7.155,58.75 1.688,53.339 1.688,46.688 C1.688,41.459 5.447,37.234 8.94,35.519 C9.283,35.351 9.5,35.003 9.5,34.622 L9.5,5.25 C9.5,3.044 11.294,1.25 13.5,1.25 L13.5,1.25 Z M13.5,0.25 C10.739,0.25 8.5,2.489 8.5,5.25 L8.5,34.621 C4.5,36.584 0.688,41.245 0.688,46.687 C0.688,53.9 6.661,59.749 13.876,59.749 C21.09,59.749 26.751,53.9 26.751,46.687 C26.75,41.245 23.5,36.584 18.5,34.621 L18.5,5.25 C18.5,2.489 16.262,0.25 13.5,0.25 L13.5,0.25 L13.5,0.25 Z" id="Shape"></path>
                <path d="M17.77,36.482 L16.5,35.984 L16.5,17 L10.5,17 L10.5,35.867 L9.381,36.417 C6.158,37.998 2.688,41.888 2.688,46.688 C2.688,52.788 7.707,57.75 13.876,57.75 C19.974,57.75 24.751,52.892 24.751,46.688 C24.75,42.083 22.075,38.173 17.77,36.482 L17.77,36.482 Z M22.167,48.082 C21.891,48.082 21.667,47.858 21.667,47.582 C21.667,43.485 18.9,39.904 14.938,38.876 C14.671,38.806 14.51,38.533 14.58,38.266 C14.649,38 14.921,37.839 15.19,37.908 C19.592,39.053 22.667,43.03 22.667,47.583 C22.667,47.858 22.443,48.082 22.167,48.082 L22.167,48.082 Z" id="Shape"></path>
                <g transform="translate(21.000000, 17.000000)" id="Shape">
                    <path d="M3.833,0.077 C4.783,0.077 5.54,0.337 6.104,0.856 C6.668,1.375 6.95,2.072 6.95,2.946 C6.95,3.82 6.668,4.513 6.104,5.027 C5.54,5.541 4.784,5.797 3.833,5.797 C2.882,5.797 2.126,5.541 1.562,5.027 C0.998,4.513 0.716,3.82 0.716,2.946 C0.716,2.072 0.998,1.376 1.562,0.856 C2.126,0.336 2.883,0.077 3.833,0.077 L3.833,0.077 Z M3.833,1.217 C3.263,1.217 2.829,1.372 2.531,1.682 C2.233,1.993 2.085,2.414 2.085,2.946 C2.085,3.478 2.233,3.896 2.531,4.2 C2.829,4.504 3.262,4.656 3.833,4.656 C4.404,4.656 4.837,4.504 5.135,4.2 C5.432,3.896 5.581,3.478 5.581,2.946 C5.581,2.414 5.432,1.993 5.135,1.682 C4.837,1.372 4.403,1.217 3.833,1.217 L3.833,1.217 Z"></path>
                    <polygon points="9.229 0.305 17.684 0.305 17.684 2.015 11.053 2.015 11.053 6.233 17.228 6.233 17.228 7.943 11.053 7.943 11.053 13.757 9.229 13.757"></polygon>
                </g>
            </g>
        </g>
    </g>
</svg>