<?xml version="1.0" encoding="UTF-8" standalone="no"?>
<svg width="94px" height="94px" viewBox="0 0 94 94" version="1.1" xmlns="http://www.w3.org/2000/svg" xmlns:xlink="http://www.w3.org/1999/xlink">
    <!-- Generator: Sketch 3.8.1 (29687) - http://www.bohemiancoding.com/sketch -->
    <title>Slice 1</title>
    <desc>Created with Sketch.</desc>
    <defs></defs>
    <g id="Page-1" stroke="none" stroke-width="1" fill="none" fill-rule="evenodd">
        <g id="noun_18141">
            <g id="Group" transform="translate(46.699043, 46.922741) rotate(-45.000000) translate(-46.699043, -46.922741) translate(3.305788, 24.358248)">
                <path id="Shape"></path>
                <path id="Shape"></path>
                <path d="M31.5295392,30.810079 L31.5260678,30.810079 C31.7031122,31.2631046 31.9565288,31.7768808 32.2056061,32.2429243 L32.2168884,32.2429243 C31.9704147,31.7742772 31.7412983,31.2969514 31.5295392,30.810079 L31.5295392,30.810079 Z" id="Shape"></path>
                <path d="M32.2047383,32.2429243 C32.457287,32.715043 32.7054964,33.1359575 32.86258,33.3989207 C32.6343315,33.0205315 32.4217045,32.6334636 32.2151527,32.2429243 L32.2047383,32.2429243 L32.2047383,32.2429243 Z" id="Shape" fill="#000000"></path>
                <path id="Shape" fill="#000000"></path>
                <path d="M44.9658268,42.9115901 C44.4182039,42.7406206 43.8818632,42.5436152 43.3550691,42.3309883 C43.3524655,42.332724 43.3489941,42.3335919 43.3472583,42.3344598 C43.3993302,42.3561564 44.025061,42.6156481 44.9658268,42.9115901 L44.9658268,42.9115901 Z" id="Shape" fill="#000000"></path>
                <path id="Shape" fill="#000000"></path>
                <path d="M64.6194999,0.828811174 L51.4826258,0.828811174 C50.3483261,0.828811174 49.2339873,0.915597684 48.1456845,1.08309565 C47.9087573,1.11954598 47.6761695,1.17075002 47.4418459,1.21414328 C51.4739472,3.52787165 54.7917955,6.94639229 56.9770798,11.0583372 L58.0514968,11.0583372 L65.2946989,11.0583372 C71.6492072,11.0583372 76.7999866,16.2108523 76.7999866,22.5653606 C76.7999866,28.919001 71.6483394,34.0715161 65.2946989,34.0715161 L57.0360946,34.0715161 L55.3368147,34.0715161 L53.6835317,34.0715161 L53.6783245,34.0715161 L50.9263243,34.0715161 C48.0580301,34.0715161 45.4379454,33.0196636 43.4227626,31.2839334 L43.420159,31.286537 C43.420159,31.2848013 43.4192911,31.2848013 43.4184233,31.2839334 C42.9896979,30.9246372 42.6494948,30.5879056 42.371778,30.2876243 C41.7642724,29.6245753 41.4943663,29.156796 41.4943663,29.156796 C41.4952342,29.1550603 41.4961021,29.1550603 41.4961021,29.1541924 C41.4952342,29.1533246 41.4943663,29.1524567 41.4943663,29.1515888 C40.1882294,27.2856789 39.4210366,25.0153437 39.4210366,22.5653606 C39.4210366,20.182203 40.1448361,17.969147 41.3850153,16.1318765 C41.4205978,16.0798046 41.4596517,16.0303363 41.4952342,15.9791323 C39.9886204,14.700767 38.0428668,13.9248956 35.9157295,13.9248956 L31.5408215,13.9248956 C30.3909002,16.5736199 29.7469443,19.4931181 29.7469443,22.5653606 C29.7469443,25.6358673 30.3865609,28.5562334 31.5356143,31.2049577 C31.7473734,31.69183 31.9773576,32.1691558 32.2229634,32.637803 C32.4286475,33.0283423 32.6412744,33.4154101 32.8703908,33.7937993 C32.8877481,33.8224388 32.9016339,33.8450033 32.9172555,33.8701714 C32.9580452,33.9387327 33.0031742,34.0020869 33.0448317,34.0706482 C35.4679111,37.9439302 39.0747584,40.9962118 43.362012,42.7258669 C43.889674,42.9384939 44.4260147,43.1354993 44.9727697,43.3064687 C45.0022771,43.3160152 45.0317845,43.3255617 45.0621598,43.3333725 C45.1532856,43.3628799 45.2461472,43.3863123 45.3381409,43.4123482 C45.5724645,43.4817774 45.8076559,43.5520745 46.0454509,43.6136929 C46.0489224,43.6136929 46.0506581,43.6154287 46.0541296,43.6162965 C47.7898598,44.0615113 49.6089051,44.2993064 51.481758,44.2993064 L64.618632,44.2993064 C76.6229421,44.2993064 86.3534457,34.5679349 86.3534457,22.5644927 C86.3543136,10.5610504 76.62381,0.828811174 64.6194999,0.828811174 L64.6194999,0.828811174 Z" id="Shape" fill="#000000"></path>
                <path d="M22.1670105,44.3001742 L35.3038846,44.3001742 C36.4390521,44.3001742 37.5533909,44.2125198 38.6416937,44.0450219 C38.8786209,44.0085715 39.1120766,43.9582354 39.3455323,43.9139742 C35.3134311,41.6011137 31.9947149,38.1825931 29.8102984,34.0706482 L28.7350136,34.0706482 L21.4918114,34.0706482 C15.1373031,34.0706482 9.98652375,28.919001 9.98652375,22.5636248 C9.98652375,16.2091165 15.1373031,11.0583372 21.4918114,11.0583372 L29.7504158,11.0583372 L31.4488278,11.0583372 L33.1021108,11.0583372 L33.1081858,11.0583372 L35.8593182,11.0583372 C38.7267445,11.0583372 41.3468293,12.1101897 43.362012,13.8459199 L43.3637478,13.8433163 C43.3646156,13.8441841 43.3646156,13.845052 43.3654835,13.8459199 C43.7950767,14.2043482 44.1352798,14.5410798 44.4121288,14.842229 C45.0205023,15.5035422 45.2895404,15.9721894 45.2895404,15.9721894 C45.2895404,15.9730572 45.2886726,15.9739251 45.2878047,15.974793 C45.2886726,15.974793 45.2895404,15.9756608 45.2904083,15.9773966 C46.5965453,17.8433065 47.3646059,20.1136416 47.3646059,22.562757 C47.3646059,24.9459145 46.6399385,27.1598384 45.3997593,28.9953731 C45.3641768,29.0491808 45.3259908,29.0977812 45.2895404,29.1481174 C46.7961543,30.4273505 48.7427757,31.2040898 50.8690452,31.2040898 L55.244821,31.2040898 C56.3938744,28.5544976 57.0369625,25.6349994 57.0369625,22.562757 C57.0369625,19.4913824 56.3973459,16.5718842 55.2482925,13.9231599 C55.0365334,13.4362875 54.8065492,12.9589617 54.5609433,12.4903146 C54.3552593,12.0989074 54.1426324,11.7109717 53.913516,11.3343183 C53.8961587,11.3056787 53.8822728,11.2822463 53.8675191,11.2570783 C53.8258616,11.1893848 53.7816005,11.1242949 53.739943,11.0574693 C51.3168636,7.18418733 47.7091483,4.13103789 43.4227626,2.40225061 C42.8951006,2.18962366 42.35876,1.99348614 41.812005,1.82078099 C41.7824976,1.81123447 41.7529901,1.80255582 41.7226149,1.7930093 C41.631489,1.76523762 41.5386275,1.74180526 41.4466338,1.71576931 C41.2123102,1.64547224 40.9771187,1.57517516 40.7384558,1.51442461 C40.7349844,1.51355674 40.7332486,1.51355674 40.730645,1.51268888 C38.9949148,1.06573835 37.1767374,0.828811174 35.3021488,0.828811174 L22.1670105,0.828811174 C10.1627004,0.828811174 0.432196822,10.5593147 0.432196822,22.5636248 C0.432196822,34.5688028 10.1627004,44.3001742 22.1670105,44.3001742 L22.1670105,44.3001742 Z" id="Shape" fill="#000000"></path>
                <path id="Shape" fill="#000000"></path>
                <path id="Shape" fill="#000000"></path>
                <path d="M41.4882913,28.7619174 C41.4882913,28.7619174 41.7581973,29.2296967 42.3657029,29.8927456 C42.3700422,29.8875384 42.3743816,29.8823313 42.3795887,29.8797277 C42.0593465,29.5265066 41.7642724,29.150721 41.490027,28.7593138 C41.490027,28.7601817 41.4891591,28.7601817 41.4882913,28.7619174 L41.4882913,28.7619174 Z" id="Shape" fill="#000000"></path>
                <path id="Shape" fill="#000000"></path>
                <path d="M42.3795887,29.8797277 C42.3743816,29.8823313 42.3700422,29.8875384 42.3657029,29.8927456 C42.6425519,30.1938948 42.982755,30.5297586 43.4123482,30.8890548 C43.4132161,30.887319 43.4140839,30.8864512 43.4140839,30.8864512 C43.0495806,30.572284 42.7024346,30.2364202 42.3795887,29.8797277 L42.3795887,29.8797277 Z" id="Shape" fill="#000000"></path>
                <path id="Shape" fill="#000000"></path>
                <rect id="Rectangle-path" fill="#000000" x="43.4123474" y="30.887319" width="0.1" height="0.1"></rect>
            </g>
        </g>
    </g>
</svg>