<?xml version="1.0" encoding="UTF-8" standalone="no"?>
<svg width="91px" height="90px" viewBox="0 0 91 90" version="1.1" xmlns="http://www.w3.org/2000/svg" xmlns:xlink="http://www.w3.org/1999/xlink">
    <!-- Generator: Sketch 3.8.1 (29687) - http://www.bohemiancoding.com/sketch -->
    <title>Slice 1</title>
    <desc>Created with Sketch.</desc>
    <defs></defs>
    <g id="Page-1" stroke="none" stroke-width="1" fill="none" fill-rule="evenodd">
        <g id="noun_52642_cc" fill="#000000">
            <g id="Group">
                <path d="M75.4,25.2 L56.9,25.2 C59,22.6 60.2,19.4 60.2,15.8 C60.2,7.5 53.5,0.8 45.2,0.8 C36.9,0.8 30.2,7.5 30.2,15.8 C30.2,19.3 31.4,22.6 33.5,25.2 L15,25.2 L0.2,89.3 L90.2,89.3 L75.4,25.2 L75.4,25.2 Z M45.2,12.1 C47.3,12.1 48.9,13.8 48.9,15.8 C48.9,17.8 47.2,19.5 45.2,19.5 C43.2,19.5 41.5,17.8 41.5,15.8 C41.5,13.8 43.2,12.1 45.2,12.1 L45.2,12.1 Z M49.4,76.4 L41.1,76.4 L41.1,68.1 L49.4,68.1 L49.4,76.4 L49.4,76.4 Z M48.4,64.9 L42.1,64.9 L39.8,36.8 L50.7,36.8 L48.4,64.9 L48.4,64.9 Z" id="Shape"></path>
            </g>
        </g>
    </g>
</svg>