<?xml version="1.0" encoding="UTF-8" standalone="no"?>
<svg width="41px" height="53px" viewBox="0 0 41 53" version="1.1" xmlns="http://www.w3.org/2000/svg" xmlns:xlink="http://www.w3.org/1999/xlink">
    <!-- Generator: Sketch 3.8.1 (29687) - http://www.bohemiancoding.com/sketch -->
    <title>Slice 1</title>
    <desc>Created with Sketch.</desc>
    <defs></defs>
    <g id="Page-1" stroke="none" stroke-width="1" fill="none" fill-rule="evenodd">
        <g id="noun_367540_cc" transform="translate(1.000000, 1.000000)">
            <g id="badge_005-award-emblem-approval-warranty">
                <g id="Group" fill="#000000">
                    <g id="Shape">
                        <g>
                            <path d="M6.76563372,35.7188745 L2,46.4226631 L9.42720646,45.4306723 L13.6597848,51.6139338 L18.6870209,40.3225767 L17.2578917,40.8070408 C16.3953676,41.0994301 15.2544982,40.8715856 14.5708679,40.2725586 L12.8938049,38.8030417 C12.6430031,38.5832781 12.0609364,38.3424861 11.7290804,38.3205971 L9.50411247,38.1738397 C8.59535161,38.1138985 7.62851799,37.4668059 7.22616372,36.651763 L6.76563372,35.7188745 L6.76563372,35.7188745 Z M21.3129791,40.3225767 L26.3402152,51.6139338 L30.5727935,45.4306723 L38,46.4226631 L33.2343663,35.7188745 L32.7738363,36.651763 C32.3706901,37.4684101 31.4028632,38.1140162 30.4958875,38.1738397 L28.2709196,38.3205971 C27.9381796,38.3425444 27.3563305,38.583862 27.1061951,38.8030417 L25.4291321,40.2725586 C24.7441562,40.8727647 23.602938,41.0988557 22.7421083,40.8070408 L21.3129791,40.3225767 L21.3129791,40.3225767 Z"></path>
                            <path d="M22.9972373,39.7940594 C23.5190021,39.9709337 24.2869004,39.8201657 24.7041793,39.4545275 L26.3812423,37.9850107 C26.7956033,37.6219293 27.5855789,37.2933625 28.1391849,37.256847 L30.3641529,37.1100896 C30.9138876,37.0738295 31.5656367,36.6406761 31.8112284,36.1431847 L32.7982729,34.1437439 C33.0421473,33.6497314 33.6462526,33.0438647 34.1437439,32.7982729 L36.1431847,31.8112284 C36.6371972,31.5673541 37.0735742,30.9177589 37.1100896,30.3641529 L37.256847,28.1391849 C37.2931071,27.5894502 37.6193724,26.7985212 37.9850107,26.3812423 L39.4545275,24.7041793 C39.8176089,24.2898184 39.9721793,23.5226765 39.7940594,22.9972373 L39.0781871,20.8854734 C38.9013127,20.3637086 38.9000671,19.5081291 39.0781871,18.98269 L39.7940594,16.870926 C39.9709337,16.3491612 39.8201657,15.581263 39.4545275,15.1639841 L37.9850107,13.486921 C37.6219293,13.0725601 37.2933625,12.2825844 37.256847,11.7289784 L37.1100896,9.50401044 C37.0738295,8.95427573 36.6406761,8.30252667 36.1431847,8.05693493 L34.1437439,7.06989044 C33.6497314,6.82601609 33.0438647,6.22191081 32.7982729,5.72441942 L31.8112284,3.72497866 C31.5673541,3.23096616 30.9177589,2.79458918 30.3641529,2.75807371 L28.1391849,2.61131637 C27.5894502,2.57505625 26.7985212,2.24879092 26.3812423,1.8831527 L24.7041793,0.41363587 C24.2898184,0.0505545079 23.5226765,-0.104015944 22.9972373,0.0741040064 L20.8854734,0.78997628 C20.3637086,0.966850662 19.5081291,0.96809623 18.98269,0.78997628 L16.870926,0.0741040064 C16.3491612,-0.102770375 15.581263,0.0479976496 15.1639841,0.41363587 L13.486921,1.8831527 C13.0725601,2.24623406 12.2825844,2.5748009 11.7289784,2.61131637 L9.50401044,2.75807371 C8.95427573,2.79433383 8.30252667,3.22748727 8.05693493,3.72497866 L7.06989044,5.72441942 C6.82601609,6.21843192 6.22191081,6.8242987 5.72441942,7.06989044 L3.72497866,8.05693493 C3.23096616,8.30080928 2.79458918,8.95040444 2.75807371,9.50401044 L2.61131637,11.7289784 C2.57505625,12.2787131 2.24879092,13.0696421 1.8831527,13.486921 L0.41363587,15.1639841 C0.0505545079,15.578345 -0.104015944,16.3454869 0.0741040064,16.870926 L0.78997628,18.98269 C0.966850662,19.5044548 0.96809623,20.3600342 0.78997628,20.8854734 L0.0741040064,22.9972373 C-0.102770375,23.5190021 0.0479976496,24.2869004 0.41363587,24.7041793 L1.8831527,26.3812423 C2.24623406,26.7956033 2.5748009,27.5855789 2.61131637,28.1391849 L2.75807371,30.3641529 C2.79433383,30.9138876 3.22748727,31.5656367 3.72497866,31.8112284 L5.72441942,32.7982729 C6.21843192,33.0421473 6.8242987,33.6462526 7.06989044,34.1437439 L8.05693493,36.1431847 C8.30080928,36.6371972 8.95040444,37.0735742 9.50401044,37.1100896 L11.7289784,37.256847 C12.2787131,37.2931071 13.0696421,37.6193724 13.486921,37.9850107 L15.1639841,39.4545275 C15.578345,39.8176089 16.3454869,39.9721793 16.870926,39.7940594 L18.98269,39.0781871 C19.5044548,38.9013127 20.3600342,38.9000671 20.8854734,39.0781871 L22.9972373,39.7940594 L22.9972373,39.7940594 Z M19.9340817,34.9340817 C28.2183529,34.9340817 34.9340817,28.2183529 34.9340817,19.9340817 C34.9340817,11.6498104 28.2183529,4.93408168 19.9340817,4.93408168 C11.6498104,4.93408168 4.93408168,11.6498104 4.93408168,19.9340817 C4.93408168,28.2183529 11.6498104,34.9340817 19.9340817,34.9340817 L19.9340817,34.9340817 Z"></path>
                        </g>
                    </g>
                </g>
                <text id="3" font-family="ArialUnicodeMS, Arial Unicode MS" font-size="18" font-weight="normal" letter-spacing="-0.427235335" fill="#1A1818">
                    <tspan x="15" y="27">3</tspan>
                </text>
            </g>
        </g>
    </g>
</svg>