<?xml version="1.0" encoding="UTF-8" standalone="no"?>
<svg width="90px" height="82px" viewBox="0 0 90 82" version="1.1" xmlns="http://www.w3.org/2000/svg" xmlns:xlink="http://www.w3.org/1999/xlink">
    <!-- Generator: Sketch 3.8.2 (29753) - http://www.bohemiancoding.com/sketch -->
    <title>noun_68843_cc</title>
    <desc>Created with Sketch.</desc>
    <defs></defs>
    <g id="Page-1" stroke="none" stroke-width="1" fill="none" fill-rule="evenodd">
        <g id="noun_68843_cc" fill="#FFFFFF">
            <g id="Group">
                <path d="M63.5,74 L3.5,74 C2.4,74 1.5,73.1 1.5,72 L1.5,36 C1.5,34.9 2.4,34 3.5,34 L63.5,34 C64.6,34 65.5,34.9 65.5,36 L65.5,72 C65.5,73.1 64.6,74 63.5,74 L63.5,74 Z M5.5,70 L61.5,70 L61.5,38 L5.5,38 L5.5,70 L5.5,70 Z" id="Shape"></path>
                <path d="M87.5,82 C87.288,82 87.08,81.964 86.868,81.9 L62.868,73.9 C62.056,73.636 61.5,72.86 61.5,72 L61.5,36 C61.5,35.14 62.056,34.376 62.868,34.1 L86.868,26.1 C87.48,25.896 88.144,26.008 88.668,26.368 C89.192,26.748 89.5,27.344 89.5,27.98 L89.5,79.98 C89.5,80.628 89.192,81.232 88.668,81.6 C88.324,81.872 87.916,82 87.5,82 L87.5,82 Z M65.5,70.564 L85.5,77.228 L85.5,30.78 L65.5,37.448 L65.5,70.564 L65.5,70.564 Z" id="Shape"></path>
                <path d="M18.5,36 C8.58,36 0.5,27.92 0.5,18 C0.5,8.08 8.58,0 18.5,0 C28.42,0 36.5,8.08 36.5,18 C36.5,27.92 28.42,36 18.5,36 L18.5,36 Z M18.5,4 C10.78,4 4.5,10.28 4.5,18 C4.5,25.72 10.78,32 18.5,32 C26.22,32 32.5,25.72 32.5,18 C32.5,10.28 26.22,4 18.5,4 L18.5,4 Z" id="Shape"></path>
                <path d="M50.5,36 C40.58,36 32.5,27.92 32.5,18 C32.5,8.08 40.58,0 50.5,0 C60.42,0 68.5,8.08 68.5,18 C68.5,27.92 60.42,36 50.5,36 L50.5,36 Z M50.5,4 C42.78,4 36.5,10.28 36.5,18 C36.5,25.72 42.78,32 50.5,32 C58.22,32 64.5,25.72 64.5,18 C64.5,10.28 58.22,4 50.5,4 L50.5,4 Z" id="Shape"></path>
            </g>
        </g>
    </g>
</svg>