<?xml version="1.0" encoding="UTF-8" standalone="no"?>
<svg width="73px" height="72px" viewBox="0 0 73 72" version="1.1" xmlns="http://www.w3.org/2000/svg" xmlns:xlink="http://www.w3.org/1999/xlink">
    <!-- Generator: Sketch 3.8.1 (29687) - http://www.bohemiancoding.com/sketch -->
    <title>Slice 1</title>
    <desc>Created with Sketch.</desc>
    <defs></defs>
    <g id="Page-1" stroke="none" stroke-width="1" fill="none" fill-rule="evenodd">
        <g id="noun_127778_cc" fill="#000000">
            <g id="Group">
                <path d="M1.78,0 C1.36,0 0.999,0.36 0.999,0.78 L0.999,13.2 C0.999,14.28 2.62,14.28 2.62,13.2 L2.62,1.62 L14.2,1.62 C15.28,1.62 15.28,0 14.2,0 L1.78,0 L1.78,0 L1.78,0 Z M59.8,0 C58.72,0 58.72,1.62 59.8,1.62 L71.38,1.62 L71.38,13.2 C71.38,14.28 73,14.28 73,13.2 L73,0.78 C73,0.36 72.64,0 72.22,0 L59.8,0 L59.8,0 L59.8,0 Z M1.78,58.02 C1.36,58.02 0.999,58.38 0.999,58.8 L0.999,71.221 C0.999,71.641 1.36,72 1.78,72 L14.2,72 C15.28,72 15.28,70.38 14.2,70.38 L2.62,70.38 L2.62,58.8 C2.62,58.38 2.26,58.02 1.78,58.02 L1.78,58.02 L1.78,58.02 Z M72.16,58.02 C71.739,58.02 71.38,58.38 71.38,58.8 L71.38,70.38 L59.8,70.38 C58.72,70.38 58.72,72 59.8,72 L72.22,72 C72.64,72 73,71.641 73,71.221 L73,58.8 C73,58.38 72.64,58.02 72.16,58.02 L72.16,58.02 L72.16,58.02 Z" id="Shape"></path>
            </g>
        </g>
    </g>
</svg>