<?xml version="1.0" encoding="UTF-8" standalone="no"?>
<svg width="90px" height="46px" viewBox="0 0 90 46" version="1.1" xmlns="http://www.w3.org/2000/svg" xmlns:xlink="http://www.w3.org/1999/xlink">
    <!-- Generator: Sketch 3.8.1 (29687) - http://www.bohemiancoding.com/sketch -->
    <title>Slice 1</title>
    <desc>Created with Sketch.</desc>
    <defs></defs>
    <g id="Page-1" stroke="none" stroke-width="1" fill="none" fill-rule="evenodd">
        <g id="noun_43714_cc" fill="#000000">
            <g id="Group">
                <path d="M2.476,20.11 L0,20.11 L0,25.89 L2.476,25.89 C2.781,35.235 4.534,42.455 6.683,42.838 L6.683,3.162 C4.534,3.545 2.781,10.765 2.476,20.11 L2.476,20.11 Z" id="Shape"></path>
                <polygon id="Shape" points="20.398 7.752 17.07 7.752 17.07 10.691 20.398 10.691 20.398 15.244 17.07 15.244 17.07 18.183 20.398 18.183 20.398 20.11 12.776 20.11 12.776 3.125 12.776 0.812 11.666 0.812 11.666 3.125 8.547 3.125 8.547 42.875 11.666 42.875 11.666 45.188 12.776 45.188 12.776 42.875 12.776 25.89 20.398 25.89 20.398 29.165 17.07 29.165 17.07 32.104 20.398 32.104 20.398 35.594 17.07 35.594 17.07 38.533 20.398 38.533 20.398 40.501 22.158 40.501 22.158 5.498 20.398 5.498"></polygon>
                <path d="M24.085,3.974 L24.085,42.027 C29.161,42.65 73.166,42.602 72.24,41.883 C72.245,41.887 72.25,41.883 72.254,41.885 L72.254,4.115 C72.249,4.117 72.244,4.113 72.24,4.117 C73.165,3.398 29.16,3.35 24.085,3.974 L24.085,3.974 Z M26.386,7.939 C25.637,7.915 38.784,6.585 39.017,6.661 C38.784,6.585 63.818,6.585 63.072,6.661 C62.478,6.721 26.97,10.315 26.385,10.374 C25.637,10.449 25.637,7.915 26.386,7.939 L26.386,7.939 Z M69.736,39.366 C69.954,39.388 58.819,39.388 59.038,39.366 C58.82,39.388 69.955,38.261 69.736,38.283 C69.954,38.262 69.954,39.389 69.736,39.366 L69.736,39.366 Z M69.407,35.799 C70.284,35.777 34.108,39.438 34.65,39.317 C34.108,39.438 25.573,39.438 26.45,39.317 C25.573,39.438 25.573,37.768 26.45,37.712 C25.573,37.768 70.284,33.243 69.407,33.364 C70.283,33.243 70.283,35.777 69.407,35.799 L69.407,35.799 Z M69.407,30.839 C70.284,30.8 25.573,35.325 26.45,35.187 C25.573,35.325 25.573,32.791 26.45,32.752 C25.573,32.791 70.284,28.266 69.407,28.404 C70.283,28.266 70.283,30.8 69.407,30.839 L69.407,30.839 Z M69.407,25.87 C70.284,25.831 25.573,30.356 26.45,30.218 C25.573,30.356 25.573,27.822 26.45,27.783 C25.573,27.822 70.284,23.297 69.407,23.435 C70.283,23.297 70.283,25.831 69.407,25.87 L69.407,25.87 Z M69.407,20.901 C70.284,20.862 25.573,25.387 26.45,25.249 C25.573,25.387 25.573,22.853 26.45,22.814 C25.573,22.853 70.284,18.328 69.407,18.466 C70.283,18.328 70.283,20.862 69.407,20.901 L69.407,20.901 Z M69.407,15.932 C70.284,15.893 25.573,20.418 26.45,20.28 C25.573,20.418 25.573,17.884 26.45,17.845 C25.573,17.884 70.284,13.359 69.407,13.497 C70.283,13.359 70.283,15.893 69.407,15.932 L69.407,15.932 Z M69.407,10.963 C70.284,10.924 25.573,15.449 26.45,15.311 C25.573,15.449 25.573,12.915 26.45,12.876 C25.573,12.915 70.284,8.39 69.407,8.528 C70.283,8.39 70.283,10.924 69.407,10.963 L69.407,10.963 Z" id="Shape"></path>
                <polygon id="Shape" points="87.962 20.11 87.962 16.344 83.524 16.344 83.524 20.11 75.94 20.11 75.94 18.04 79.268 18.04 79.268 15.101 75.94 15.101 75.94 10.548 79.268 10.548 79.268 7.609 75.94 7.609 75.94 5.498 74.18 5.498 74.18 40.501 75.94 40.501 75.94 38.391 79.268 38.391 79.268 35.452 75.94 35.452 75.94 31.962 79.268 31.962 79.268 29.023 75.94 29.023 75.94 25.89 83.524 25.89 83.524 29.656 87.962 29.656 87.962 25.89 90 25.89 90 20.11"></polygon>
            </g>
        </g>
    </g>
</svg>