<?xml version="1.0" encoding="UTF-8" standalone="no"?>
<svg width="91px" height="70px" viewBox="0 0 91 70" version="1.1" xmlns="http://www.w3.org/2000/svg" xmlns:xlink="http://www.w3.org/1999/xlink">
    <!-- Generator: Sketch 3.8.1 (29687) - http://www.bohemiancoding.com/sketch -->
    <title>Slice 1</title>
    <desc>Created with Sketch.</desc>
    <defs></defs>
    <g id="Page-1" stroke="none" stroke-width="1" fill="none" fill-rule="evenodd">
        <g id="noun_92924_cc" transform="translate(1.000000, 0.000000)" fill="#000000">
            <g id="Group">
                <g id="Shape">
                    <path d="M15.427,43.866 C14.235,43.866 13.043,44.16 11.981,44.717 C8.348,46.62 6.94,51.125 8.844,54.759 C10.133,57.218 12.66,58.745 15.44,58.745 C16.632,58.745 17.824,58.452 18.887,57.895 C20.646,56.973 21.942,55.42 22.534,53.524 C23.127,51.626 22.945,49.612 22.023,47.853 C20.733,45.394 18.206,43.866 15.427,43.866 L15.427,43.866 Z M21.051,53.061 C20.582,54.562 19.557,55.79 18.165,56.52 C17.324,56.96 16.381,57.194 15.439,57.194 C13.239,57.194 11.239,55.985 10.219,54.039 C8.714,51.164 9.827,47.6 12.701,46.094 C13.542,45.653 14.484,45.42 15.426,45.42 C17.626,45.42 19.626,46.629 20.646,48.574 C21.376,49.966 21.52,51.56 21.051,53.061 L21.051,53.061 Z"></path>
                    <path d="M54.689,27.309 C54.139,27.309 53.59,27.445 53.102,27.701 C51.428,28.578 50.78,30.652 51.657,32.325 C52.251,33.458 53.414,34.161 54.694,34.161 C55.244,34.161 55.793,34.026 56.282,33.769 C57.954,32.892 58.602,30.818 57.725,29.145 C57.134,28.012 55.97,27.309 54.689,27.309 L54.689,27.309 Z M55.562,32.394 C55.291,32.537 54.999,32.609 54.695,32.609 C53.995,32.609 53.358,32.223 53.034,31.604 C52.555,30.689 52.909,29.555 53.824,29.076 C54.095,28.934 54.387,28.862 54.69,28.862 C55.39,28.862 56.027,29.247 56.351,29.866 C56.83,30.78 56.476,31.914 55.562,32.394 L55.562,32.394 Z"></path>
                    <path d="M83.994,15.381 C81.179,10.008 75.732,0.915 73.177,0.915 C72.968,0.915 72.773,0.963 72.595,1.056 L63.449,5.848 L63.449,5.849 C63.447,5.849 63.447,5.85 63.447,5.85 L48.161,13.86 C47.781,14.058 47.635,14.528 47.834,14.908 L50.832,20.631 C51.007,20.964 51.168,21.259 51.312,21.521 C51.583,22.012 51.92,22.624 51.899,22.783 C51.88,22.831 51.748,23.023 50.832,23.504 C48.583,24.682 47.013,26.848 46.57,29.352 L26.059,40.097 C22.676,36.894 17.85,35.348 13.211,36.022 L12.4,34.474 C11.88,33.483 10.561,33.067 9.565,33.588 L4.545,36.219 C3.52,36.756 3.122,38.028 3.659,39.054 L4.41,40.488 C-0.249,45.231 -1.354,52.54 1.754,58.474 C4.429,63.579 9.675,66.751 15.445,66.751 C16.318,66.751 17.194,66.675 18.054,66.526 L18.805,67.962 C19.168,68.653 19.883,69.085 20.669,69.085 C21.005,69.085 21.341,69.003 21.639,68.847 L26.659,66.216 C27.684,65.679 28.082,64.407 27.544,63.38 L26.733,61.833 C29.964,58.368 31.421,53.63 30.695,48.949 L51.206,38.201 C53.481,39.245 56.226,39.186 58.438,38.026 C59.033,37.714 59.429,37.556 59.635,37.556 C59.781,37.631 60.092,38.255 60.342,38.758 C60.476,39.026 60.625,39.326 60.8,39.659 L63.798,45.383 C63.894,45.565 64.058,45.701 64.254,45.763 C64.451,45.825 64.664,45.807 64.846,45.709 L80.133,37.699 C80.133,37.698 80.135,37.698 80.135,37.698 C80.135,37.698 80.136,37.697 80.137,37.697 L84.387,35.469 L84.389,35.469 C84.39,35.468 84.391,35.468 84.391,35.467 L89.282,32.904 C92.191,31.383 85.388,18.04 83.994,15.381 L83.994,15.381 Z M80.104,35.964 L64.856,6.864 L67.735,5.355 L82.983,34.455 L80.104,35.964 L80.104,35.964 Z M64.815,43.975 L62.177,38.94 C62.008,38.618 61.864,38.327 61.735,38.067 C61.139,36.87 60.708,36.004 59.618,36.004 C59.067,36.004 58.461,36.262 57.721,36.65 C55.827,37.643 53.456,37.632 51.554,36.642 C51.329,36.525 51.06,36.526 50.835,36.643 L29.475,47.836 C29.171,47.994 29.008,48.334 29.073,48.671 C29.952,53.215 28.519,57.879 25.239,61.145 C24.998,61.385 24.942,61.754 25.099,62.055 L26.171,64.102 C26.308,64.364 26.203,64.702 25.94,64.84 L20.92,67.469 C20.66,67.608 20.317,67.496 20.181,67.239 L19.162,65.296 C19.026,65.036 18.759,64.88 18.474,64.88 C18.42,64.88 18.366,64.886 18.312,64.898 C17.372,65.097 16.407,65.199 15.444,65.199 C10.254,65.199 5.535,62.345 3.128,57.754 C0.25,52.26 1.388,45.453 5.897,41.203 C6.15,40.965 6.214,40.586 6.052,40.278 L5.032,38.334 C4.892,38.066 4.996,37.735 5.263,37.595 L10.283,34.964 C10.546,34.828 10.887,34.94 11.022,35.195 L12.093,37.24 C12.251,37.541 12.586,37.705 12.922,37.642 C17.398,36.82 22.184,38.341 25.36,41.59 C25.433,41.665 25.521,41.716 25.612,41.755 L27.187,44.76 C27.326,45.025 27.596,45.176 27.875,45.176 C27.997,45.176 28.12,45.148 28.235,45.087 C28.615,44.888 28.761,44.419 28.562,44.039 L27.122,41.291 L47.636,30.542 C47.862,30.425 48.015,30.204 48.046,29.951 C48.319,27.78 49.629,25.883 51.55,24.877 C52.556,24.35 53.179,23.911 53.383,23.23 C53.611,22.476 53.237,21.797 52.671,20.771 C52.53,20.517 52.374,20.232 52.204,19.91 L49.566,14.875 L63.478,7.586 L78.727,36.685 L64.815,43.975 L64.815,43.975 Z M88.469,31.58 L84.359,33.734 L69.111,4.634 L73.221,2.481 C73.65,2.605 74.494,3.419 75.618,4.842 L72.337,6.562 C71.957,6.76 71.81,7.23 72.009,7.61 C72.148,7.875 72.418,8.026 72.697,8.026 C72.819,8.026 72.942,7.998 73.057,7.937 L76.565,6.099 C78.247,8.423 80.366,11.802 82.618,16.1 C87.009,24.48 88.837,30.482 88.469,31.58 L88.469,31.58 Z"></path>
                    <path d="M62.214,11.867 L54.119,16.108 C53.739,16.307 53.593,16.777 53.792,17.157 C53.931,17.422 54.2,17.573 54.48,17.573 C54.601,17.573 54.725,17.544 54.84,17.484 L62.935,13.242 C63.316,13.044 63.461,12.574 63.262,12.194 C63.063,11.813 62.595,11.668 62.214,11.867 L62.214,11.867 Z"></path>
                </g>
            </g>
        </g>
    </g>
</svg>