<?xml version="1.0" encoding="UTF-8" standalone="no"?>
<svg width="488px" height="485px" viewBox="0 0 488 485" version="1.1" xmlns="http://www.w3.org/2000/svg" xmlns:xlink="http://www.w3.org/1999/xlink">
    <!-- Generator: Sketch 3.8.1 (29687) - http://www.bohemiancoding.com/sketch -->
    <title>Slice 1</title>
    <desc>Created with Sketch.</desc>
    <defs></defs>
    <g id="Page-1" stroke="none" stroke-width="1" fill="none" fill-rule="evenodd">
        <g id="noun_378247" fill="#000000">
            <g id="Group">
                <path d="M101.919,142.741 L99.805,138.983 L97.336,134.594 L39.462,158.281 C40.414,159.581 41.427,160.962 42.508,162.431 L45.123,165.981 C46.106,167.313 47.127,168.697 48.184,170.125 L104.388,147.13 L101.919,142.741 L101.919,142.741 Z" id="Shape"></path>
                <path d="M6.702,77.899 L175.278,9.36 C177.614,8.413 178.741,5.752 177.795,3.416 C176.848,1.08 174.187,-0.045 171.851,0.899 L3.274,69.438 C0.938,70.385 -0.189,73.046 0.757,75.382 C1.477,77.156 3.185,78.234 4.989,78.234 C5.56,78.234 6.141,78.126 6.702,77.899 L6.702,77.899 Z" id="Shape"></path>
                <path d="M194.916,49.494 C200.16,47.054 199.81,43.917 197.496,38.842 C196.238,36.082 190.695,21.892 189.335,18.502 C187.975,15.112 183.895,13.078 179.134,14.434 C174.373,15.79 20.886,79.103 13.405,81.815 C5.924,84.527 3.617,90.18 5.365,93.665 C6.327,95.583 11.554,108.68 14.954,115.46 C18.354,122.24 24.475,119.528 29.915,117.494 C29.916,117.494 181.684,55.65 194.916,49.494 L194.916,49.494 Z" id="Shape"></path>
                <path d="M240.911,215.748 L207.676,229.52 L211.885,239.345 L243.499,226.245 C244.31,224.69 241.276,218.229 241.021,216.362 C241,216.205 240.96,215.989 240.911,215.748 L240.911,215.748 Z" id="Shape"></path>
                <path d="M260.958,166.699 L259.732,170.825 C259.25,172.451 258.773,174.06 258.303,175.645 L295.111,190.897 L296.917,186.233 L298.463,182.24 L300.269,177.576 L262.391,161.88 C261.909,163.498 261.431,165.105 260.958,166.699 L260.958,166.699 Z" id="Shape"></path>
                <path d="M255.661,184.597 L254.448,188.729 C253.961,190.39 253.491,192.001 253.039,193.557 L288.406,208.212 L290.212,203.548 L291.758,199.555 L293.564,194.891 L257.082,179.774 C256.598,181.414 256.124,183.023 255.661,184.597 L255.661,184.597 Z" id="Shape"></path>
                <path d="M233.383,188.729 L232.17,184.597 C231.707,183.022 231.233,181.414 230.749,179.774 L194.267,194.891 L196.073,199.555 L197.619,203.548 L199.425,208.212 L234.792,193.557 C234.339,192.001 233.869,190.39 233.383,188.729 L233.383,188.729 Z" id="Shape"></path>
                <path d="M250.452,202.531 L249.282,206.68 C248.767,208.526 248.32,210.16 247.953,211.542 L281.701,225.526 L283.507,220.862 L285.053,216.869 L286.859,212.205 L251.839,197.694 C251.349,199.394 250.884,201.015 250.452,202.531 L250.452,202.531 Z" id="Shape"></path>
                <path d="M228.099,170.825 L226.873,166.699 C226.399,165.105 225.921,163.498 225.439,161.881 L187.561,177.577 L189.367,182.241 L190.913,186.234 L192.719,190.898 L229.527,175.646 C229.058,174.06 228.581,172.451 228.099,170.825 L228.099,170.825 Z" id="Shape"></path>
                <path d="M238.549,206.68 L237.379,202.531 C236.947,201.015 236.482,199.394 235.991,197.694 L200.971,212.205 L202.777,216.869 L204.323,220.862 L206.129,225.526 L239.877,211.542 C239.511,210.16 239.064,208.526 238.549,206.68 L238.549,206.68 Z" id="Shape"></path>
                <path d="M111.084,159.035 L108.97,155.277 L106.501,150.888 L50.808,173.671 C51.808,175.021 52.83,176.4 53.877,177.812 L56.507,181.356 C57.517,182.717 58.54,184.094 59.581,185.494 L113.552,163.424 L111.084,159.035 L111.084,159.035 Z" id="Shape"></path>
                <path d="M246.81,216.361 C246.555,218.228 243.522,224.689 244.332,226.244 L275.946,239.344 L280.155,229.519 L246.92,215.747 C246.871,215.989 246.831,216.205 246.81,216.361 L246.81,216.361 Z" id="Shape"></path>
                <path d="M369.695,171.572 L367.581,175.33 L365.112,179.719 L412.556,199.954 C413.588,198.57 414.617,197.19 415.639,195.819 L418.277,192.278 C419.313,190.886 420.339,189.508 421.356,188.142 L372.164,167.183 L369.695,171.572 L369.695,171.572 Z" id="Shape"></path>
                <path d="M378.86,155.277 L376.746,159.035 L374.277,163.424 L428.248,185.494 C429.289,184.093 430.312,182.716 431.323,181.356 L433.953,177.812 C435,176.401 436.022,175.021 437.022,173.671 L381.329,150.888 L378.86,155.277 L378.86,155.277 Z" id="Shape"></path>
                <path d="M120.25,175.33 L118.136,171.572 L115.667,167.183 L66.475,188.142 C67.492,189.509 68.518,190.887 69.554,192.278 L72.192,195.819 C73.214,197.19 74.242,198.57 75.275,199.954 L122.719,179.719 L120.25,175.33 L120.25,175.33 Z" id="Shape"></path>
                <path d="M355.874,206.03 L353.663,209.748 L351.081,214.09 L385.12,228.195 C386.138,226.836 387.171,225.455 388.213,224.064 L390.86,220.527 C391.883,219.16 392.914,217.781 393.95,216.395 L358.456,201.687 L355.874,206.03 L355.874,206.03 Z" id="Shape"></path>
                <path d="M365.459,189.91 L363.248,193.628 L360.666,197.97 L401.099,215.3 C402.126,213.926 403.155,212.549 404.187,211.167 L406.83,207.628 C407.86,206.249 408.889,204.87 409.916,203.494 L368.041,185.567 L365.459,189.91 L365.459,189.91 Z" id="Shape"></path>
                <path d="M484.557,69.438 L315.981,0.899 C313.645,-0.045 310.984,1.08 310.037,3.416 C309.091,5.752 310.218,8.413 312.554,9.36 L481.13,77.899 C481.692,78.126 482.272,78.234 482.842,78.234 C484.647,78.234 486.355,77.157 487.074,75.382 C488.02,73.047 486.893,70.385 484.557,69.438 L484.557,69.438 Z" id="Shape"></path>
                <path d="M346.288,222.151 L344.077,225.869 L341.495,230.211 L373.627,243.526 C374.631,242.188 375.665,240.81 376.724,239.397 L379.375,235.862 C380.387,234.512 381.421,233.131 382.47,231.732 L348.869,217.809 L346.288,222.151 L346.288,222.151 Z" id="Shape"></path>
                <path d="M474.426,81.815 C466.945,79.103 313.457,15.79 308.697,14.434 C303.937,13.078 299.856,15.112 298.496,18.502 C297.136,21.892 291.594,36.082 290.335,38.842 C288.021,43.918 287.672,47.054 292.915,49.494 C306.146,55.65 457.915,117.494 457.915,117.494 C463.355,119.528 469.476,122.24 472.876,115.46 C476.276,108.68 481.504,95.583 482.465,93.665 C484.214,90.18 481.906,84.527 474.426,81.815 L474.426,81.815 Z" id="Shape"></path>
                <path d="M327.789,71.561 C309.742,56.729 278.954,46.958 244,46.958 C209.154,46.958 178.445,56.669 160.376,71.424 L28.123,125.821 C27.946,127.168 28.196,135.649 28.339,137.358 L28.624,138.045 L145.919,89.687 C145.181,91.44 144.596,93.226 144.171,95.039 L29.451,142.336 L31.365,146.955 L33.857,150.556 C34.687,151.717 35.701,153.121 36.865,154.722 L144.45,110.372 C145.211,113.169 146.351,115.897 147.847,118.54 L137.489,122.477 L156.264,177.711 L154.719,178.429 L158.752,190.432 L152.493,179.397 L149.673,180.605 L122.323,129.224 L106.436,136.155 L133.479,187.546 L130.646,188.76 L140.96,207.591 L143.093,206.611 L178.519,268.701 L174.371,270.314 L180.821,285.919 C179.258,287.028 177.727,288.178 176.226,289.365 L167.332,264.659 L142.665,275.326 C148.998,288.659 143.332,298.326 141.332,309.993 C139.682,319.616 144.833,324.02 146.689,325.269 C139.005,340.227 134.666,357.187 134.666,375.16 C134.666,435.543 183.616,484.493 243.999,484.493 C304.382,484.493 353.333,435.543 353.333,375.16 C353.333,357.152 348.977,340.163 341.265,325.184 C343.216,323.827 348.112,319.407 346.498,309.993 C344.498,298.326 338.831,288.66 345.165,275.326 L320.498,264.659 L311.642,289.259 C310.142,288.076 308.609,286.932 307.047,285.828 L313.459,270.314 L309.311,268.701 L344.737,206.611 L346.87,207.591 L357.184,188.76 L354.351,187.546 L381.394,136.155 L365.507,129.224 L338.157,180.605 L335.337,179.397 L329.078,190.432 L333.111,178.429 L331.566,177.711 L350.341,122.477 L340.123,118.593 C341.622,115.953 342.768,113.228 343.533,110.435 L450.965,154.722 C452.129,153.121 453.143,151.717 453.973,150.556 L456.465,146.955 L458.379,142.336 L343.848,95.117 C343.428,93.306 342.846,91.522 342.113,89.771 L459.206,138.045 L459.491,137.358 C459.634,135.649 459.884,127.168 459.707,125.821 L327.789,71.561 L327.789,71.561 Z M244,83.017 C254.571,83.017 263.141,91.587 263.141,102.158 C263.141,112.729 254.571,121.299 244,121.299 C233.429,121.299 224.859,112.729 224.859,102.158 C224.859,91.587 233.429,83.017 244,83.017 L244,83.017 Z M159.528,199.063 L161.369,198.218 L161.371,198.225 L162.968,197.532 L169.75,216.577 L159.528,199.063 L159.528,199.063 Z M244,419.494 C219.555,419.494 199.667,399.606 199.667,375.161 C199.667,350.715 219.555,330.827 244,330.827 C268.446,330.827 288.334,350.715 288.334,375.161 C288.334,399.607 268.446,419.494 244,419.494 L244,419.494 Z M311.557,168.408 L304.416,188.657 L308.26,190.326 L283.125,258.52 L276.012,255.754 L270.603,269.095 C269.056,268.708 267.499,268.349 265.927,268.029 L274.498,245.661 L248.165,234.661 L243.915,249.648 L239.665,234.661 L213.332,245.661 L221.915,268.06 C220.344,268.382 218.788,268.743 217.242,269.132 L211.818,255.753 L204.704,258.519 L179.569,190.325 L183.413,188.656 L176.272,168.407 L172.229,170.287 L158.859,131.613 C161.466,133.874 164.364,136.025 167.525,138.048 L168.381,140.703 L170.46,139.845 C172.015,140.757 173.626,141.64 175.289,142.492 L169.7,144.791 L171.24,149.565 L172.558,153.653 L174.098,158.427 L194.231,150.147 C196.392,150.822 198.602,151.454 200.859,152.042 L180.854,160.261 L182.66,164.925 L184.206,168.918 L186.012,173.582 L227.352,156.601 C232.767,157.095 238.326,157.357 243.997,157.357 C249.62,157.357 255.132,157.1 260.504,156.614 L301.813,173.582 L303.619,168.918 L305.165,164.925 L306.971,160.261 L287.031,152.069 C289.29,151.482 291.504,150.851 293.666,150.177 L313.727,158.427 L315.267,153.653 L316.585,149.565 L318.125,144.791 L312.63,142.531 C314.295,141.679 315.908,140.797 317.464,139.886 L319.443,140.703 L320.255,138.187 C323.401,136.187 326.289,134.061 328.892,131.826 L315.596,170.286 L311.557,168.408 L311.557,168.408 Z M318.081,216.576 L324.863,197.531 L326.46,198.224 L326.463,198.217 L328.304,199.063 L318.081,216.576 L318.081,216.576 Z" id="Shape"></path>
                <path d="M388.026,138.983 L385.912,142.741 L383.443,147.13 L439.647,170.125 C440.703,168.697 441.725,167.313 442.708,165.981 L445.323,162.431 C446.404,160.961 447.417,159.581 448.369,158.281 L390.495,134.594 L388.026,138.983 L388.026,138.983 Z" id="Shape"></path>
                <path d="M143.753,225.869 L141.542,222.151 L138.96,217.809 L105.359,231.732 C106.407,233.131 107.442,234.512 108.454,235.862 L111.105,239.397 C112.165,240.81 113.198,242.188 114.202,243.526 L146.334,230.211 L143.753,225.869 L143.753,225.869 Z" id="Shape"></path>
                <path d="M153.338,241.989 L151.127,238.271 L148.545,233.929 L116.855,247.06 C117.934,248.497 118.968,249.873 119.956,251.187 L122.612,254.72 C123.739,256.219 124.772,257.59 125.718,258.845 L155.92,246.33 L153.338,241.989 L153.338,241.989 Z" id="Shape"></path>
                <path d="M134.168,209.748 L131.957,206.03 L129.375,201.688 L93.881,216.396 C94.917,217.782 95.949,219.161 96.971,220.528 L99.618,224.065 C100.659,225.456 101.693,226.837 102.711,228.196 L136.75,214.091 L134.168,209.748 L134.168,209.748 Z" id="Shape"></path>
                <path d="M124.583,193.627 L122.372,189.909 L119.79,185.567 L77.915,203.494 C78.942,204.87 79.971,206.249 81,207.628 L83.643,211.167 C84.675,212.548 85.704,213.926 86.731,215.3 L127.164,197.97 L124.583,193.627 L124.583,193.627 Z" id="Shape"></path>
                <path d="M158.131,250.05 L128.382,262.377 C129.959,264.464 133.447,271.055 133.912,271.654 L163.117,259.552 L158.131,250.05 L158.131,250.05 Z" id="Shape"></path>
                <path d="M244,336.827 C222.863,336.827 205.667,354.023 205.667,375.161 C205.667,396.298 222.863,413.494 244,413.494 C265.138,413.494 282.334,396.298 282.334,375.161 C282.334,354.023 265.137,336.827 244,336.827 L244,336.827 Z" id="Shape"></path>
                <path d="M324.715,259.553 L353.92,271.655 C354.384,271.055 357.873,264.464 359.45,262.378 L329.7,250.05 L324.715,259.553 L324.715,259.553 Z" id="Shape"></path>
                <path d="M336.703,238.272 L334.492,241.99 L331.91,246.332 L362.111,258.847 C363.057,257.591 364.089,256.22 365.217,254.722 L367.873,251.189 C368.861,249.875 369.895,248.498 370.974,247.062 L339.285,233.931 L336.703,238.272 L336.703,238.272 Z" id="Shape"></path>
            </g>
        </g>
    </g>
</svg>