<?xml version="1.0" encoding="UTF-8" standalone="no"?>
<svg width="77px" height="99px" viewBox="0 0 77 99" version="1.1" xmlns="http://www.w3.org/2000/svg" xmlns:xlink="http://www.w3.org/1999/xlink">
    <!-- Generator: Sketch 3.8.1 (29687) - http://www.bohemiancoding.com/sketch -->
    <title>Slice 1</title>
    <desc>Created with Sketch.</desc>
    <defs></defs>
    <g id="Page-1" stroke="none" stroke-width="1" fill="none" fill-rule="evenodd">
        <g id="noun_217804_cc" fill="#000000">
            <g id="Group">
                <path d="M4.4,98.2 L72,98.2 C74.4,98.2 76.4,96.2 76.4,93.8 L76.4,4.8 C76.4,2.4 74.4,0.4 72,0.4 L23.4,0.4 L23.4,0.5 C22.9,0.5 22.5,0.6 22.1,1 L0.5,22.8 C0.2,23.1 0.1,23.6 0.1,24 L0,24 L0,93.9 C0,96.2 2,98.2 4.4,98.2 L4.4,98.2 Z M21.6,6.5 L21.6,20.1 C21.6,21.3 20.7,22.2 19.5,22.2 L6,22.2 L21.6,6.5 L21.6,6.5 Z M19.5,25.7 C22.6,25.7 25.1,23.2 25.1,20.1 L25.1,4 L72,4 C72.5,4 72.8,4.4 72.8,4.8 L72.8,93.8 C72.8,94.3 72.4,94.6 72,94.6 L4.4,94.6 C3.9,94.6 3.6,94.2 3.6,93.8 L3.6,25.7 L19.5,25.7 L19.5,25.7 L19.5,25.7 Z" id="Shape"></path>
                <path d="M30.7,21.1 L63.7,21.1 C64.7,21.1 65.5,20.3 65.5,19.3 C65.5,18.3 64.7,17.5 63.7,17.5 L30.7,17.5 C29.7,17.5 28.9,18.3 28.9,19.3 C29,20.3 29.7,21.1 30.7,21.1 L30.7,21.1 Z" id="Shape"></path>
                <path d="M12.6,40.7 L47.3,40.7 C48.3,40.7 49.1,39.9 49.1,38.9 C49.1,37.9 48.3,37.1 47.3,37.1 L12.6,37.1 C11.6,37.1 10.8,37.9 10.8,38.9 C10.8,39.9 11.6,40.7 12.6,40.7 L12.6,40.7 Z" id="Shape"></path>
                <path d="M12.6,59.3 L39,59.3 C40,59.3 40.8,58.5 40.8,57.5 C40.8,56.5 40,55.7 39,55.7 L12.6,55.7 C11.6,55.7 10.8,56.5 10.8,57.5 C10.8,58.5 11.6,59.3 12.6,59.3 L12.6,59.3 Z" id="Shape"></path>
                <path d="M12.6,77.9 L55.5,77.9 C56.5,77.9 57.3,77.1 57.3,76.1 C57.3,75.1 56.5,74.3 55.5,74.3 L12.6,74.3 C11.6,74.3 10.8,75.1 10.8,76.1 C10.8,77.1 11.6,77.9 12.6,77.9 L12.6,77.9 Z" id="Shape"></path>
            </g>
        </g>
    </g>
</svg>