<?xml version="1.0" encoding="UTF-8" standalone="no"?>
<svg width="74px" height="86px" viewBox="0 0 74 86" version="1.1" xmlns="http://www.w3.org/2000/svg" xmlns:xlink="http://www.w3.org/1999/xlink">
    <!-- Generator: Sketch 3.8.1 (29687) - http://www.bohemiancoding.com/sketch -->
    <title>Slice 1</title>
    <desc>Created with Sketch.</desc>
    <defs></defs>
    <g id="Page-1" stroke="none" stroke-width="1" fill="none" fill-rule="evenodd">
        <g id="noun_126363_cc" fill="#ffffff">
            <polygon id="Shape" points="3.808 49.402 3.808 0.677 0.17 0.677 0.17 85.323 6.894 85.323 6.894 49.402"></polygon>
            <path d="M72.854,27.626 L52.404,27.626 L52.404,25.173 L72.853,25.173 C73.397,25.173 73.83,24.736 73.83,24.191 C73.83,23.65 73.397,23.213 72.853,23.213 L52.404,23.213 L52.404,20.365 C52.404,19.877 52.002,19.477 51.513,19.477 L39.672,19.477 C39.184,19.477 38.78,19.876 38.78,20.365 L38.78,32.433 C38.78,32.922 39.183,33.325 39.672,33.325 L51.514,33.325 C52.002,33.325 52.405,32.923 52.405,32.433 L52.405,29.582 L72.854,29.582 C73.398,29.582 73.831,29.149 73.831,28.605 C73.831,28.061 73.397,27.626 72.854,27.626 L72.854,27.626 Z" id="Shape"></path>
            <path d="M13.544,9.335 C13.544,10.156 12.876,10.815 12.065,10.815 C11.25,10.815 10.585,10.156 10.585,9.335 C10.585,8.518 11.25,7.856 12.065,7.856 C12.876,7.855 13.544,8.518 13.544,9.335 L13.544,9.335 Z" id="Shape"></path>
            <path d="M13.544,15.873 C13.544,16.687 12.876,17.353 12.065,17.353 C11.25,17.353 10.585,16.687 10.585,15.873 C10.585,15.049 11.25,14.39 12.065,14.39 C12.876,14.39 13.544,15.049 13.544,15.873 L13.544,15.873 Z" id="Shape"></path>
            <path d="M13.544,22.404 C13.544,23.228 12.876,23.893 12.065,23.893 C11.25,23.893 10.585,23.228 10.585,22.404 C10.585,21.592 11.25,20.927 12.065,20.927 C12.876,20.928 13.544,21.593 13.544,22.404 L13.544,22.404 Z" id="Shape"></path>
            <path d="M13.544,28.944 C13.544,29.765 12.876,30.428 12.065,30.428 C11.25,30.428 10.585,29.765 10.585,28.944 C10.585,28.13 11.25,27.467 12.065,27.467 C12.876,27.468 13.544,28.13 13.544,28.944 L13.544,28.944 Z" id="Shape"></path>
            <path d="M13.544,35.485 C13.544,36.303 12.876,36.965 12.065,36.965 C11.25,36.965 10.585,36.303 10.585,35.485 C10.585,34.668 11.25,34.008 12.065,34.008 C12.876,34.009 13.544,34.668 13.544,35.485 L13.544,35.485 Z" id="Shape"></path>
            <path d="M13.544,42.023 C13.544,42.838 12.876,43.5 12.065,43.5 C11.25,43.5 10.585,42.839 10.585,42.023 C10.585,41.205 11.25,40.541 12.065,40.541 C12.876,40.541 13.544,41.205 13.544,42.023 L13.544,42.023 Z" id="Shape"></path>
            <path d="M8.837,7.116 C8.837,7.934 8.174,8.594 7.355,8.594 C6.539,8.594 5.877,7.935 5.877,7.116 C5.877,6.292 6.538,5.636 7.355,5.636 C8.174,5.636 8.837,6.292 8.837,7.116 L8.837,7.116 Z" id="Shape"></path>
            <path d="M8.837,14.45 C8.837,15.265 8.174,15.933 7.355,15.933 C6.539,15.933 5.877,15.265 5.877,14.45 C5.877,13.633 6.538,12.971 7.355,12.971 C8.174,12.971 8.837,13.633 8.837,14.45 L8.837,14.45 Z" id="Shape"></path>
            <path d="M8.837,21.788 C8.837,22.602 8.174,23.266 7.355,23.266 C6.539,23.266 5.877,22.603 5.877,21.788 C5.877,20.964 6.538,20.308 7.355,20.308 C8.174,20.308 8.837,20.964 8.837,21.788 L8.837,21.788 Z" id="Shape"></path>
            <path d="M8.837,29.119 C8.837,29.936 8.174,30.602 7.355,30.602 C6.539,30.602 5.877,29.936 5.877,29.119 C5.877,28.301 6.538,27.641 7.355,27.641 C8.174,27.642 8.837,28.301 8.837,29.119 L8.837,29.119 Z" id="Shape"></path>
            <path d="M8.837,36.456 C8.837,37.274 8.174,37.939 7.355,37.939 C6.539,37.939 5.877,37.274 5.877,36.456 C5.877,35.632 6.538,34.978 7.355,34.978 C8.174,34.979 8.837,35.632 8.837,36.456 L8.837,36.456 Z" id="Shape"></path>
            <path d="M8.837,43.794 C8.837,44.608 8.174,45.271 7.355,45.271 C6.539,45.271 5.877,44.609 5.877,43.794 C5.877,42.975 6.538,42.314 7.355,42.314 C8.174,42.313 8.837,42.975 8.837,43.794 L8.837,43.794 Z" id="Shape"></path>
            <path d="M18.248,11.285 C18.248,12.106 17.587,12.766 16.774,12.766 C15.954,12.766 15.29,12.106 15.29,11.285 C15.29,10.471 15.954,9.811 16.774,9.811 C17.587,9.812 18.248,10.471 18.248,11.285 L18.248,11.285 Z" id="Shape"></path>
            <path d="M18.248,17.058 C18.248,17.872 17.587,18.536 16.774,18.536 C15.954,18.536 15.29,17.873 15.29,17.058 C15.29,16.237 15.954,15.575 16.774,15.575 C17.587,15.574 18.248,16.236 18.248,17.058 L18.248,17.058 Z" id="Shape"></path>
            <path d="M18.248,22.822 C18.248,23.64 17.587,24.302 16.774,24.302 C15.954,24.302 15.29,23.64 15.29,22.822 C15.29,22.002 15.954,21.345 16.774,21.345 C17.587,21.346 18.248,22.002 18.248,22.822 L18.248,22.822 Z" id="Shape"></path>
            <path d="M18.248,28.594 C18.248,29.408 17.587,30.072 16.774,30.072 C15.954,30.072 15.29,29.409 15.29,28.594 C15.29,27.77 15.954,27.112 16.774,27.112 C17.587,27.111 18.248,27.77 18.248,28.594 L18.248,28.594 Z" id="Shape"></path>
            <path d="M18.248,34.359 C18.248,35.174 17.587,35.834 16.774,35.834 C15.954,35.834 15.29,35.175 15.29,34.359 C15.29,33.542 15.954,32.879 16.774,32.879 C17.587,32.879 18.248,33.542 18.248,34.359 L18.248,34.359 Z" id="Shape"></path>
            <path d="M18.248,40.128 C18.248,40.942 17.587,41.605 16.774,41.605 C15.954,41.605 15.29,40.943 15.29,40.128 C15.29,39.307 15.954,38.648 16.774,38.648 C17.587,38.647 18.248,39.307 18.248,40.128 L18.248,40.128 Z" id="Shape"></path>
            <path d="M22.96,13.062 C22.96,13.883 22.292,14.543 21.477,14.543 C20.665,14.543 19.999,13.883 19.999,13.062 C19.999,12.245 20.665,11.583 21.477,11.583 C22.292,11.582 22.96,12.244 22.96,13.062 L22.96,13.062 Z" id="Shape"></path>
            <path d="M22.96,18.119 C22.96,18.936 22.292,19.602 21.477,19.602 C20.665,19.602 19.999,18.936 19.999,18.119 C19.999,17.302 20.665,16.641 21.477,16.641 C22.292,16.642 22.96,17.302 22.96,18.119 L22.96,18.119 Z" id="Shape"></path>
            <path d="M22.96,23.18 C22.96,23.997 22.292,24.66 21.477,24.66 C20.665,24.66 19.999,23.997 19.999,23.18 C19.999,22.359 20.665,21.7 21.477,21.7 C22.292,21.699 22.96,22.358 22.96,23.18 L22.96,23.18 Z" id="Shape"></path>
            <path d="M22.96,28.233 C22.96,29.052 22.292,29.713 21.477,29.713 C20.665,29.713 19.999,29.052 19.999,28.233 C19.999,27.416 20.665,26.756 21.477,26.756 C22.292,26.757 22.96,27.416 22.96,28.233 L22.96,28.233 Z" id="Shape"></path>
            <path d="M22.96,33.294 C22.96,34.112 22.292,34.774 21.477,34.774 C20.665,34.774 19.999,34.112 19.999,33.294 C19.999,32.477 20.665,31.817 21.477,31.817 C22.292,31.817 22.96,32.477 22.96,33.294 L22.96,33.294 Z" id="Shape"></path>
            <path d="M22.96,38.354 C22.96,39.168 22.292,39.834 21.477,39.834 C20.665,39.834 19.999,39.168 19.999,38.354 C19.999,37.537 20.665,36.871 21.477,36.871 C22.292,36.871 22.96,37.537 22.96,38.354 L22.96,38.354 Z" id="Shape"></path>
            <path d="M27.664,15.574 C27.664,16.391 26.999,17.057 26.182,17.057 C25.367,17.057 24.701,16.391 24.701,15.574 C24.701,14.756 25.367,14.096 26.182,14.096 C26.999,14.097 27.664,14.756 27.664,15.574 L27.664,15.574 Z" id="Shape"></path>
            <path d="M27.664,19.773 C27.664,20.59 26.999,21.256 26.182,21.256 C25.367,21.256 24.701,20.59 24.701,19.773 C24.701,18.959 25.367,18.293 26.182,18.293 C26.999,18.293 27.664,18.959 27.664,19.773 L27.664,19.773 Z" id="Shape"></path>
            <path d="M27.664,23.979 C27.664,24.797 26.999,25.457 26.182,25.457 C25.367,25.457 24.701,24.798 24.701,23.979 C24.701,23.16 25.367,22.496 26.182,22.496 C26.999,22.496 27.664,23.161 27.664,23.979 L27.664,23.979 Z" id="Shape"></path>
            <path d="M27.664,28.176 C27.664,28.997 26.999,29.656 26.182,29.656 C25.367,29.656 24.701,28.997 24.701,28.176 C24.701,27.362 25.367,26.699 26.182,26.699 C26.999,26.699 27.664,27.361 27.664,28.176 L27.664,28.176 Z" id="Shape"></path>
            <path d="M27.664,32.379 C27.664,33.196 26.999,33.859 26.182,33.859 C25.367,33.859 24.701,33.196 24.701,32.379 C24.701,31.564 25.367,30.899 26.182,30.899 C26.999,30.898 27.664,31.563 27.664,32.379 L27.664,32.379 Z" id="Shape"></path>
            <path d="M27.664,36.578 C27.664,37.399 26.999,38.061 26.182,38.061 C25.367,38.061 24.701,37.399 24.701,36.578 C24.701,35.763 25.367,35.103 26.182,35.103 C26.999,35.104 27.664,35.763 27.664,36.578 L27.664,36.578 Z" id="Shape"></path>
            <path d="M32.371,17.68 C32.371,18.497 31.712,19.16 30.893,19.16 C30.076,19.16 29.41,18.497 29.41,17.68 C29.41,16.859 30.076,16.2 30.893,16.2 C31.712,16.199 32.371,16.858 32.371,17.68 L32.371,17.68 Z" id="Shape"></path>
            <path d="M32.371,21.077 C32.371,21.897 31.712,22.562 30.893,22.562 C30.076,22.562 29.41,21.897 29.41,21.077 C29.41,20.262 30.076,19.602 30.893,19.602 C31.712,19.603 32.371,20.262 32.371,21.077 L32.371,21.077 Z" id="Shape"></path>
            <path d="M32.371,24.483 C32.371,25.3 31.712,25.96 30.893,25.96 C30.076,25.96 29.41,25.301 29.41,24.483 C29.41,23.662 30.076,23 30.893,23 C31.712,23 32.371,23.662 32.371,24.483 L32.371,24.483 Z" id="Shape"></path>
            <path d="M32.371,27.886 C32.371,28.701 31.712,29.358 30.893,29.358 C30.076,29.358 29.41,28.702 29.41,27.886 C29.41,27.063 30.076,26.403 30.893,26.403 C31.712,26.402 32.371,27.063 32.371,27.886 L32.371,27.886 Z" id="Shape"></path>
            <path d="M32.371,31.286 C32.371,32.103 31.712,32.761 30.893,32.761 C30.076,32.761 29.41,32.104 29.41,31.286 C29.41,30.465 30.076,29.803 30.893,29.803 C31.712,29.803 32.371,30.465 32.371,31.286 L32.371,31.286 Z" id="Shape"></path>
            <path d="M32.371,34.686 C32.371,35.501 31.712,36.164 30.893,36.164 C30.076,36.164 29.41,35.502 29.41,34.686 C29.41,33.865 30.076,33.204 30.893,33.204 C31.712,33.203 32.371,33.864 32.371,34.686 L32.371,34.686 Z" id="Shape"></path>
            <path d="M37.077,19.45 C37.077,20.271 36.418,20.928 35.594,20.928 C34.788,20.928 34.123,20.272 34.123,19.45 C34.123,18.633 34.788,17.97 35.594,17.97 C36.418,17.97 37.077,18.633 37.077,19.45 L37.077,19.45 Z" id="Shape"></path>
            <path d="M37.077,22.136 C37.077,22.957 36.418,23.614 35.594,23.614 C34.788,23.614 34.123,22.958 34.123,22.136 C34.123,21.319 34.788,20.658 35.594,20.658 C36.418,20.658 37.077,21.318 37.077,22.136 L37.077,22.136 Z" id="Shape"></path>
            <path d="M37.077,24.822 C37.077,25.639 36.418,26.304 35.594,26.304 C34.788,26.304 34.123,25.639 34.123,24.822 C34.123,24 34.788,23.342 35.594,23.342 C36.418,23.342 37.077,24 37.077,24.822 L37.077,24.822 Z" id="Shape"></path>
            <path d="M37.077,27.508 C37.077,28.325 36.418,28.988 35.594,28.988 C34.788,28.988 34.123,28.325 34.123,27.508 C34.123,26.687 34.788,26.028 35.594,26.028 C36.418,26.027 37.077,26.687 37.077,27.508 L37.077,27.508 Z" id="Shape"></path>
            <path d="M37.077,30.189 C37.077,31.011 36.418,31.67 35.594,31.67 C34.788,31.67 34.123,31.011 34.123,30.189 C34.123,29.375 34.788,28.715 35.594,28.715 C36.418,28.716 37.077,29.375 37.077,30.189 L37.077,30.189 Z" id="Shape"></path>
            <path d="M37.077,32.879 C37.077,33.693 36.418,34.359 35.594,34.359 C34.788,34.359 34.123,33.693 34.123,32.879 C34.123,32.062 34.788,31.4 35.594,31.4 C36.418,31.399 37.077,32.062 37.077,32.879 L37.077,32.879 Z" id="Shape"></path>
            <rect id="Rectangle-path" x="8.372" y="55.903" width="3.311" height="3.309"></rect>
            <rect id="Rectangle-path" x="13.175" y="61.545" width="3.306" height="3.309"></rect>
            <rect id="Rectangle-path" x="9.942" y="67.313" width="3.313" height="3.309"></rect>
            <rect id="Rectangle-path" x="15.466" y="73.319" width="3.31" height="3.309"></rect>
        </g>
    </g>
</svg>