<?xml version="1.0" encoding="UTF-8" standalone="no"?>
<svg width="46px" height="60px" viewBox="0 0 46 60" version="1.1" xmlns="http://www.w3.org/2000/svg" xmlns:xlink="http://www.w3.org/1999/xlink">
    <!-- Generator: Sketch 3.8.1 (29687) - http://www.bohemiancoding.com/sketch -->
    <title>Slice 1</title>
    <desc>Created with Sketch.</desc>
    <defs></defs>
    <g id="Page-1" stroke="none" stroke-width="1" fill="none" fill-rule="evenodd">
        <g id="noun_121237_cc" fill="#000000">
            <g id="Group">
                <path d="M28.942,45.302 C34.864,43.716 39.814,39.918 42.88,34.609 C45.944,29.299 46.759,23.113 45.173,17.191 C42.488,7.17 33.376,0.171 23.014,0.171 C21.014,0.171 19.01,0.436 17.06,0.959 C11.138,2.546 6.188,6.344 3.122,11.654 C0.056,16.965 -0.758,23.151 0.829,29.073 C3.148,37.729 10.267,44.117 18.842,45.7 L18.842,48.069 L13.65,48.069 C13.098,48.069 12.65,48.516 12.65,49.069 L12.65,49.255 L6.104,49.255 C5.552,49.255 5.104,49.702 5.104,50.255 C5.104,50.808 5.552,51.255 6.104,51.255 L12.65,51.255 L12.65,56.647 L6.104,56.647 C5.552,56.647 5.104,57.094 5.104,57.647 C5.104,58.2 5.552,58.647 6.104,58.647 L12.65,58.647 L12.65,58.832 C12.65,59.385 13.098,59.832 13.65,59.832 L32.35,59.832 C32.903,59.832 33.35,59.385 33.35,58.832 L33.35,58.647 L39.897,58.647 C40.45,58.647 40.897,58.2 40.897,57.647 C40.897,57.094 40.45,56.647 39.897,56.647 L33.35,56.647 L33.35,51.255 L39.897,51.255 C40.45,51.255 40.897,50.808 40.897,50.255 C40.897,49.702 40.45,49.255 39.897,49.255 L33.35,49.255 L33.35,49.069 C33.35,48.516 32.903,48.069 32.35,48.069 L27.16,48.069 L27.16,45.697 C27.758,45.586 28.354,45.46 28.942,45.302 L28.942,45.302 Z M16.705,57.83 L14.651,57.83 L14.651,50.068 L16.705,50.068 L16.705,57.83 L16.705,57.83 Z M29.297,50.068 L31.351,50.068 L31.351,57.83 L29.297,57.83 L29.297,50.068 L29.297,50.068 Z M27.297,50.068 L27.297,57.83 L18.705,57.83 L18.705,50.068 L27.297,50.068 L27.297,50.068 Z M20.841,48.068 L20.841,45.98 C21.55,46.046 22.265,46.088 22.987,46.088 C23.599,46.088 24.21,46.055 24.82,46.005 C24.933,45.997 25.046,46.001 25.159,45.991 L25.159,48.067 L20.841,48.067 L20.841,48.068 Z M24.396,44.04 C22.921,44.13 21.439,44.068 19.993,43.847 C19.972,43.844 19.951,43.853 19.931,43.851 C11.781,42.644 4.943,36.7 2.761,28.555 C1.312,23.148 2.055,17.501 4.854,12.653 C7.653,7.806 12.171,4.339 17.578,2.89 C19.359,2.413 21.189,2.171 23.015,2.171 C32.474,2.171 40.791,8.56 43.243,17.709 C44.691,23.116 43.947,28.763 41.149,33.61 C38.351,38.457 33.833,41.923 28.426,43.372 C27.102,43.725 25.751,43.948 24.396,44.04 L24.396,44.04 Z M36.634,36.408 C37.12,35.908 37.568,35.387 37.988,34.855 C38.008,34.834 38.034,34.827 38.051,34.804 C38.15,34.677 38.235,34.542 38.329,34.413 C38.524,34.15 38.717,33.887 38.896,33.618 C39,33.461 39.095,33.299 39.195,33.139 C39.29,32.986 39.39,32.834 39.48,32.68 C39.487,32.67 39.495,32.663 39.501,32.654 C39.505,32.647 39.505,32.639 39.508,32.633 C39.534,32.588 39.553,32.541 39.578,32.496 C39.845,32.027 40.091,31.551 40.315,31.063 C40.334,31.023 40.355,30.984 40.374,30.944 C40.861,29.866 41.244,28.747 41.52,27.597 C41.57,27.39 41.606,27.182 41.649,26.974 C41.717,26.641 41.782,26.308 41.833,25.971 C41.876,25.687 41.908,25.402 41.938,25.116 C41.965,24.851 41.987,24.585 42.003,24.317 C42.022,24.006 42.037,23.695 42.041,23.382 C42.042,23.298 42.051,23.215 42.051,23.13 C42.051,23.13 42.051,23.13 42.051,23.129 L42.051,23.129 C42.051,22.984 42.032,22.845 42.03,22.701 C42.02,22.302 42.005,21.904 41.969,21.504 C41.944,21.21 41.906,20.92 41.867,20.629 C41.826,20.323 41.783,20.018 41.726,19.712 C41.662,19.356 41.582,19.004 41.497,18.655 C41.46,18.504 41.438,18.351 41.398,18.2 C41.371,18.099 41.332,18.003 41.302,17.903 C41.202,17.555 41.091,17.215 40.973,16.875 C40.878,16.603 40.782,16.332 40.676,16.065 C40.567,15.794 40.449,15.529 40.328,15.264 C40.178,14.93 40.021,14.599 39.851,14.275 C39.758,14.1 39.661,13.928 39.563,13.756 C39.547,13.729 39.534,13.702 39.518,13.675 C39.506,13.652 39.507,13.626 39.494,13.603 C39.483,13.584 39.464,13.574 39.452,13.556 C39.264,13.232 39.069,12.916 38.863,12.605 C38.796,12.504 38.726,12.407 38.658,12.308 C38.369,11.891 38.068,11.483 37.747,11.091 C37.693,11.026 37.637,10.963 37.583,10.898 C37.247,10.499 36.898,10.111 36.53,9.74 C36.457,9.666 36.379,9.595 36.304,9.522 C35.955,9.183 35.599,8.853 35.224,8.541 C35.086,8.425 34.943,8.318 34.801,8.206 C34.482,7.954 34.158,7.706 33.821,7.473 C33.592,7.314 33.353,7.168 33.116,7.019 C32.92,6.896 32.734,6.76 32.533,6.643 C32.528,6.64 32.525,6.635 32.52,6.632 C32.515,6.629 32.51,6.63 32.505,6.627 C32.414,6.575 32.32,6.53 32.23,6.48 C32.102,6.409 31.973,6.342 31.843,6.274 C31.454,6.069 31.059,5.878 30.657,5.702 C30.544,5.652 30.433,5.597 30.318,5.549 C29.845,5.352 29.364,5.179 28.878,5.021 C28.704,4.964 28.528,4.913 28.353,4.861 C27.937,4.738 27.517,4.63 27.094,4.536 C26.98,4.511 26.868,4.479 26.753,4.456 C26.22,4.348 25.681,4.27 25.139,4.209 C25,4.193 24.862,4.18 24.723,4.167 C24.155,4.115 23.585,4.08 23.013,4.08 L23.002,4.08 L22.995,4.08 C22.995,4.08 22.995,4.08 22.994,4.08 L22.994,4.08 C22.983,4.08 22.973,4.081 22.961,4.081 C22.412,4.083 21.867,4.116 21.325,4.164 C21.146,4.18 20.968,4.197 20.79,4.218 C20.336,4.272 19.885,4.339 19.439,4.425 C19.177,4.475 18.92,4.536 18.662,4.596 C18.363,4.666 18.066,4.741 17.771,4.825 C17.507,4.9 17.246,4.979 16.988,5.065 C16.722,5.154 16.461,5.254 16.199,5.354 C15.799,5.508 15.407,5.673 15.02,5.852 C14.789,5.959 14.56,6.068 14.333,6.184 C14.096,6.306 13.86,6.429 13.629,6.56 C13.599,6.577 13.568,6.592 13.538,6.609 C13.516,6.62 13.492,6.619 13.471,6.631 C13.45,6.644 13.437,6.665 13.417,6.679 C13.145,6.837 12.879,7.005 12.615,7.177 C12.42,7.304 12.229,7.437 12.039,7.571 C11.724,7.793 11.415,8.023 11.113,8.263 C10.98,8.37 10.846,8.477 10.716,8.587 C10.308,8.931 9.91,9.286 9.531,9.664 C9.53,9.665 9.528,9.667 9.527,9.668 C9.135,10.059 8.765,10.474 8.407,10.9 C8.339,10.981 8.271,11.063 8.204,11.145 C7.582,11.911 7.01,12.723 6.508,13.589 C6.505,13.595 6.499,13.598 6.496,13.603 C6.493,13.609 6.493,13.616 6.49,13.622 C6.446,13.7 6.41,13.78 6.367,13.858 C6.254,14.061 6.15,14.268 6.044,14.475 C5.896,14.765 5.752,15.057 5.621,15.352 C5.504,15.611 5.395,15.874 5.29,16.139 C5.196,16.378 5.109,16.618 5.026,16.858 C4.914,17.177 4.806,17.497 4.711,17.823 C4.67,17.965 4.638,18.108 4.601,18.25 C4.246,19.589 4.034,20.982 3.98,22.418 C3.98,22.43 3.979,22.443 3.978,22.455 C3.97,22.68 3.944,22.9 3.944,23.127 L3.944,23.127 L3.944,23.128 C3.944,26.501 4.821,29.725 6.477,32.596 C6.486,32.614 6.486,32.634 6.496,32.653 C6.515,32.685 6.54,32.709 6.562,32.738 C6.979,33.448 7.431,34.142 7.945,34.803 C7.973,34.84 8.014,34.859 8.046,34.89 C8.457,35.412 8.887,35.924 9.358,36.408 C9.546,36.6 9.805,36.71 10.074,36.71 L35.912,36.71 C36.188,36.711 36.445,36.602 36.634,36.408 L36.634,36.408 Z M10.508,34.711 C9.863,34.016 9.287,33.274 8.777,32.498 L9.596,32.027 C10.075,31.752 10.24,31.14 9.964,30.661 C9.689,30.183 9.078,30.017 8.599,30.293 L7.789,30.758 C6.751,28.681 6.152,26.424 6.014,24.13 L6.944,24.131 L6.945,24.131 C7.497,24.131 7.945,23.684 7.945,23.132 C7.945,22.58 7.498,22.132 6.946,22.131 L6.006,22.13 C6.073,20.946 6.262,19.767 6.577,18.609 C6.6,18.523 6.619,18.434 6.644,18.349 C6.728,18.057 6.831,17.768 6.932,17.48 C7.006,17.272 7.078,17.063 7.16,16.858 C7.254,16.62 7.355,16.384 7.46,16.15 C7.56,15.928 7.668,15.711 7.776,15.494 L8.596,15.968 C8.753,16.059 8.926,16.102 9.096,16.102 C9.441,16.102 9.777,15.923 9.963,15.602 C10.239,15.124 10.076,14.513 9.598,14.236 L8.771,13.758 C8.805,13.708 8.832,13.653 8.865,13.603 C8.867,13.6 8.87,13.597 8.873,13.593 C9.149,13.185 9.447,12.793 9.757,12.411 C9.822,12.331 9.887,12.252 9.953,12.174 C10.265,11.804 10.587,11.444 10.928,11.101 C10.938,11.092 10.947,11.081 10.956,11.072 C11.29,10.738 11.644,10.424 12.005,10.119 C12.128,10.015 12.252,9.915 12.377,9.815 C12.637,9.607 12.905,9.409 13.177,9.216 C13.328,9.11 13.477,9.001 13.632,8.9 L14.107,9.724 C14.292,10.045 14.628,10.224 14.974,10.224 C15.143,10.224 15.315,10.181 15.473,10.09 C15.952,9.814 16.116,9.203 15.84,8.724 L15.367,7.904 C15.525,7.824 15.685,7.748 15.846,7.673 C16.212,7.504 16.583,7.347 16.96,7.204 C17.178,7.121 17.396,7.037 17.619,6.962 C17.855,6.883 18.095,6.812 18.335,6.743 C18.59,6.67 18.849,6.605 19.108,6.544 C19.35,6.486 19.593,6.431 19.838,6.384 C20.229,6.31 20.625,6.249 21.025,6.202 C21.187,6.183 21.349,6.168 21.512,6.153 C21.674,6.139 21.84,6.137 22.004,6.128 L22.005,7.073 C22.005,7.625 22.453,8.072 23.005,8.072 L23.006,8.072 C23.559,8.072 24.006,7.623 24.005,7.071 L24.004,6.128 C24.186,6.139 24.37,6.139 24.55,6.156 C24.674,6.167 24.798,6.178 24.921,6.193 C25.409,6.248 25.893,6.319 26.367,6.414 C26.469,6.435 26.569,6.463 26.671,6.485 C27.051,6.568 27.425,6.666 27.795,6.775 C27.954,6.822 28.113,6.869 28.272,6.92 C28.707,7.062 29.135,7.215 29.553,7.39 C29.662,7.436 29.769,7.489 29.877,7.537 C30.136,7.652 30.387,7.778 30.639,7.905 L30.166,8.725 C29.89,9.204 30.055,9.815 30.533,10.091 C30.69,10.182 30.862,10.225 31.031,10.225 C31.377,10.225 31.714,10.045 31.898,9.725 L32.369,8.909 C32.478,8.981 32.593,9.048 32.7,9.122 C32.991,9.324 33.271,9.539 33.549,9.758 C33.686,9.864 33.823,9.969 33.956,10.08 C34.281,10.353 34.594,10.64 34.897,10.936 C34.972,11.009 35.049,11.08 35.124,11.154 C35.445,11.479 35.752,11.819 36.047,12.17 C36.102,12.234 36.157,12.298 36.211,12.363 C36.493,12.708 36.758,13.067 37.012,13.433 C37.078,13.528 37.146,13.621 37.209,13.718 C37.218,13.732 37.226,13.747 37.235,13.761 L36.409,14.24 C35.93,14.517 35.767,15.129 36.045,15.606 C36.231,15.926 36.566,16.105 36.911,16.105 C37.081,16.105 37.254,16.062 37.411,15.97 L38.229,15.496 C38.327,15.69 38.422,15.886 38.512,16.084 C38.62,16.324 38.729,16.564 38.826,16.811 C38.921,17.047 39.006,17.288 39.09,17.529 C39.195,17.834 39.297,18.141 39.387,18.454 C39.45,18.675 39.505,18.899 39.56,19.124 C39.636,19.44 39.707,19.757 39.765,20.074 C39.814,20.342 39.854,20.613 39.89,20.886 C39.925,21.151 39.958,21.415 39.982,21.68 C39.995,21.829 39.996,21.982 40.004,22.132 L39.059,22.133 C38.506,22.133 38.059,22.582 38.06,23.134 C38.061,23.686 38.508,24.133 39.06,24.133 L39.061,24.133 L40.014,24.132 C40.013,24.149 40.013,24.165 40.012,24.181 C39.997,24.429 39.978,24.676 39.951,24.922 C39.926,25.17 39.896,25.418 39.859,25.664 C39.812,25.977 39.754,26.288 39.689,26.598 C39.653,26.772 39.622,26.947 39.581,27.12 C39.332,28.147 38.991,29.155 38.55,30.132 C38.538,30.158 38.524,30.182 38.512,30.208 C38.426,30.397 38.32,30.58 38.226,30.766 L37.407,30.295 C36.928,30.02 36.317,30.184 36.041,30.663 C35.766,31.142 35.931,31.754 36.409,32.029 L37.216,32.493 C37.078,32.701 36.954,32.913 36.806,33.116 C36.769,33.167 36.734,33.22 36.697,33.269 C36.326,33.763 35.926,34.246 35.492,34.712 L10.508,34.712 L10.508,34.711 Z M20.768,13.257 C20.528,12.907 20.093,12.746 19.684,12.856 C19.274,12.966 18.978,13.323 18.946,13.746 C18.811,15.522 18.163,24.478 18.678,26.399 C19.201,28.355 20.978,29.72 23,29.72 C23.391,29.72 23.782,29.668 24.163,29.566 C26.547,28.927 27.968,26.467 27.33,24.082 C26.812,22.16 21.772,14.728 20.768,13.257 L20.768,13.257 Z M23.644,27.634 C22.339,27.983 20.955,27.173 20.609,25.881 C20.351,24.919 20.514,20.562 20.742,16.805 C22.818,19.944 25.138,23.637 25.397,24.599 C25.749,25.919 24.963,27.281 23.644,27.634 L23.644,27.634 Z M21.94,23.99 C21.66,24.27 21.5,24.65 21.5,25.05 C21.5,25.44 21.66,25.83 21.94,26.11 C22.22,26.39 22.6,26.55 23,26.55 C23.39,26.55 23.78,26.39 24.06,26.11 C24.34,25.83 24.5,25.44 24.5,25.05 C24.5,24.65 24.34,24.27 24.06,23.99 C23.5,23.43 22.5,23.43 21.94,23.99 L21.94,23.99 Z M27.16,38.505 L18.847,38.505 C18.295,38.505 17.847,38.952 17.847,39.505 C17.847,40.058 18.295,40.505 18.847,40.505 L27.16,40.505 C27.713,40.505 28.16,40.058 28.16,39.505 C28.16,38.952 27.713,38.505 27.16,38.505 L27.16,38.505 Z" id="Shape"></path>
            </g>
        </g>
    </g>
</svg>