<?xml version="1.0" encoding="UTF-8" standalone="no"?>
<svg width="106px" height="128px" viewBox="0 0 106 128" version="1.1" xmlns="http://www.w3.org/2000/svg" xmlns:xlink="http://www.w3.org/1999/xlink">
    <!-- Generator: Sketch 3.8.1 (29687) - http://www.bohemiancoding.com/sketch -->
    <title>Slice 1</title>
    <desc>Created with Sketch.</desc>
    <defs></defs>
    <g id="Page-1" stroke="none" stroke-width="1" fill="none" fill-rule="evenodd">
        <g id="noun_273163_cc" fill="#000000">
            <g id="Group">
                <g id="Shape">
                    <path d="M95.4,114.6 L10.6,114.6 C9.5,114.6 8.6,113.7 8.6,112.7 C8.5,107.8 8.7,102.5 9.4,97 C10.7,85.6 13.5,73.6 17.5,62.2 C22.6,47.8 24.8,36.5 25.1,24.3 C25.1,23.2 26,22.3 27.1,22.3 L79,22.3 C80,22.3 80.9,23.1 81,24.1 L81,24.2 C81.3,36.5 83.5,47.8 88.6,62.1 C92.6,73.5 95.4,85.5 96.7,96.9 C97.3,102.4 97.6,107.7 97.5,112.6 C97.4,113.7 96.5,114.6 95.4,114.6 L95.4,114.6 Z M12.6,110.6 L93.5,110.6 C93.5,106.4 93.3,102 92.7,97.4 C91.4,86.3 88.7,74.6 84.8,63.5 C79.9,49.5 77.5,38.2 77.1,26.3 L29,26.3 C28.5,38.2 26.2,49.4 21.2,63.5 C17.3,74.6 14.5,86.3 13.3,97.4 C12.8,102 12.5,106.4 12.6,110.6 L12.6,110.6 Z"></path>
                    <path d="M103.9,127.5 L2.1,127.5 C1,127.5 0.1,126.6 0.1,125.5 L0.1,112.6 C0.1,111.5 1,110.6 2.1,110.6 L103.9,110.6 C105,110.6 105.9,111.5 105.9,112.6 L105.9,125.5 C105.9,126.6 105,127.5 103.9,127.5 L103.9,127.5 Z M4.1,123.5 L101.9,123.5 L101.9,114.6 L4.1,114.6 L4.1,123.5 L4.1,123.5 Z"></path>
                    <path d="M70,17.6 C68.9,17.6 68,16.7 68,15.6 L68,7.2 C68,6.1 68.9,5.2 70,5.2 C71.1,5.2 72,6.1 72,7.2 L72,15.6 C72,16.7 71.1,17.6 70,17.6 L70,17.6 Z"></path>
                    <path d="M53,17.6 C51.9,17.6 51,16.7 51,15.6 L51,2.5 C51,1.4 51.9,0.5 53,0.5 C54.1,0.5 55,1.4 55,2.5 L55,15.6 C55,16.7 54.1,17.6 53,17.6 L53,17.6 Z"></path>
                    <path d="M36,17.6 C34.9,17.6 34,16.7 34,15.6 L34,7.2 C34,6.1 34.9,5.2 36,5.2 C37.1,5.2 38,6.1 38,7.2 L38,15.6 C38,16.7 37.1,17.6 36,17.6 L36,17.6 Z"></path>
                    <path d="M53,105 C38.5,105 26.7,93.2 26.7,78.7 C26.7,64.2 38.5,52.3 53,52.3 C67.5,52.3 79.3,64.1 79.3,78.6 C79.3,93.1 67.5,105 53,105 L53,105 Z M53,54.3 C39.6,54.3 28.7,65.2 28.7,78.6 C28.7,92 39.6,103 53,103 C66.4,103 77.3,92.1 77.3,78.7 C77.3,65.3 66.4,54.3 53,54.3 L53,54.3 Z"></path>
                    <path d="M53,87.2 C48.3,87.2 44.4,83.4 44.4,78.6 C44.4,73.8 48.2,70 53,70 C57.8,70 61.6,73.8 61.6,78.6 C61.6,83.4 57.7,87.2 53,87.2 L53,87.2 Z M53,72.1 C49.4,72.1 46.4,75.1 46.4,78.7 C46.4,82.3 49.3,85.3 53,85.3 C56.7,85.3 59.6,82.4 59.6,78.7 C59.6,75 56.6,72.1 53,72.1 L53,72.1 Z"></path>
                    <path d="M71.2,79.6 L60.6,79.6 C60,79.6 59.6,79.2 59.6,78.6 C59.6,76.4 58.5,74.3 56.6,73.1 C56.1,72.8 56,72.2 56.3,71.7 L62,62.8 C62.1,62.6 62.4,62.4 62.6,62.4 C62.9,62.3 63.1,62.4 63.4,62.5 C68.9,66.1 72.2,72.1 72.2,78.7 C72.2,79.2 71.8,79.6 71.2,79.6 L71.2,79.6 Z M61.5,77.6 L70.2,77.6 C69.9,72.4 67.3,67.7 63.1,64.7 L58.5,72 C60.2,73.4 61.3,75.4 61.5,77.6 L61.5,77.6 Z"></path>
                    <path d="M53,97.8 C49.3,97.8 45.7,96.7 42.6,94.7 C42.1,94.4 42,93.8 42.3,93.3 L48,84.4 C48.1,84.2 48.4,84 48.6,84 C48.9,83.9 49.1,84 49.4,84.1 C51.5,85.5 54.4,85.5 56.5,84.1 C56.7,84 57,83.9 57.3,84 C57.6,84.1 57.8,84.2 57.9,84.4 L63.6,93.3 C63.9,93.8 63.8,94.4 63.3,94.7 C60.3,96.8 56.7,97.8 53,97.8 L53,97.8 Z M44.6,93.6 C47.2,95.1 50.1,95.8 53,95.8 C56,95.8 58.9,95 61.4,93.6 L56.7,86.3 C54.4,87.4 51.5,87.4 49.2,86.3 L44.6,93.6 L44.6,93.6 Z"></path>
                    <path d="M45.4,79.6 L34.8,79.6 C34.2,79.6 33.8,79.2 33.8,78.6 C33.8,72 37.1,66 42.6,62.4 C42.8,62.3 43.1,62.2 43.4,62.3 C43.7,62.4 43.9,62.5 44,62.7 L49.7,71.6 C50,72.1 49.9,72.7 49.4,73 C47.5,74.2 46.4,76.3 46.4,78.5 C46.4,79.2 46,79.6 45.4,79.6 L45.4,79.6 Z M35.8,77.6 L44.5,77.6 C44.8,75.4 45.9,73.4 47.6,72 L42.9,64.7 C38.7,67.8 36.1,72.5 35.8,77.6 L35.8,77.6 Z"></path>
                </g>
            </g>
        </g>
    </g>
</svg>