<?xml version="1.0" encoding="UTF-8" standalone="no"?>
<svg width="36px" height="49px" viewBox="0 0 36 49" version="1.1" xmlns="http://www.w3.org/2000/svg" xmlns:xlink="http://www.w3.org/1999/xlink">
    <!-- Generator: Sketch 3.8.1 (29687) - http://www.bohemiancoding.com/sketch -->
    <title>Slice 1</title>
    <desc>Created with Sketch.</desc>
    <defs></defs>
    <g id="Page-1" stroke="none" stroke-width="1" fill="none" fill-rule="evenodd">
        <g id="noun_123702_cc" fill="#000000">
            <g id="Group">
                <g id="Shape">
                    <path d="M28.913,48 L7.087,48 C3.256,48 0.14,45.382 0.14,42.163 C0.14,38.944 3.256,36.325 7.087,36.325 L11.452,36.325 L11.452,18.117 C11.452,17.565 11.9,17.117 12.452,17.117 L23.549,17.117 C24.102,17.117 24.549,17.565 24.549,18.117 L24.549,36.325 L28.913,36.325 C32.743,36.325 35.859,38.944 35.859,42.163 C35.859,45.382 32.743,48 28.913,48 L28.913,48 Z M7.087,38.325 C4.359,38.325 2.14,40.047 2.14,42.163 C2.14,44.243 4.405,46 7.087,46 L28.913,46 C31.595,46 33.859,44.243 33.859,42.163 C33.859,40.047 31.64,38.325 28.913,38.325 L23.549,38.325 C22.996,38.325 22.549,37.878 22.549,37.325 L22.549,19.117 L13.452,19.117 L13.452,37.325 C13.452,37.878 13.004,38.325 12.452,38.325 L7.087,38.325 L7.087,38.325 Z"></path>
                    <path d="M28.113,28.085 L23.98,28.085 C23.427,28.085 22.98,27.638 22.98,27.085 C22.98,26.532 23.427,26.085 23.98,26.085 L28.113,26.085 C28.666,26.085 29.113,26.532 29.113,27.085 C29.113,27.638 28.666,28.085 28.113,28.085 L28.113,28.085 Z"></path>
                    <path d="M28.113,32.492 C27.56,32.492 27.113,32.045 27.113,31.492 L27.113,23.044 C27.113,22.492 27.56,22.044 28.113,22.044 C28.666,22.044 29.113,22.492 29.113,23.044 L29.113,31.492 C29.113,32.045 28.666,32.492 28.113,32.492 L28.113,32.492 Z"></path>
                    <path d="M18,16.491 C14.621,16.491 11.872,13.742 11.872,10.364 C11.872,7.276 16.666,1.079 17.213,0.382 C17.592,-0.1 18.407,-0.1 18.786,0.382 C19.333,1.079 24.128,7.276 24.128,10.364 C24.128,13.743 21.379,16.491 18,16.491 L18,16.491 Z M18,2.655 C16.155,5.165 13.872,8.79 13.872,10.364 C13.872,12.639 15.724,14.491 18,14.491 C20.276,14.491 22.128,12.639 22.128,10.364 C22.128,8.788 19.845,5.164 18,2.655 L18,2.655 Z"></path>
                </g>
            </g>
        </g>
    </g>
</svg>