<?xml version="1.0" encoding="UTF-8" standalone="no"?>
<svg width="90px" height="90px" viewBox="0 0 90 90" version="1.1" xmlns="http://www.w3.org/2000/svg" xmlns:xlink="http://www.w3.org/1999/xlink">
    <!-- Generator: Sketch 3.8.1 (29687) - http://www.bohemiancoding.com/sketch -->
    <title>Slice 1</title>
    <desc>Created with Sketch.</desc>
    <defs></defs>
    <g id="Page-1" stroke="none" stroke-width="1" fill="none" fill-rule="evenodd">
        <g id="noun_95381_cc" fill="#000000">
            <g id="Group">
                <path d="M79.191,38.303 C80.594,37.303 81.89,35.721 81.016,34.833 C80.763,34.573 78.459,32.285 75.328,29.17 L89.64,14.858 C90.119,14.38 90.119,13.603 89.643,13.127 C89.163,12.649 88.389,12.649 87.91,13.128 L73.593,27.446 C71.861,25.721 69.966,23.836 68.065,21.945 C66.177,20.048 64.297,18.156 62.575,16.426 L76.891,2.108 C77.37,1.629 77.37,0.855 76.891,0.379 C76.414,-0.1 75.64,-0.1 75.162,0.379 L60.848,14.69 C57.73,11.552 55.438,9.249 55.178,8.994 C54.29,8.123 52.708,9.416 51.709,10.817 C51.549,11.039 51.5,11.299 51.49,11.574 L72.23,32.315 C72.484,32.568 72.485,32.98 72.23,33.234 C71.976,33.488 71.565,33.488 71.312,33.232 L51.856,13.774 C52,14.592 51.99,15.421 51.285,16.127 C49.284,18.128 47.191,20.022 46.014,21.046 C40.277,26.039 40.452,27.868 40.608,30.541 C40.705,32.202 41.143,34.732 39.283,36.593 C35.902,39.974 34.73,37.989 33.376,39.341 L32.354,40.364 C31.945,40.773 31.945,41.435 32.354,41.844 L43.27,52.761 C43.525,53.015 43.525,53.427 43.27,53.68 C43.017,53.932 42.604,53.932 42.353,53.68 L32.725,44.05 L30.203,46.57 C29.814,46.96 29.815,47.593 30.203,47.982 L35.478,53.255 C35.729,53.508 35.729,53.919 35.478,54.173 C35.225,54.425 34.813,54.427 34.56,54.173 L31.747,51.362 L31.092,52.018 L29.059,49.985 C28.669,49.596 28.066,49.622 27.71,50.041 L25.039,53.21 C24.684,53.629 24.714,54.29 25.098,54.679 L29.579,59.156 C29.833,59.41 29.833,59.82 29.578,60.076 C29.325,60.328 28.912,60.328 28.659,60.076 L25.849,57.264 L25.193,57.918 L23.746,56.471 C23.357,56.082 22.764,56.119 22.427,56.553 L20.023,59.637 C19.688,60.071 19.729,60.742 20.117,61.131 L21.051,62.063 L21.041,62.073 L23.85,64.884 C24.104,65.136 24.103,65.55 23.85,65.802 C23.596,66.056 23.184,66.056 22.93,65.802 L20.121,62.993 L19.475,63.638 L18.74,62.906 C18.352,62.517 17.753,62.549 17.412,62.976 L16.704,63.855 C16.363,64.283 16.398,64.949 16.786,65.335 L20.09,68.642 C20.343,68.896 20.342,69.308 20.094,69.56 C19.839,69.814 19.428,69.814 19.173,69.562 L17.346,67.734 L0,85.084 L4.896,89.98 L22.244,72.63 L22.522,72.905 C22.932,73.315 23.595,73.315 24.003,72.905 L24.181,72.725 L24.677,73.221 C25.065,73.61 25.731,73.647 26.158,73.303 L27.036,72.596 C27.461,72.254 27.497,71.657 27.109,71.266 L26.374,70.534 L27.95,68.96 L28.883,69.894 C29.269,70.281 29.942,70.326 30.374,69.986 L33.46,67.584 C33.893,67.246 33.929,66.654 33.54,66.268 L32.092,64.819 L33.667,63.245 L35.334,64.911 C35.72,65.302 36.38,65.329 36.801,64.973 L39.968,62.301 C40.39,61.947 40.416,61.342 40.026,60.951 L37.994,58.92 L39.567,57.344 L42.032,59.807 C42.419,60.196 43.053,60.196 43.442,59.807 L46.879,56.371 L48.168,57.658 C48.577,58.066 49.239,58.066 49.648,57.656 L50.669,56.635 C52.022,55.283 50.038,54.11 53.42,50.727 C55.279,48.866 57.81,49.305 59.471,49.403 C62.145,49.558 63.973,49.735 68.965,43.997 C69.989,42.82 71.884,40.728 73.885,38.727 C75.548,37.063 77.897,39.227 79.191,38.303 L79.191,38.303 Z M51.83,36.901 C51.154,37.578 50.058,37.578 49.383,36.901 L43.656,31.175 C42.98,30.498 42.978,29.404 43.656,28.727 C44.333,28.051 45.427,28.051 46.104,28.727 L51.83,34.454 C52.507,35.128 52.507,36.226 51.83,36.901 L51.83,36.901 Z" id="Shape"></path>
            </g>
        </g>
    </g>
</svg>