<?xml version="1.0" encoding="UTF-8" standalone="no"?>
<svg width="70px" height="68px" viewBox="0 0 70 68" version="1.1" xmlns="http://www.w3.org/2000/svg" xmlns:xlink="http://www.w3.org/1999/xlink">
    <!-- Generator: Sketch 3.8.1 (29687) - http://www.bohemiancoding.com/sketch -->
    <title>Slice 1</title>
    <desc>Created with Sketch.</desc>
    <defs></defs>
    <g id="Page-1" stroke="none" stroke-width="1" fill="none" fill-rule="evenodd">
        <g id="noun_50425_cc" fill="#000000">
            <g id="Group">
                <g id="Shape">
                    <path d="M42.716,35.303 C43.113,35.7 43.76,35.7 44.158,35.303 L50.825,28.636 L51.237,26.129 L51.925,26.816 C52.124,27.015 52.446,27.015 52.646,26.816 L53.837,25.625 C54.035,25.426 54.035,25.103 53.837,24.904 L52.765,23.831 L53.614,22.981 L54.687,24.053 C54.886,24.253 55.209,24.253 55.409,24.053 L56.599,22.863 C56.798,22.663 56.798,22.341 56.599,22.141 L55.527,21.069 L56.378,20.218 L57.45,21.291 C57.648,21.49 57.971,21.49 58.172,21.291 L59.362,20.101 C59.562,19.902 59.562,19.579 59.362,19.379 L58.289,18.306 L59.141,17.456 L60.575,18.89 L62.487,16.977 L62.655,16.809 C63.453,16.012 63.453,14.72 62.655,13.923 L61.458,12.726 L63.07,11.114 L62.305,10.35 L63.55,9.105 L63.557,9.111 L67.336,7.23 L69.217,3.45 L65.768,0 L61.988,1.88 L60.108,5.661 L60.113,5.667 L58.869,6.912 L58.105,6.149 L56.492,7.761 L55.296,6.563 C54.499,5.766 53.207,5.766 52.41,6.563 L52.24,6.732 L50.327,8.644 L51.761,10.078 L50.911,10.928 L49.838,9.856 C49.64,9.656 49.316,9.656 49.116,9.856 L47.927,11.047 C47.727,11.246 47.727,11.569 47.927,11.769 L48.998,12.841 L48.147,13.691 L47.075,12.618 C46.876,12.418 46.554,12.418 46.354,12.618 L45.163,13.809 C44.964,14.009 44.964,14.331 45.163,14.531 L46.236,15.603 L45.385,16.454 L44.313,15.381 C44.113,15.182 43.791,15.182 43.592,15.381 L42.4,16.57 C42.201,16.77 42.201,17.092 42.4,17.292 L43.087,17.979 L40.581,18.392 L33.914,25.059 C33.515,25.457 33.515,26.104 33.914,26.502 L42.716,35.303 L42.716,35.303 Z"></path>
                    <path d="M3.353,67.333 C3.552,67.532 3.813,67.632 4.075,67.632 C4.337,67.632 4.597,67.532 4.797,67.333 C5.196,66.934 5.196,66.287 4.797,65.89 L2.34,63.433 C2.147,63.24 2.041,62.984 2.041,62.711 C2.041,62.44 2.147,62.183 2.34,61.989 L5.129,59.199 L6.42,60.49 L4.638,62.273 C4.239,62.67 4.239,63.318 4.638,63.716 L6.511,65.588 C6.91,65.986 7.556,65.986 7.954,65.588 L9.736,63.806 L12.473,66.543 C12.673,66.743 12.995,66.743 13.195,66.543 L14.518,65.22 C14.717,65.021 14.717,64.699 14.518,64.499 L13.676,63.657 C13.576,63.556 13.576,63.394 13.676,63.296 L14.097,62.875 C14.196,62.775 14.358,62.775 14.458,62.875 L15.299,63.717 C15.498,63.916 15.821,63.916 16.02,63.717 L17.404,62.334 C17.604,62.135 17.604,61.811 17.404,61.611 L16.562,60.77 C16.462,60.67 16.462,60.509 16.562,60.409 L16.982,59.988 C17.082,59.888 17.243,59.888 17.343,59.988 L18.185,60.831 C18.384,61.029 18.707,61.029 18.907,60.831 L20.29,59.446 C20.489,59.247 20.489,58.925 20.29,58.724 L19.448,57.882 C19.349,57.782 19.349,57.621 19.448,57.522 L19.869,57.101 C19.969,57.002 20.13,57.002 20.23,57.101 L21.071,57.943 C21.271,58.143 21.593,58.143 21.793,57.943 L23.032,56.704 L23.556,57.228 C24.353,58.025 25.645,58.025 26.442,57.228 L31.966,51.705 C32.041,51.63 32.103,51.546 32.164,51.462 C32.909,52.036 33.978,51.99 34.661,51.307 C35.403,50.566 35.403,49.363 34.661,48.62 L20.591,34.552 C19.849,33.81 18.647,33.81 17.905,34.552 C17.222,35.235 17.176,36.304 17.749,37.048 C17.666,37.109 17.582,37.17 17.506,37.246 L11.983,42.77 C11.186,43.567 11.186,44.859 11.983,45.655 L12.507,46.18 L11.267,47.419 C11.068,47.618 11.068,47.941 11.267,48.141 L12.109,48.982 C12.209,49.083 12.209,49.245 12.109,49.342 L11.688,49.763 C11.589,49.864 11.428,49.864 11.328,49.763 L10.486,48.922 C10.286,48.723 9.964,48.723 9.765,48.922 L8.381,50.306 C8.182,50.505 8.182,50.827 8.381,51.028 L9.223,51.871 C9.323,51.97 9.323,52.131 9.223,52.231 L8.879,52.574 C8.864,52.588 8.846,52.592 8.833,52.605 L8.78,52.663 C8.68,52.743 8.538,52.745 8.446,52.652 L7.604,51.81 C7.405,51.611 7.082,51.611 6.882,51.81 L5.499,53.194 C5.3,53.393 5.3,53.716 5.499,53.916 L6.341,54.758 C6.434,54.85 6.431,54.992 6.352,55.092 L5.894,55.551 C5.794,55.629 5.652,55.631 5.56,55.54 L4.718,54.697 C4.518,54.497 4.197,54.497 3.996,54.697 L2.673,56.02 C2.474,56.219 2.474,56.541 2.673,56.741 L3.688,57.756 L0.898,60.547 C0.318,61.124 0,61.894 0,62.711 C0,63.529 0.318,64.298 0.896,64.875 L3.353,67.333 L3.353,67.333 Z"></path>
                    <path d="M25.23,35.435 L33.781,43.987 C33.981,44.186 34.303,44.186 34.503,43.987 L40.677,37.813 C40.875,37.614 40.875,37.292 40.677,37.092 L32.125,28.54 C31.925,28.34 31.603,28.34 31.403,28.54 L25.23,34.714 C25.03,34.913 25.03,35.235 25.23,35.435 L25.23,35.435 Z"></path>
                    <path d="M22.953,32.985 C23.087,33.208 23.393,33.245 23.577,33.061 L29.751,26.888 C29.935,26.704 29.897,26.397 29.675,26.263 L25.712,23.867 C25.455,23.712 25.126,23.752 24.914,23.964 L20.653,28.225 C20.442,28.437 20.402,28.767 20.556,29.023 L22.953,32.985 L22.953,32.985 Z"></path>
                    <path d="M42.328,39.466 L36.155,45.639 C35.97,45.823 36.009,46.13 36.23,46.264 L40.194,48.66 C40.45,48.814 40.78,48.773 40.992,48.562 L45.254,44.303 C45.464,44.09 45.504,43.761 45.35,43.503 L42.954,39.54 C42.819,39.318 42.513,39.282 42.328,39.466 L42.328,39.466 Z"></path>
                </g>
            </g>
        </g>
    </g>
</svg>