<svg xmlns="http://www.w3.org/2000/svg" xmlns:xlink="http://www.w3.org/1999/xlink" version="1.1" x="0px" y="0px" viewBox="0 0 100 100" enable-background="new 0 0 100 100" xml:space="preserve"><rect fill="none" width="100" height="100"></rect><path d="M63.449,58.067h-0.004H60.42c-0.148-1.678-0.466-3.33-0.947-4.941l2.813-1.117c1.147-0.453,1.708-1.751,1.255-2.893  c-1.531-3.874-3.8-7.328-6.747-10.278c-0.42-0.416-0.986-0.651-1.578-0.651c0,0,0,0-0.002,0c-0.592,0-1.16,0.235-1.58,0.655  l-2.136,2.139c-1.291-1.076-2.684-2.023-4.167-2.823l1.199-2.782c0.488-1.129-0.033-2.439-1.164-2.93  c-3.817-1.652-7.864-2.493-12.026-2.493c-1.234,0-2.232,1.001-2.232,2.234v3.033c-1.674,0.144-3.327,0.465-4.942,0.948l-1.115-2.815  c-0.455-1.146-1.746-1.71-2.897-1.253c-3.87,1.529-7.324,3.796-10.266,6.738c-0.873,0.874-0.873,2.287-0.003,3.161l2.142,2.139  C14.944,45.427,14,46.82,13.199,48.3l-2.777-1.195c-1.131-0.49-2.445,0.033-2.935,1.162C5.838,52.083,5,56.13,5,60.297  c0,1.231,0.998,2.233,2.23,2.233h3.024c0.149,1.682,0.468,3.334,0.951,4.941l-2.813,1.116c-1.146,0.454-1.705,1.752-1.252,2.897  c1.528,3.861,3.798,7.319,6.746,10.262c0.872,0.87,2.285,0.87,3.158,0l2.136-2.139c1.292,1.08,2.684,2.027,4.164,2.831l-1.197,2.773  c-0.487,1.134,0.031,2.444,1.163,2.935c3.813,1.652,7.854,2.489,12.015,2.489h0.015c1.234-0.004,2.233-1.001,2.233-2.233v-3.021  c1.68-0.152,3.335-0.47,4.94-0.951l1.117,2.814c0.452,1.146,1.745,1.71,2.894,1.253c3.861-1.529,7.317-3.8,10.27-6.751  c0.874-0.873,0.874-2.287,0-3.161l-2.137-2.135c1.078-1.285,2.021-2.683,2.821-4.162l2.775,1.203  c1.13,0.482,2.446-0.032,2.937-1.162c1.65-3.815,2.489-7.858,2.489-12.033c0-0.594-0.235-1.158-0.653-1.579  C64.607,58.302,64.038,58.067,63.449,58.067z M59.893,68.469l-2.601-1.125c-0.544-0.235-1.16-0.243-1.712-0.024  c-0.549,0.214-0.991,0.646-1.225,1.19c-1.044,2.415-2.515,4.583-4.367,6.438c-0.871,0.87-0.871,2.283,0.002,3.152l1.999,2.003  c-1.559,1.311-3.253,2.428-5.068,3.33l-0.796-2.007c-0.017-0.227-0.069-0.457-0.159-0.68c-0.456-1.134-1.753-1.682-2.893-1.24  c-0.006,0.004-0.013,0.008-0.021,0.008c-2.475,0.997-5.069,1.5-7.712,1.5c-1.234,0-2.232,1.002-2.232,2.233v2.827  c-2.024-0.169-4.011-0.581-5.938-1.228l1.123-2.601c0.236-0.544,0.245-1.158,0.026-1.706c-0.219-0.553-0.648-0.989-1.19-1.229  c-2.414-1.042-4.579-2.51-6.436-4.368c-0.872-0.87-2.284-0.87-3.156,0l-2.004,2.003c-1.31-1.558-2.425-3.248-3.329-5.069l2.013-0.8  c0.225-0.016,0.45-0.065,0.667-0.156c1.145-0.457,1.694-1.772,1.235-2.914c-0.994-2.477-1.496-5.073-1.496-7.71  c0-1.229-0.999-2.229-2.232-2.229H9.56c0.174-2.028,0.584-4.015,1.227-5.943l2.603,1.121c0.544,0.235,1.158,0.243,1.71,0.029  c0.549-0.219,0.989-0.647,1.225-1.191c1.04-2.411,2.51-4.575,4.367-6.438c0.873-0.87,0.873-2.283,0-3.157L18.69,40.49  c1.554-1.311,3.249-2.423,5.066-3.33l0.766,1.929c0.006,0.255,0.061,0.519,0.164,0.771c0.462,1.142,1.759,1.694,2.905,1.236  c2.485-1.005,5.093-1.517,7.75-1.517c1.231,0,2.233-0.997,2.233-2.229v-2.835c2.023,0.177,4.01,0.585,5.937,1.228l-1.123,2.601  c-0.488,1.133,0.031,2.448,1.162,2.935c2.42,1.046,4.589,2.518,6.442,4.373c0.418,0.416,0.985,0.651,1.578,0.651l0,0  c0.593,0,1.161-0.235,1.58-0.655l1.999-1.999c1.311,1.554,2.425,3.251,3.329,5.069l-2.005,0.792  c-0.227,0.021-0.455,0.074-0.678,0.161c-1.142,0.461-1.686,1.793-1.228,2.935c0.988,2.473,1.489,5.061,1.489,7.694  c0,0.593,0.235,1.162,0.655,1.578c0.418,0.42,0.985,0.655,1.578,0.655l0,0h2.83C60.947,64.558,60.535,66.544,59.893,68.469z   M57.249,37.152l2.283-1.797c2.495,2.683,5.953,4.2,9.649,4.2c0.305,0,0.62-0.013,0.965-0.042l0.457,2.864  c0.087,0.548,0.561,0.94,1.101,0.94c0.058,0,0.117-0.004,0.177-0.017c2.894-0.458,5.634-1.653,7.926-3.462  c0.23-0.181,0.383-0.449,0.416-0.746c0.037-0.292-0.048-0.589-0.231-0.82l-1.796-2.279c2.683-2.501,4.201-5.959,4.201-9.656  c0-0.309-0.011-0.63-0.039-0.96l2.86-0.458c0.292-0.045,0.554-0.202,0.729-0.441c0.173-0.243,0.247-0.544,0.197-0.833  c-0.462-2.901-1.656-5.646-3.462-7.929c-0.379-0.486-1.079-0.568-1.565-0.189l-2.283,1.801c-2.498-2.687-5.955-4.208-9.652-4.208  c-0.313,0-0.635,0.017-0.966,0.045l-0.454-2.86c-0.097-0.61-0.669-1.03-1.275-0.927c-2.901,0.458-5.646,1.657-7.934,3.462  c-0.481,0.383-0.564,1.084-0.185,1.566l1.797,2.283c-2.684,2.498-4.2,5.959-4.2,9.648c0,0.313,0.013,0.635,0.041,0.968l-2.864,0.454  c-0.607,0.099-1.021,0.667-0.925,1.277c0.457,2.897,1.657,5.642,3.464,7.934C56.062,37.453,56.765,37.535,57.249,37.152z   M57.279,29.367c0.077-0.004,0.155-0.012,0.233-0.037c0.564-0.136,0.925-0.685,0.834-1.261c-0.099-0.635-0.147-1.199-0.147-1.731  c0-3.375,1.526-6.52,4.195-8.625c0.039-0.029,0.076-0.058,0.108-0.095c0.417-0.416,0.431-1.083,0.04-1.524  c-0.013-0.013-0.025-0.029-0.04-0.042l-1.664-2.114c1.485-1.001,3.146-1.727,4.899-2.139l0.423,2.675  c0.004,0.053,0.012,0.111,0.024,0.165c0.124,0.581,0.676,0.96,1.27,0.87c0.631-0.103,1.199-0.152,1.727-0.152  c3.382,0,6.524,1.529,8.622,4.199c0.381,0.486,1.081,0.569,1.567,0.186L81.587,18c0.997,1.484,1.725,3.145,2.139,4.9l-2.782,0.433  c-0.292,0.049-0.554,0.21-0.729,0.453c-0.173,0.239-0.245,0.532-0.199,0.824c0.101,0.639,0.15,1.204,0.15,1.727  c0,3.305-1.466,6.388-4.142,8.588c-0.029,0.021-0.059,0.037-0.083,0.058l0.004,0.008c-0.035,0.029-0.069,0.054-0.104,0.083  c-0.419,0.417-0.423,1.076-0.031,1.521c0.031,0.033,0.066,0.07,0.101,0.099l1.614,2.048c-1.488,1.001-3.151,1.727-4.896,2.139  l-0.445-2.777l-0.062,0.008c-0.091-0.54-0.643-0.94-1.197-0.94c-0.57,0.086-1.147,0.153-1.741,0.153  c-3.404,0-6.563-1.554-8.665-4.253c-0.01-0.012-0.019-0.024-0.03-0.037c-0.002-0.004-0.005-0.004-0.002-0.004h-0.003  c-0.387-0.454-1.063-0.523-1.532-0.157c-0.111,0.091-0.204,0.194-0.272,0.309l-1.899,1.5c-1-1.483-1.728-3.148-2.142-4.9  L57.279,29.367z M94.012,53.386l-3.822-0.445c-0.01-2.423-0.966-4.731-2.705-6.45c-0.083-0.083-0.161-0.161-0.243-0.235l2.243-3.115  c0.361-0.503,0.25-1.199-0.253-1.558c-1.949-1.409-4.236-2.295-6.61-2.567c-0.614-0.078-1.162,0.367-1.236,0.977l-0.445,3.829  c-2.448,0.017-4.739,0.977-6.462,2.708c-0.074,0.078-0.152,0.156-0.223,0.239l-3.117-2.246c-0.241-0.173-0.542-0.247-0.831-0.198  c-0.292,0.049-0.554,0.21-0.729,0.449c-1.409,1.958-2.295,4.245-2.563,6.615c-0.069,0.614,0.371,1.166,0.981,1.236l3.826,0.44  c0.011,2.424,0.967,4.731,2.71,6.458c0.076,0.078,0.156,0.152,0.239,0.227l-2.246,3.12c-0.361,0.499-0.248,1.195,0.251,1.558  c1.953,1.409,4.241,2.3,6.614,2.567c0.046,0.009,0.087,0.009,0.128,0.009c0.561,0,1.043-0.421,1.108-0.989l0.441-3.829  c2.448-0.012,4.739-0.973,6.458-2.707c0.078-0.078,0.152-0.157,0.227-0.235l3.122,2.242c0.5,0.362,1.197,0.247,1.556-0.251  c1.409-1.954,2.295-4.241,2.563-6.615C95.063,54.008,94.624,53.455,94.012,53.386z M91.23,58.99l-3.029-2.181  c-0.503-0.362-1.197-0.247-1.558,0.252c-0.21,0.292-0.438,0.577-0.705,0.845c-1.5,1.517-3.622,2.259-5.753,1.999  c-0.553-0.058-0.991,0.317-1.129,0.856c-0.011,0.046-0.019,0.087-0.023,0.137L78.97,60.89l-0.429,3.705  c-1.236-0.264-2.428-0.726-3.523-1.368l2.036-2.827c0.375-0.338,0.479-0.882,0.255-1.331c-0.08-0.161-0.214-0.313-0.358-0.42  c-0.29-0.211-0.579-0.445-0.845-0.705c-1.533-1.521-2.263-3.627-1.999-5.782c0.074-0.605-0.346-1.211-0.952-1.29  c-0.177-0.024-0.352-0.008-0.511,0.042l-3.231-0.375c0.26-1.232,0.724-2.427,1.369-3.52l2.954,2.126  c0.12,0.099,0.262,0.177,0.421,0.223c0.451,0.127,0.923-0.042,1.199-0.417c0.214-0.292,0.445-0.581,0.709-0.853  c1.5-1.504,3.626-2.246,5.74-1.999h0.005c0,0,0.002,0,0.004,0c0.103,0.012,0.202,0.008,0.301-0.008  c0.544-0.086,0.939-0.557,0.938-1.109l0.416-3.569c1.234,0.264,2.426,0.726,3.521,1.368l-2.176,3.025l0.066,0.05  c-0.313,0.441-0.213,1.108,0.177,1.504c0.004,0,0.004,0,0.004,0c0.293,0.214,0.577,0.437,0.845,0.709  c1.521,1.508,2.251,3.594,2.003,5.733c-0.069,0.614,0.369,1.17,0.981,1.236l3.707,0.433C92.335,56.707,91.873,57.894,91.23,58.99z"></path></svg>