<?xml version="1.0" encoding="UTF-8" standalone="no"?>
<svg width="76px" height="92px" viewBox="0 0 76 92" version="1.1" xmlns="http://www.w3.org/2000/svg" xmlns:xlink="http://www.w3.org/1999/xlink">
    <!-- Generator: Sketch 3.8.1 (29687) - http://www.bohemiancoding.com/sketch -->
    <title>Slice 1</title>
    <desc>Created with Sketch.</desc>
    <defs></defs>
    <g id="Page-1" stroke="none" stroke-width="1" fill="none" fill-rule="evenodd">
        <g id="noun_451867_cc" fill="#000000">
            <g id="Group">
                <g id="Shape">
                    <path d="M22.2,76 C8.5,69.3 1,54.9 3.8,39.8 C6.4,25.6 18.9,15.2 33,13.8 C34.9,13.6 34.9,10.6 33,10.8 C17.2,12.4 4.4,23.5 0.9,39 C-2.7,55.1 6.2,71.5 20.7,78.5 C22.5,79.4 24,76.8 22.2,76 L22.2,76 L22.2,76 Z"></path>
                    <g transform="translate(30.000000, 0.000000)">
                        <polyline points="17.2 14 1.6 23 1.6 1.6 20.1 12.3 17.2 14"></polyline>
                        <path d="M16.5,12.7 C11.3,15.7 6.1,18.7 0.9,21.7 C1.7,22.1 2.4,22.6 3.2,23 L3.2,1.6 C2.4,2 1.7,2.5 0.9,2.9 C7,6.5 13.2,10 19.3,13.6 L19.3,11 C18.4,11.6 17.4,12.1 16.5,12.7 C14.8,13.7 16.3,16.3 18,15.3 C19,14.7 19.9,14.2 20.9,13.6 C21.9,13 21.9,11.6 20.9,11 C14.7,7.4 8.6,3.9 2.4,0.3 C1.4,-0.3 0.1,0.5 0.1,1.6 L0.1,23 C0.1,24.1 1.4,24.9 2.4,24.3 C7.6,21.3 12.8,18.3 18,15.3 C19.7,14.3 18.1,11.7 16.5,12.7 L16.5,12.7 L16.5,12.7 Z"></path>
                    </g>
                </g>
                <g transform="translate(24.000000, 13.000000)" id="Shape">
                    <path d="M29.7,3 C43.4,9.7 50.9,24.1 48.2,39.2 C45.6,53.4 33.1,63.8 19,65.2 C17.1,65.4 17.1,68.4 19,68.2 C34.8,66.6 47.6,55.5 51.1,40 C54.7,23.9 45.8,7.5 31.3,0.4 C29.5,-0.4 28,2.1 29.7,3 L29.7,3 L29.7,3 Z"></path>
                    <g transform="translate(0.000000, 54.000000)">
                        <polyline points="4.8 11 20.4 2 20.4 23.4 1.9 12.7 4.8 11"></polyline>
                        <path d="M5.5,12.3 C10.7,9.3 15.9,6.3 21.1,3.3 C20.3,2.9 19.6,2.4 18.8,2 L18.8,23.4 C19.6,23 20.3,22.5 21.1,22.1 C15,18.5 8.8,15 2.7,11.4 L2.7,14 C3.6,13.4 4.6,12.9 5.5,12.3 C7.2,11.3 5.7,8.7 4,9.7 C3,10.3 2.1,10.8 1.1,11.4 C0.1,12 0.1,13.4 1.1,14 C7.3,17.6 13.4,21.1 19.6,24.7 C20.6,25.3 21.9,24.5 21.9,23.4 L21.9,2 C21.9,0.9 20.6,0.1 19.6,0.7 L4,9.7 C2.3,10.7 3.9,13.3 5.5,12.3 L5.5,12.3 L5.5,12.3 Z"></path>
                    </g>
                </g>
            </g>
        </g>
    </g>
</svg>