<?xml version="1.0" encoding="UTF-8" standalone="no"?>
<svg width="90px" height="82px" viewBox="0 0 90 82" version="1.1" xmlns="http://www.w3.org/2000/svg" xmlns:xlink="http://www.w3.org/1999/xlink">
    <!-- Generator: Sketch 3.8.1 (29687) - http://www.bohemiancoding.com/sketch -->
    <title>Slice 1</title>
    <desc>Created with Sketch.</desc>
    <defs></defs>
    <g id="Page-1" stroke="none" stroke-width="1" fill="none" fill-rule="evenodd">
        <g id="noun_409517_cc" fill="#000000">
            <g id="Group">
                <path d="M87.972,59.583 L57.916,7.509 C52.157,-2.45 37.819,-2.45 32.119,7.509 L2.003,59.583 C-3.696,69.541 3.443,81.96 14.901,81.96 L75.073,81.96 C86.532,81.96 93.731,69.541 87.972,59.583 L87.972,59.583 Z M55.216,47.764 L43.038,67.742 C41.778,69.842 39.018,70.562 36.859,69.242 C34.759,67.982 34.1,65.223 35.359,63.063 L43.338,49.925 L36.379,49.925 C34.759,49.925 33.26,49.025 32.48,47.585 C31.64,46.205 31.7,44.465 32.54,43.086 L44.658,23.048 C45.978,20.948 48.737,20.289 50.837,21.548 C52.997,22.868 53.656,25.627 52.337,27.727 L44.358,40.925 L51.377,40.925 C52.997,40.925 54.497,41.765 55.277,43.205 C56.056,44.585 56.056,46.324 55.216,47.764 L55.216,47.764 Z" id="Shape"></path>
            </g>
        </g>
    </g>
</svg>